<svg xmlns="http://www.w3.org/2000/svg" width="147" height="74" viewBox="0 0 147 74" fill="none">
  <path d="M24.0149 19.1778C24.0149 19.1778 23.9636 19.2058 23.8842 19.2058C23.7815 19.2058 23.6742 19.1778 23.6742 19.1545C23.6742 18.7905 23.5949 18.4265 23.4129 18.2212C23.1515 17.9365 22.7362 17.7545 21.1822 17.7545C20.8695 17.7545 20.6875 17.7825 20.5615 17.7825C20.5102 17.9365 20.4822 18.4825 20.4822 19.3645V22.7385C20.4822 25.2819 20.6129 25.5946 20.7949 25.6739C20.9769 25.7766 21.3409 25.8559 21.9102 25.9072C21.9382 25.9352 21.9382 26.0099 21.9382 26.0892C21.9382 26.1686 21.9382 26.2432 21.9102 26.2432H17.8082C17.7802 26.2432 17.7568 26.1639 17.7568 26.0892C17.7568 26.0099 17.7848 25.9352 17.8082 25.9072C18.3775 25.8559 18.7415 25.7766 18.9235 25.6739C19.1055 25.5946 19.2082 25.2866 19.2082 22.7385V19.3645C19.2082 18.4825 19.2082 17.9365 19.1568 17.7825C19.0262 17.7825 18.7695 17.7545 18.4568 17.7545C16.9775 17.7545 16.5621 17.9085 16.2261 18.2212C15.9928 18.4312 15.8621 18.8465 15.7828 19.1825C15.7828 19.2105 15.7548 19.2105 15.7035 19.2105C15.6008 19.2105 15.4421 19.1592 15.4421 19.1312L15.6521 17.1058C15.6521 17.0778 15.6801 17.0545 15.7315 17.0545C16.2495 17.1338 17.3648 17.2085 19.8615 17.2085C23.2869 17.2085 23.8095 17.1291 24.0662 17.0265C24.1176 17.0265 24.1456 17.0545 24.1456 17.0778C24.1456 17.6192 24.1176 18.4218 24.0149 19.1778Z" fill="#FFFFFF"/>
  <path d="M31.5422 26.2386C31.5142 26.2386 31.4909 26.1592 31.4909 26.0846C31.4909 26.0052 31.5189 25.9306 31.5422 25.9026C32.1116 25.8512 32.3449 25.7719 32.5269 25.6692C32.7089 25.5899 32.8396 25.2819 32.8396 22.7339V21.9032H27.6222V22.7339C27.6222 25.2772 27.7529 25.5899 27.9349 25.6692C28.1169 25.7719 28.3502 25.8512 28.9196 25.9026C28.9476 25.9306 28.9709 26.0052 28.9709 26.1079C28.9709 26.1592 28.9429 26.2386 28.9429 26.2386H25.0462C25.0182 26.2386 25.0182 26.1592 25.0182 26.0846C25.0182 26.0052 25.0182 25.9306 25.0695 25.9026C25.6389 25.8512 25.8722 25.7719 26.0542 25.6692C26.2362 25.5899 26.3389 25.2819 26.3389 22.7339V20.7085C26.3389 18.1652 26.2362 17.8525 26.0542 17.7732C25.8722 17.6705 25.6389 17.5912 25.0695 17.5118C25.0182 17.5118 25.0182 17.4325 25.0182 17.3578C25.0182 17.2785 25.0182 17.2038 25.0462 17.2038H28.9429C28.9429 17.2038 28.9709 17.2552 28.9709 17.3065C28.9709 17.3858 28.9429 17.5165 28.9196 17.5165C28.3502 17.5958 28.1169 17.6705 27.9349 17.7778C27.7529 17.8572 27.6222 18.1652 27.6222 20.7132V21.3385H32.8396V20.7132C32.8396 18.1698 32.7089 17.8572 32.5269 17.7778C32.3449 17.6752 32.1116 17.5958 31.5422 17.5165C31.5142 17.5165 31.4909 17.4372 31.4909 17.3625C31.4909 17.2832 31.5189 17.2085 31.5422 17.2085H35.4109C35.4389 17.2085 35.439 17.2598 35.439 17.3392C35.439 17.4185 35.439 17.5212 35.3876 17.5212C34.8416 17.6005 34.5849 17.6752 34.4029 17.7825C34.2489 17.8618 34.1183 18.1698 34.1183 20.7179V22.7432C34.1183 25.2866 34.2489 25.5992 34.4029 25.6786C34.5849 25.7812 34.8463 25.8606 35.3876 25.9119C35.439 25.9399 35.439 26.0426 35.439 26.1172C35.439 26.1966 35.4389 26.2479 35.4109 26.2479H31.5422V26.2386Z" fill="#FFFFFF"/>
  <path d="M42.6023 26.0332C42.4997 26.1872 42.4203 26.2946 42.0563 26.2946C41.1743 26.2946 40.1337 26.2432 38.939 26.2432C38.0056 26.2432 37.4316 26.2432 36.4189 26.2712C36.3909 26.2712 36.3676 26.1919 36.3676 26.1172C36.3676 26.0379 36.3956 25.9632 36.4189 25.9352C36.9883 25.8839 37.2496 25.8046 37.4036 25.7019C37.5856 25.6226 37.7163 25.2866 37.7163 22.7432V20.7178C37.7163 18.1745 37.5856 17.8338 37.4036 17.7592C37.2496 17.6565 36.9883 17.5772 36.4189 17.4978C36.3909 17.4978 36.3676 17.4185 36.3676 17.3438C36.3676 17.2645 36.3956 17.1898 36.4189 17.1898C37.5343 17.2178 39.303 17.2178 40.2363 17.2178C41.4823 17.2178 42.1077 17.1665 42.5743 17.1665C42.6257 17.1665 42.6257 17.1945 42.6257 17.2178C42.5743 17.6845 42.5463 18.3612 42.4717 19.0892C42.4717 19.1172 42.3923 19.1405 42.3177 19.1405C42.215 19.1405 42.1123 19.1125 42.1123 19.0612C42.1123 18.6972 42.033 18.3612 41.8277 18.1278C41.5943 17.8945 41.179 17.7638 40.1663 17.7638C39.597 17.7638 39.205 17.7918 39.051 17.7918C38.9996 17.9458 38.9996 18.4172 38.9996 19.2992V21.2732H40.0636C41.4403 21.2732 41.6223 20.9605 41.697 20.4705C41.697 20.4425 41.7997 20.4425 41.879 20.4425C41.9583 20.4425 42.061 20.4425 42.061 20.4705C42.033 20.8578 41.9817 22.5239 41.9817 22.8832C41.9817 22.9112 41.879 22.9345 41.7997 22.9345C41.697 22.9345 41.6177 22.9065 41.6177 22.8832C41.6177 22.6219 41.5663 22.2625 41.4077 22.1319C41.277 22.0292 41.0717 21.8705 40.031 21.8705H38.9903V22.7525C38.9903 24.4419 39.121 25.2446 39.303 25.4546C39.485 25.6086 39.667 25.7159 40.521 25.7159C41.403 25.7159 41.8977 25.5106 42.1543 25.2212C42.3643 25.0112 42.5183 24.7266 42.621 24.2599C42.621 24.2319 42.6723 24.2319 42.7003 24.2319C42.7797 24.2319 42.9103 24.2832 42.8823 24.3112C42.8357 25.0206 42.705 25.8232 42.6023 26.0332Z" fill="#FFFFFF"/>
  <path d="M56.3084 25.7206C56.1264 25.9819 55.1651 26.3692 53.4524 26.3692C50.4937 26.3692 48.3097 24.3439 48.3097 21.8239C48.3097 19.4345 50.2324 17.0732 53.4244 17.0732C55.0858 17.0732 55.8931 17.4885 56.4344 17.4885C56.4624 17.4885 56.4858 17.5165 56.4858 17.5398C56.5138 18.0345 56.5371 18.7858 56.5371 19.5372C56.5371 19.5652 56.4858 19.5885 56.4064 19.5885C56.3038 19.5885 56.1731 19.5605 56.1731 19.5092C56.1451 19.1452 55.9118 18.6785 55.6271 18.3938C55.1091 17.8992 54.2504 17.5912 53.2657 17.5912C50.671 17.5912 49.733 19.4345 49.733 21.4319C49.733 23.6905 51.1891 25.7952 53.4711 25.7952C54.5351 25.7952 55.2351 25.6132 55.7298 25.0439C56.0144 24.6799 56.1964 24.2412 56.3271 23.8259C56.3271 23.7979 56.3551 23.7979 56.4064 23.7979C56.5091 23.7979 56.6678 23.8492 56.6678 23.8772C56.6211 24.6052 56.4391 25.5386 56.3084 25.7206Z" fill="#FFFFFF"/>
  <path d="M64.4892 26.2386C64.4612 26.2386 64.4379 26.1592 64.4379 26.0846C64.4379 26.0052 64.4659 25.9306 64.4892 25.9026C65.0585 25.8512 65.2919 25.7719 65.4739 25.6692C65.6559 25.5899 65.7866 25.2819 65.7866 22.7339V21.9032H60.5692V22.7339C60.5692 25.2772 60.6998 25.5899 60.8818 25.6692C61.0638 25.7719 61.2972 25.8512 61.8665 25.9026C61.8945 25.9306 61.9178 26.0052 61.9178 26.1079C61.9178 26.1592 61.8898 26.2386 61.8898 26.2386H57.9931C57.9651 26.2386 57.9651 26.1592 57.9651 26.0846C57.9651 26.0052 57.9651 25.9306 58.0165 25.9026C58.5858 25.8512 58.8192 25.7719 59.0012 25.6692C59.1832 25.5899 59.2858 25.2819 59.2858 22.7339V20.7085C59.2858 18.1652 59.1832 17.8525 59.0012 17.7732C58.8192 17.6705 58.5858 17.5912 58.0165 17.5118C57.9651 17.5118 57.9651 17.4325 57.9651 17.3578C57.9651 17.2785 57.9651 17.2038 57.9931 17.2038H61.8898C61.8898 17.2038 61.9178 17.2552 61.9178 17.3065C61.9178 17.3858 61.8899 17.5165 61.8665 17.5165C61.2972 17.5958 61.0638 17.6705 60.8818 17.7778C60.6998 17.8572 60.5692 18.1652 60.5692 20.7132V21.3385H65.7866V20.7132C65.7866 18.1698 65.6559 17.8572 65.4739 17.7778C65.2919 17.6752 65.0585 17.5958 64.4892 17.5165C64.4612 17.5165 64.4379 17.4372 64.4379 17.3625C64.4379 17.2832 64.4659 17.2085 64.4892 17.2085H68.3579C68.3859 17.2085 68.3859 17.2598 68.3859 17.3392C68.3859 17.4185 68.3859 17.5212 68.3346 17.5212C67.7886 17.6005 67.5319 17.6752 67.3499 17.7825C67.1959 17.8618 67.0652 18.1698 67.0652 20.7179V22.7432C67.0652 25.2866 67.1959 25.5992 67.3499 25.6786C67.5319 25.7812 67.7932 25.8606 68.3346 25.9119C68.3859 25.9399 68.3859 26.0426 68.3859 26.1172C68.3859 26.1966 68.3859 26.2479 68.3579 26.2479H64.4892V26.2386Z" fill="#FFFFFF"/>
  <path d="M78.2467 17.8012C78.116 17.9038 77.9853 18.1652 77.9853 20.7085V23.0465C77.9853 24.7079 76.5853 26.3692 74.3267 26.3692C72.0913 26.3692 70.5373 24.8899 70.5373 23.0699V20.7085C70.5373 18.1652 70.4066 17.8525 70.2246 17.7732C70.0426 17.6705 69.8093 17.5912 69.2399 17.5118C69.2119 17.5118 69.1886 17.4325 69.1886 17.3578C69.1886 17.2785 69.2166 17.2038 69.2399 17.2038H73.188C73.188 17.2038 73.216 17.2832 73.216 17.3578C73.216 17.4372 73.188 17.5118 73.1646 17.5118C72.6186 17.5912 72.306 17.6658 72.124 17.7732C71.942 17.8525 71.8113 18.1605 71.8113 20.7085V22.7059C71.8113 24.4466 72.8753 25.5619 74.6673 25.5619C76.4313 25.5619 77.262 24.4186 77.262 22.8599V20.7039C77.262 18.1605 77.1313 17.8992 77.0007 17.7965C76.8467 17.6658 76.506 17.5912 75.9367 17.5118C75.9087 17.5118 75.9087 17.4325 75.9087 17.3812C75.9087 17.3018 75.9087 17.1992 75.9367 17.1992H79.236C79.264 17.1992 79.2874 17.3018 79.2874 17.3812C79.2874 17.4605 79.2594 17.5118 79.236 17.5118C78.662 17.5912 78.4007 17.6705 78.2467 17.8012Z" fill="#FFFFFF"/>
  <path d="M88.8635 26.2666C87.9815 26.2666 87.2814 26.1359 86.7074 25.7719C85.9794 25.2772 85.1768 24.3159 84.0334 22.4212H83.5154C83.1794 22.4212 82.9461 22.4212 82.5541 22.3932V22.7059C82.5541 25.2492 82.6847 25.5899 82.8667 25.6646C83.0487 25.7672 83.4874 25.8466 84.1128 25.8979C84.1408 25.9259 84.1641 26.0006 84.1641 26.1032C84.1641 26.1546 84.1361 26.2339 84.1361 26.2339H79.9827C79.9547 26.2339 79.9547 26.1826 79.9547 26.1032C79.9547 26.0239 79.9547 25.9212 80.006 25.8979C80.5521 25.8466 80.8087 25.7672 80.9907 25.6646C81.1447 25.5852 81.2754 25.2492 81.2754 22.7059V20.6805C81.2754 18.1372 81.1447 17.8245 80.9907 17.7452C80.8087 17.6425 80.5474 17.5632 80.006 17.4838C79.9547 17.4838 79.9547 17.3812 79.9547 17.3018C79.9547 17.2225 79.9547 17.1712 79.9827 17.1712C80.6314 17.1712 81.3827 17.1991 81.9287 17.1991C82.4467 17.1991 83.0207 17.1712 83.6694 17.1712C85.8254 17.1712 87.0434 18.3145 87.0434 19.4578C87.0434 20.5732 86.2128 21.4832 85.2001 22.0805C87.1228 24.8572 88.1588 25.8699 89.2741 25.8699H89.6895C89.7175 25.8419 89.7688 26.1312 89.7688 26.1826C89.4608 26.2386 89.1995 26.2666 88.8635 26.2666ZM83.6461 17.6985C83.1514 17.6985 82.8434 17.7778 82.7874 17.8805C82.6847 17.9832 82.5541 18.8418 82.5541 20.6852C82.5541 21.5159 82.6054 21.6185 82.6847 21.6979C82.8387 21.8285 83.1281 21.9312 83.8001 21.9312C84.8641 21.9312 85.5921 20.9979 85.5921 19.9338C85.5921 18.6832 85.0228 17.6985 83.6461 17.6985Z" fill="#FFFFFF"/>
  <path d="M97.1981 25.7206C97.0161 25.9819 96.0548 26.3692 94.3421 26.3692C91.3834 26.3692 89.1994 24.3439 89.1994 21.8239C89.1994 19.4345 91.1221 17.0732 94.3141 17.0732C95.9755 17.0732 96.7828 17.4885 97.3241 17.4885C97.3521 17.4885 97.3755 17.5165 97.3755 17.5398C97.4035 18.0345 97.4268 18.7858 97.4268 19.5372C97.4268 19.5652 97.3755 19.5885 97.2961 19.5885C97.1935 19.5885 97.0628 19.5605 97.0628 19.5092C97.0348 19.1452 96.8015 18.6785 96.5168 18.3938C95.9988 17.8992 95.1401 17.5912 94.1554 17.5912C91.5608 17.5912 90.6227 19.4345 90.6227 21.4319C90.6227 23.6905 92.0788 25.7952 94.3608 25.7952C95.4248 25.7952 96.1248 25.6132 96.6195 25.0439C96.9041 24.6799 97.0861 24.2412 97.2168 23.8259C97.2168 23.7979 97.2448 23.7979 97.2961 23.7979C97.3988 23.7979 97.5575 23.8492 97.5575 23.8772C97.5108 24.6052 97.3288 25.5386 97.1981 25.7206Z" fill="#FFFFFF"/>
  <path d="M105.272 26.2386C105.244 26.2386 105.22 26.1592 105.22 26.0846C105.22 26.0052 105.248 25.9306 105.272 25.9026C105.841 25.8512 106.074 25.7719 106.256 25.6692C106.438 25.5899 106.569 25.2819 106.569 22.7339V21.9032H101.352V22.7339C101.352 25.2772 101.482 25.5899 101.664 25.6692C101.846 25.7719 102.08 25.8512 102.649 25.9026C102.677 25.9306 102.7 26.0052 102.7 26.1079C102.7 26.1592 102.672 26.2386 102.672 26.2386H98.7755C98.7475 26.2386 98.7475 26.1592 98.7475 26.0846C98.7475 26.0052 98.7475 25.9306 98.7988 25.9026C99.3682 25.8512 99.6015 25.7719 99.7835 25.6692C99.9655 25.5899 100.068 25.2819 100.068 22.7339V20.7085C100.068 18.1652 99.9655 17.8525 99.7835 17.7732C99.6015 17.6705 99.3682 17.5912 98.7988 17.5118C98.7475 17.5118 98.7475 17.4325 98.7475 17.3578C98.7475 17.2785 98.7475 17.2038 98.7755 17.2038H102.672C102.672 17.2038 102.7 17.2552 102.7 17.3065C102.7 17.3858 102.672 17.5165 102.649 17.5165C102.08 17.5958 101.846 17.6705 101.664 17.7778C101.482 17.8572 101.352 18.1652 101.352 20.7132V21.3385H106.569V20.7132C106.569 18.1698 106.438 17.8572 106.256 17.7778C106.074 17.6752 105.841 17.5958 105.272 17.5165C105.244 17.5165 105.22 17.4372 105.22 17.3625C105.22 17.2832 105.248 17.2085 105.272 17.2085H109.14C109.168 17.2085 109.168 17.2598 109.168 17.3392C109.168 17.4185 109.168 17.5212 109.117 17.5212C108.571 17.6005 108.314 17.6752 108.132 17.7825C107.978 17.8618 107.848 18.1698 107.848 20.7179V22.7432C107.848 25.2866 107.978 25.5992 108.132 25.6786C108.314 25.7812 108.576 25.8606 109.117 25.9119C109.168 25.9399 109.168 26.0426 109.168 26.1172C109.168 26.1966 109.168 26.2479 109.14 26.2479H105.272V26.2386Z" fill="#FFFFFF"/>
  <path d="M118.38 26.3692C115.627 26.3692 113.578 24.3439 113.578 21.8239C113.578 19.4345 115.627 17.0732 118.562 17.0732C121.316 17.0732 123.364 19.0985 123.364 21.6185C123.364 24.0079 121.316 26.3692 118.38 26.3692ZM118.278 17.6472C115.734 17.6472 115.006 19.7238 115.006 21.4365C115.006 23.6952 116.355 25.7999 118.665 25.7999C121.208 25.7999 121.936 23.7232 121.936 22.0105C121.936 19.7472 120.588 17.6472 118.278 17.6472Z" fill="#FFFFFF"/>
  <path d="M130.556 19.0472C130.556 19.0752 130.504 19.0752 130.425 19.0752C130.322 19.0752 130.192 19.0472 130.192 18.9958C130.192 18.6598 130.112 18.3472 129.907 18.1372C129.674 17.8758 129.156 17.6705 128.143 17.6705C127.574 17.6705 127.051 17.6985 126.897 17.7218C126.869 17.8525 126.846 18.3985 126.846 19.2805V21.3572H127.858C129.235 21.3572 129.417 21.2032 129.492 20.7085C129.492 20.6805 129.571 20.6805 129.646 20.6805C129.748 20.6805 129.856 20.6805 129.856 20.7085C129.828 21.0959 129.776 22.5005 129.776 22.8879C129.776 22.8879 129.725 22.9159 129.646 22.9159C129.543 22.9159 129.412 22.8879 129.412 22.8645C129.412 22.6032 129.361 22.3185 129.202 22.1879C129.072 22.0572 128.866 21.9779 127.826 21.9779H126.841V22.7292C126.841 25.2726 126.972 25.5852 127.154 25.6646C127.336 25.7672 127.779 25.8466 128.4 25.8979C128.428 25.9259 128.451 26.0006 128.451 26.1032C128.451 26.1546 128.423 26.2339 128.423 26.2339H124.27C124.242 26.2339 124.242 26.1826 124.242 26.1032C124.242 26.0239 124.242 25.9212 124.293 25.8979C124.839 25.8466 125.096 25.7672 125.278 25.6646C125.432 25.5852 125.562 25.2772 125.562 22.7292V20.7039C125.562 18.1605 125.432 17.7965 125.278 17.7172C125.096 17.6145 124.834 17.5352 124.293 17.4838C124.242 17.4558 124.242 17.3812 124.242 17.3018C124.242 17.2225 124.242 17.1712 124.27 17.1712C125.385 17.1992 127.228 17.1992 128.138 17.1992C129.384 17.1992 130.192 17.1478 130.658 17.1478C130.686 17.1478 130.71 17.1758 130.71 17.1992C130.686 17.6705 130.635 18.2958 130.556 19.0472Z" fill="#FFFFFF"/>
  <path d="M21.1821 32.2586C21.2008 32.2586 21.2195 32.352 21.2195 32.4453C21.2195 32.5386 21.2008 32.6506 21.1635 32.6506C20.4401 32.7253 19.9735 32.7813 19.7495 32.912C19.5068 33.0426 19.3575 33.542 19.3575 36.9253V41.9047C19.3575 45.1574 18.7275 46.6274 15.4934 48.1301L15.4374 48.1488C15.3628 48.1488 15.2881 48.0368 15.2881 47.9434C15.2881 47.9248 15.2881 47.9061 15.3068 47.8874C16.9401 46.6974 17.7988 45.8994 17.7988 41.9607V36.9253C17.7988 33.542 17.6308 33.0426 17.4068 32.912C17.1828 32.7813 16.7021 32.7253 15.9741 32.6506C15.9368 32.632 15.9181 32.52 15.9181 32.4266C15.9181 32.3333 15.9368 32.2586 15.9554 32.2586H21.1821Z" fill="#FFFFFF"/>
  <path d="M29.9696 34.8253C29.9696 34.8626 29.8949 34.8626 29.8203 34.8626C29.7083 34.8626 29.5589 34.844 29.5589 34.7693C29.5589 34.3213 29.4283 33.8033 29.1296 33.5046C28.7562 33.094 28.2942 32.9493 27.2349 32.9493C26.5116 32.9493 25.8209 32.9493 25.6576 32.9866C25.6016 33.1733 25.5829 33.8593 25.5829 35.0306V37.7047H27.1089C28.8729 37.7047 28.9289 37.2007 29.0409 36.5333C29.0409 36.496 29.1343 36.4773 29.2276 36.4773C29.3396 36.4773 29.4516 36.496 29.4516 36.5333L29.3396 39.8794C29.3396 39.898 29.2463 39.9167 29.1529 39.9167C29.0409 39.9167 28.9289 39.898 28.9289 39.8607C28.9289 39.5247 28.8356 38.8947 28.6676 38.708C28.4996 38.54 28.4062 38.428 27.0856 38.428H25.5782V39.674C25.5782 42.0727 25.6902 43.1694 25.8582 43.3374C26.0262 43.5054 26.6002 43.5801 27.6969 43.5801C28.8496 43.5801 29.2743 43.3001 29.6103 42.9501C29.8343 42.7074 30.0583 42.1707 30.2216 41.4614C30.2216 41.424 30.2776 41.424 30.3336 41.424C30.4643 41.424 30.6323 41.48 30.6323 41.536C30.5389 42.7074 30.3336 44.0654 30.3149 44.1027C30.2216 44.2147 29.6663 44.3641 28.8822 44.3641C27.7669 44.3641 27.1929 44.3081 25.6482 44.3081C24.4395 44.3081 23.5482 44.3267 22.2275 44.3454C22.2089 44.3454 22.1902 44.2707 22.1902 44.1774C22.1902 44.0841 22.2089 43.9347 22.2462 43.9161C22.9695 43.8414 23.3989 43.7854 23.6229 43.6547C23.8469 43.5241 24.0149 43.0247 24.0149 39.6414V36.93C24.0149 33.5466 23.8469 33.01 23.6229 32.8793C23.3989 32.7486 22.9742 32.6926 22.2462 32.618C22.2089 32.5993 22.1902 32.4873 22.1902 32.394C22.1902 32.3006 22.2089 32.226 22.2275 32.226C23.0629 32.2446 24.2155 32.2633 25.2749 32.2633H27.3189C28.8822 32.2633 29.4936 32.2446 30.0489 32.17C30.1423 32.17 30.1609 32.2073 30.1609 32.2446C30.1376 32.8933 30.0816 33.822 29.9696 34.8253Z" fill="#FFFFFF"/>
  <path d="M35.4529 44.5647C33.9082 44.5647 32.6482 43.8787 32.4802 43.6361C32.4615 43.5987 32.3495 42.3527 32.3495 41.368C32.3495 41.1254 32.3495 40.9014 32.3682 40.7194C32.3682 40.6634 32.4802 40.6447 32.5922 40.6447C32.6855 40.6447 32.7976 40.6634 32.7976 40.7194C32.8349 41.424 33.1896 42.3714 33.4462 42.7634C33.9129 43.4681 34.7109 43.9347 35.8449 43.9347C37.1283 43.9347 37.8329 43.0807 37.8329 41.7414C37.8329 38.806 32.9469 38.6567 32.9469 35.2733C32.9469 33.5093 34.3796 32.002 36.3303 32.002C37.6136 32.002 37.8936 32.3566 38.5236 32.3566C38.5983 32.3566 38.6729 32.338 38.7849 32.338C38.8409 32.338 38.8596 32.3566 38.8596 32.394C38.8783 32.8233 38.8783 33.4533 38.8783 34.1206C38.8783 34.4566 38.8783 34.8066 38.8596 35.1427C38.8596 35.1613 38.7849 35.18 38.6916 35.18C38.5796 35.18 38.4489 35.1613 38.4303 35.1053C38.3743 34.3633 38.2063 33.71 37.8563 33.304C37.4456 32.856 36.9276 32.5806 36.1296 32.5806C35.1262 32.5806 34.3656 33.4533 34.3656 34.606C34.3656 37.1167 39.3263 37.728 39.3263 40.9434C39.3216 43.2627 37.3289 44.5647 35.4529 44.5647Z" fill="#FFFFFF"/>
  <path d="M53.2424 32.4826C53.2424 32.5573 53.2237 32.6506 53.1864 32.6506C52.4631 32.7253 52.0897 32.7813 51.8844 32.968C51.7351 33.0986 51.5671 33.542 51.5671 36.9253V40.0474C51.5671 42.278 49.859 44.4154 46.681 44.4154C43.783 44.4154 42.0143 42.502 42.0143 40.0847V36.9253C42.0143 33.542 41.8463 33.0426 41.6223 32.912C41.3796 32.7813 41.0623 32.7253 40.339 32.6506C40.3016 32.632 40.283 32.52 40.283 32.4266C40.283 32.3333 40.3016 32.2586 40.3203 32.2586H45.337C45.3557 32.2586 45.3743 32.3333 45.3743 32.4266C45.3743 32.52 45.3557 32.632 45.3183 32.6506C44.595 32.7253 44.203 32.7813 43.9603 32.912C43.7363 33.0426 43.5683 33.542 43.5683 36.9253V39.7487C43.5683 41.7927 44.8517 43.4821 47.3017 43.4821C49.5884 43.4821 50.7224 41.7554 50.7224 39.9494V36.9207C50.7224 33.5373 50.5357 33.094 50.3864 32.9633C50.1811 32.7766 49.7564 32.7206 49.0097 32.646C48.9724 32.646 48.9537 32.5526 48.9537 32.4593C48.9537 32.366 48.9724 32.254 49.0097 32.254H53.1724C53.2191 32.2586 53.2424 32.3706 53.2424 32.4826Z" fill="#FFFFFF"/>
  <path d="M57.0878 44.5647C55.5431 44.5647 54.2831 43.8787 54.1151 43.6361C54.0964 43.5987 53.9844 42.3527 53.9844 41.368C53.9844 41.1254 53.9844 40.9014 54.0031 40.7194C54.0031 40.6634 54.1151 40.6447 54.2271 40.6447C54.3204 40.6447 54.4324 40.6634 54.4324 40.7194C54.4698 41.424 54.8244 42.3714 55.0811 42.7634C55.5478 43.4681 56.3458 43.9347 57.4798 43.9347C58.7631 43.9347 59.4678 43.0807 59.4678 41.7414C59.4678 38.806 54.5818 38.6567 54.5818 35.2733C54.5818 33.5093 56.0145 32.002 57.9651 32.002C59.2485 32.002 59.5285 32.3566 60.1585 32.3566C60.2332 32.3566 60.3078 32.338 60.4198 32.338C60.4758 32.338 60.4945 32.3566 60.4945 32.394C60.5132 32.8233 60.5132 33.4533 60.5132 34.1206C60.5132 34.4566 60.5132 34.8066 60.4945 35.1427C60.4945 35.1613 60.4198 35.18 60.3265 35.18C60.2145 35.18 60.0838 35.1613 60.0652 35.1053C60.0092 34.3633 59.8412 33.71 59.4865 33.304C59.0758 32.856 58.5578 32.5806 57.7598 32.5806C56.7565 32.5806 55.9958 33.4533 55.9958 34.606C55.9958 37.1167 60.9565 37.728 60.9565 40.9434C60.9518 43.2627 58.9638 44.5647 57.0878 44.5647Z" fill="#FFFFFF"/>
  <path d="M76.9913 35.6793C76.8793 35.6793 76.7673 35.642 76.7486 35.586C76.674 34.8253 76.4313 34.1906 75.988 33.71C75.428 33.136 74.2613 32.6506 73.0153 32.6506C69.7812 32.6506 68.5166 35.2547 68.5166 37.8913C68.5166 40.92 70.4299 43.8367 73.2766 43.8367C74.6533 43.8367 75.5446 43.4447 76.1746 42.6654C76.5666 42.18 76.786 41.6247 76.954 41.0694C76.954 41.032 77.01 41.0134 77.066 41.0134C77.1966 41.0134 77.3646 41.0694 77.3646 41.1254C77.3086 41.9047 76.9726 43.6361 76.9353 43.6921C76.8793 43.7854 75.6333 44.5647 73.2346 44.5647C69.2772 44.5647 66.7665 41.7974 66.7665 38.4327C66.7665 35.2546 69.0532 32.002 73.1973 32.002C75.0919 32.002 76.1326 32.576 76.8046 32.576C76.8793 32.576 76.954 32.5573 77.01 32.5573C77.0846 32.5573 77.122 32.5946 77.122 32.632L77.178 35.6233C77.178 35.6607 77.0846 35.6793 76.9913 35.6793Z" fill="#FFFFFF"/>
  <path d="M92.2514 32.4266C92.2514 32.52 92.2328 32.632 92.1954 32.6506C91.4721 32.7253 91.1548 32.7813 90.9121 32.912C90.6881 33.0426 90.5201 33.5233 90.5201 36.9253V39.618C90.5201 43.0201 90.6881 43.5381 90.9121 43.6501C91.1548 43.7807 91.4721 43.8367 92.1954 43.9114C92.2328 43.9114 92.2514 44.0234 92.2514 44.1354C92.2514 44.2287 92.2328 44.3034 92.2141 44.3034H87.2907C87.2721 44.3034 87.2534 44.2287 87.2534 44.1354C87.2534 44.0234 87.2721 43.9114 87.3094 43.9114C88.0327 43.8367 88.3501 43.7807 88.5927 43.6501C88.8167 43.5381 88.9847 43.0201 88.9847 39.618V38.484H82.1433V39.618C82.1433 43.0201 82.3113 43.5194 82.554 43.6501C82.778 43.7621 83.0907 43.8367 83.8187 43.9114C83.856 43.9114 83.8747 44.0234 83.8747 44.1354C83.8747 44.2287 83.856 44.3034 83.8374 44.3034H78.914C78.8953 44.3034 78.8766 44.2287 78.8766 44.1354C78.8766 44.0234 78.8953 43.9114 78.9326 43.9114C79.656 43.8367 79.992 43.7621 80.216 43.6501C80.44 43.5194 80.608 43.0201 80.608 39.618V36.9253C80.608 33.5233 80.44 33.0426 80.216 32.912C79.992 32.7813 79.6607 32.7253 78.9326 32.6506C78.8953 32.632 78.8766 32.52 78.8766 32.4266C78.8766 32.3333 78.8953 32.2586 78.914 32.2586H83.8374C83.856 32.2586 83.8747 32.3333 83.8747 32.4266C83.8747 32.52 83.856 32.632 83.8187 32.6506C83.0954 32.7253 82.778 32.7813 82.554 32.912C82.3113 33.0426 82.1433 33.5233 82.1433 36.9253V37.798H88.9847V36.9253C88.9847 33.5233 88.8167 33.0426 88.5927 32.912C88.3501 32.7813 88.0327 32.7253 87.3094 32.6506C87.2721 32.632 87.2534 32.52 87.2534 32.4266C87.2534 32.3333 87.2721 32.2586 87.2907 32.2586H92.2141C92.2328 32.2586 92.2514 32.3333 92.2514 32.4266Z" fill="#FFFFFF"/>
  <path d="M114.684 44.5647C113.14 44.5647 111.88 43.8787 111.712 43.6361C111.693 43.5987 111.581 42.3527 111.581 41.368C111.581 41.1254 111.581 40.9014 111.6 40.7194C111.6 40.6634 111.712 40.6447 111.824 40.6447C111.917 40.6447 112.029 40.6634 112.029 40.7194C112.066 41.424 112.421 42.3714 112.678 42.7634C113.144 43.4681 113.942 43.9347 115.076 43.9347C116.36 43.9347 117.064 43.0807 117.064 41.7414C117.064 38.806 112.178 38.6567 112.178 35.2733C112.178 33.5093 113.611 32.002 115.562 32.002C116.845 32.002 117.125 32.3566 117.755 32.3566C117.83 32.3566 117.904 32.338 118.016 32.338C118.072 32.338 118.091 32.3566 118.091 32.394C118.11 32.8233 118.11 33.4533 118.11 34.1206C118.11 34.4566 118.11 34.8066 118.091 35.1427C118.091 35.1613 118.016 35.18 117.923 35.18C117.811 35.18 117.68 35.1613 117.662 35.1053C117.606 34.3633 117.438 33.71 117.088 33.304C116.677 32.856 116.159 32.5806 115.361 32.5806C114.358 32.5806 113.597 33.4533 113.597 34.606C113.597 37.1167 118.558 37.728 118.558 40.9434C118.548 43.2627 116.56 44.5647 114.684 44.5647Z" fill="#FFFFFF"/>
  <path d="M130.182 35.2173C130.182 35.2546 130.089 35.292 129.996 35.292C129.884 35.292 129.772 35.2546 129.772 35.18C129.772 34.7133 129.716 33.822 129.398 33.4906C129.025 33.0986 128.264 32.786 126.631 32.786C126.202 32.786 125.982 32.786 125.796 32.8233C125.74 33.01 125.721 33.9013 125.721 35.0726V39.646C125.721 43.0294 125.889 43.5287 126.113 43.6594C126.337 43.7901 126.799 43.8461 127.546 43.9207C127.583 43.9394 127.602 44.0514 127.602 44.1447C127.602 44.2381 127.583 44.3127 127.564 44.3127H122.324C122.305 44.3127 122.286 44.2381 122.286 44.1634C122.286 44.0514 122.305 43.9394 122.361 43.9207C123.084 43.8461 123.551 43.7901 123.775 43.6594C124.018 43.5287 124.167 43.0294 124.167 39.646V35.0726C124.167 33.9013 124.148 33.01 124.092 32.8233C123.906 32.786 123.588 32.786 123.164 32.786C121.418 32.786 120.821 32.9726 120.396 33.4906C120.098 33.8453 119.911 34.494 119.785 35.2173C119.785 35.2733 119.71 35.292 119.636 35.292C119.524 35.292 119.374 35.2546 119.374 35.18C119.486 34.214 119.598 32.8 119.654 32.17C119.654 32.1326 119.71 32.0953 119.804 32.0953H119.878C120.527 32.2073 121.717 32.2633 124.951 32.2633C129.394 32.2633 129.8 32.17 130.136 32.058C130.154 32.058 130.192 32.0393 130.21 32.0393C130.285 32.0393 130.341 32.0953 130.341 32.1326C130.332 32.8373 130.294 34.228 130.182 35.2173Z" fill="#FFFFFF"/>
  <path d="M19.6002 56.4368C17.6962 56.4368 16.3148 55.0695 16.3148 53.3755C16.3148 51.7655 17.7008 50.2441 19.7215 50.2441C21.6255 50.2441 23.0069 51.5601 23.0069 53.2542C23.0115 54.8595 21.6255 56.4368 19.6002 56.4368ZM19.5348 50.7061C18.0135 50.7061 17.5608 52.0408 17.5608 53.1281C17.5608 54.5468 18.3728 55.9655 19.7915 55.9655C21.3129 55.9655 21.7655 54.5795 21.7655 53.4922C21.7655 52.0735 20.9349 50.7061 19.5348 50.7061Z" fill="#FFFFFF"/>
  <path d="M25.8815 54.0802C25.8815 55.7742 25.9701 55.8442 26.0915 55.8955C26.2128 55.9655 26.4881 56.0168 26.8708 56.0495C26.8895 56.0682 26.9035 56.1195 26.9035 56.1895C26.9035 56.2222 26.8848 56.3435 26.8848 56.3435H23.9588C23.9401 56.3435 23.9401 56.2222 23.9401 56.1708C23.9401 56.1195 23.9401 56.0682 23.9728 56.0495C24.3554 56.0168 24.4908 55.9608 24.6121 55.8955C24.7334 55.8442 24.8034 55.7042 24.8034 54.0102V52.6615C24.8034 50.9675 24.7334 50.8275 24.6121 50.7761C24.4908 50.7061 24.2668 50.6361 23.8841 50.5848C23.8514 50.5848 23.8514 50.5148 23.8514 50.4635C23.8514 50.4121 23.8701 50.2721 23.8841 50.2721H24.1081C24.7474 50.2721 25.3868 50.3235 26.0308 50.3235C26.4975 50.3235 27.7108 50.2721 28.2801 50.2721C28.3501 50.2721 28.4341 50.2908 28.4528 50.3421C28.4201 50.6548 28.4015 51.2241 28.3501 51.7095C28.3501 51.7281 28.2101 51.7421 28.1588 51.7421C28.0888 51.7421 28.0188 51.7235 28.0188 51.6908C28.0188 51.4481 27.9675 51.1868 27.8275 51.0328C27.6735 50.8788 27.3935 50.7575 26.7215 50.7575C26.3388 50.7575 26.0121 50.7761 25.9095 50.7761C25.8768 50.8788 25.8768 51.6068 25.8768 52.1108V53.0815H26.4321C27.3515 53.0815 27.4681 52.9788 27.5241 52.6475C27.5241 52.6288 27.5941 52.6288 27.6455 52.6288C27.6968 52.6288 27.7995 52.6288 27.7995 52.6475C27.7808 52.9088 27.7481 53.9448 27.7481 54.1875C27.7481 54.2062 27.6455 54.2202 27.5941 54.2202C27.5241 54.2202 27.4728 54.2015 27.4728 54.1875C27.4728 54.0148 27.4401 53.8048 27.3328 53.7208C27.2441 53.6508 27.2301 53.5482 26.5348 53.5482H25.8768V54.0802H25.8815Z" fill="#FFFFFF"/>
  <path d="M35.2242 50.4635C35.2242 50.5148 35.2056 50.6035 35.1916 50.6035C34.8089 50.6548 34.6549 50.7061 34.5336 50.7761C34.4122 50.8275 34.3236 50.9675 34.3236 52.6615V54.3415C34.3236 55.6575 34.3236 55.9142 35.1869 55.9142C35.7236 55.9142 36.2229 55.8442 36.4516 55.5828C36.6616 55.3402 36.7969 54.9435 36.8669 54.6495C36.8669 54.6308 37.0069 54.6308 37.0396 54.6308C37.1096 54.6308 37.2123 54.6495 37.2123 54.6822C37.1609 55.1675 37.0209 56.0682 36.9369 56.2035C36.8669 56.3062 36.7643 56.3948 36.5216 56.3948C36.0549 56.3948 35.1029 56.3435 34.4262 56.3435C33.7356 56.3435 32.9049 56.3762 32.3169 56.3948C32.2982 56.3948 32.2982 56.2922 32.2982 56.2408C32.2982 56.1895 32.2982 56.0868 32.3309 56.0682C32.7136 56.0355 32.9376 55.9655 33.0589 55.8955C33.1802 55.8442 33.2502 55.7042 33.2502 54.0102V52.6615C33.2502 50.9675 33.1802 50.8275 33.0589 50.7761C32.9376 50.7061 32.7136 50.6548 32.3309 50.6035C32.2982 50.6035 32.2982 50.5521 32.2982 50.5008C32.2982 50.4495 32.2982 50.3281 32.3169 50.3281H35.2056C35.2056 50.3281 35.2242 50.4308 35.2242 50.4635Z" fill="#FFFFFF"/>
  <path d="M38.1129 55.8628C38.3183 55.7088 38.5283 55.3262 38.771 54.7055L40.521 50.2255C40.5396 50.1928 40.731 50.1741 40.8336 50.1741C40.9363 50.1741 41.179 50.1928 41.179 50.2255L42.9943 54.8268C43.1483 55.2095 43.4283 55.7788 43.601 55.8628C43.741 55.9655 43.895 56.0168 44.1703 56.0542C44.189 56.0542 44.203 56.1242 44.203 56.1755C44.203 56.2268 44.1843 56.3482 44.1703 56.3482H41.5756C41.557 56.3482 41.557 56.2268 41.557 56.1755C41.557 56.1428 41.557 56.0542 41.5756 56.0542C41.9396 56.0028 42.1823 55.9328 42.1823 55.7928C42.1823 55.6202 42.061 55.2375 41.7343 54.4442H39.5876L39.485 54.7195C39.331 55.1162 39.1583 55.5175 39.1583 55.7415C39.1583 55.9142 39.4523 56.0028 39.8676 56.0542C39.8863 56.0542 39.8863 56.1382 39.8863 56.1755C39.8863 56.2268 39.8863 56.3482 39.8676 56.3482H37.4969C37.4783 56.3482 37.4783 56.2268 37.4783 56.1755C37.4783 56.1428 37.4783 56.0542 37.4969 56.0542C37.7863 56.0215 37.9776 55.9655 38.1129 55.8628ZM39.7416 53.9775H41.543L40.6096 51.6441L39.7416 53.9775Z" fill="#FFFFFF"/>
  <path d="M47.6984 55.9002C47.8197 55.9702 48.0111 56.0215 48.3891 56.0542C48.4078 56.0728 48.4218 56.1242 48.4218 56.1942C48.4218 56.2268 48.4031 56.3482 48.4031 56.3482H45.5144C45.4957 56.3482 45.4957 56.2268 45.4957 56.1755C45.4957 56.1242 45.4957 56.0728 45.5284 56.0542C45.9111 56.0215 46.0977 55.9655 46.2191 55.9002C46.3404 55.8488 46.4104 55.7088 46.4104 54.0148V51.9708C46.4104 51.3828 46.4104 50.8788 46.3777 50.7761C46.2891 50.7761 46.1164 50.7575 45.9111 50.7575C44.9264 50.7575 44.7351 50.8975 44.5111 51.1028C44.357 51.2428 44.2684 51.6208 44.217 51.8448C44.217 51.8635 44.1984 51.8635 44.1657 51.8635C44.0957 51.8635 43.8904 51.8308 43.8904 51.8121L44.0304 50.2534C44.0304 50.2348 44.063 50.1834 44.1004 50.1834C44.4457 50.2348 45.3137 50.3235 46.9751 50.3235C49.2571 50.3235 49.6911 50.2348 49.8638 50.1694C49.8964 50.1694 49.9338 50.2208 49.9338 50.2395C49.9338 50.6035 49.9151 51.3455 49.8451 51.8495C49.8451 51.8495 49.7051 51.8681 49.6538 51.8681C49.5838 51.8681 49.5138 51.8495 49.5138 51.8355C49.5138 51.5928 49.4624 51.2475 49.3411 51.1075C49.1684 50.9161 48.9958 50.7621 47.9551 50.7621C47.7497 50.7621 47.6284 50.7808 47.5397 50.7808C47.5071 50.8835 47.4884 51.3875 47.4884 51.9755V54.0195C47.4931 55.7088 47.5771 55.8442 47.6984 55.9002Z" fill="#FFFFFF"/>
  <path d="M54.3951 55.9002C54.5165 55.9702 54.7078 56.0215 55.0858 56.0542C55.1045 56.0728 55.1185 56.1242 55.1185 56.1942C55.1185 56.2268 55.0998 56.3482 55.0998 56.3482H52.2111C52.1924 56.3482 52.1924 56.2268 52.1924 56.1755C52.1924 56.1242 52.1924 56.0728 52.2251 56.0542C52.6078 56.0215 52.7944 55.9655 52.9158 55.9002C53.0371 55.8488 53.1071 55.7088 53.1071 54.0148V51.9708C53.1071 51.3828 53.1071 50.8788 53.0745 50.7761C52.9858 50.7761 52.8131 50.7575 52.6078 50.7575C51.6231 50.7575 51.4318 50.8975 51.2078 51.1028C51.0538 51.2428 50.9651 51.6208 50.9138 51.8448C50.9138 51.8635 50.8951 51.8635 50.8624 51.8635C50.7924 51.8635 50.5871 51.8308 50.5871 51.8121L50.7271 50.2534C50.7271 50.2348 50.7598 50.1834 50.7971 50.1834C51.1424 50.2348 52.0104 50.3235 53.6718 50.3235C55.9538 50.3235 56.3878 50.2348 56.5605 50.1694C56.5932 50.1694 56.6305 50.2208 56.6305 50.2395C56.6305 50.6035 56.6118 51.3455 56.5418 51.8495C56.5418 51.8495 56.4018 51.8681 56.3505 51.8681C56.2805 51.8681 56.2105 51.8495 56.2105 51.8355C56.2105 51.5928 56.1591 51.2475 56.0378 51.1075C55.8651 50.9161 55.6925 50.7621 54.6518 50.7621C54.4465 50.7621 54.3251 50.7808 54.2365 50.7808C54.2038 50.8835 54.1851 51.3875 54.1851 51.9755V54.0195C54.1851 55.7088 54.2738 55.8442 54.3951 55.9002Z" fill="#FFFFFF"/>
  <path d="M59.4445 52.0548V52.9555H60.1212C61.0358 52.9555 61.1572 52.7128 61.2132 52.3861C61.2132 52.3675 61.2832 52.3675 61.3345 52.3675C61.3858 52.3675 61.4885 52.3675 61.4885 52.3861C61.4698 52.6475 61.4372 53.8562 61.4372 54.0988C61.4372 54.1175 61.3345 54.1315 61.2832 54.1315C61.2132 54.1315 61.1618 54.1128 61.1618 54.0988C61.1618 53.9262 61.1292 53.6835 61.0218 53.5948C60.9378 53.5248 60.7978 53.4222 60.1072 53.4222H59.4492V54.4255C59.4492 55.2375 59.5378 55.6015 59.6592 55.7415C59.7805 55.8442 59.9018 55.9142 60.4712 55.9142C61.0592 55.9142 61.3905 55.7742 61.5632 55.5828C61.7032 55.4428 61.8058 55.1488 61.8758 54.8408C61.8758 54.8222 61.9972 54.8222 62.0158 54.8222C62.0672 54.8222 62.1558 54.8548 62.1372 54.8735C62.1045 55.3588 62.0158 56.0682 61.9458 56.2035C61.8758 56.3062 61.8245 56.3948 61.5818 56.3948C60.9938 56.3948 60.3732 56.3435 59.1085 56.3435C58.7631 56.3435 57.6011 56.3762 57.4471 56.3762C57.4285 56.3762 57.4285 56.2548 57.4285 56.2035C57.4285 56.1522 57.4285 56.0822 57.4611 56.0635C57.8438 56.0308 58.0678 55.9608 58.1891 55.8908C58.3105 55.8395 58.3805 55.6995 58.3805 54.0055V52.6568C58.3805 50.9628 58.3105 50.8228 58.1891 50.7715C58.0678 50.7015 57.8438 50.6315 57.4611 50.5801C57.4285 50.5801 57.4285 50.5101 57.4285 50.4588C57.4285 50.4075 57.4471 50.2675 57.4611 50.2675H57.6851C58.3245 50.2675 58.9638 50.3188 59.6078 50.3188C60.0745 50.3188 61.1292 50.2675 61.7032 50.2675C61.7732 50.2675 61.8572 50.2861 61.8758 50.3375C61.8432 50.6501 61.8245 51.1681 61.7732 51.6535C61.7732 51.6721 61.6332 51.6861 61.5818 51.6861C61.5118 51.6861 61.4418 51.6675 61.4418 51.6348C61.4418 51.3921 61.3905 51.1308 61.2505 50.9768C61.0965 50.8228 60.8165 50.7528 60.1445 50.7528C59.7618 50.7528 59.5892 50.7715 59.4865 50.7715C59.4445 50.8788 59.4445 51.5555 59.4445 52.0548Z" fill="#FFFFFF"/>
  <path d="M64.0505 52.4048C64.0505 50.9675 63.9478 50.8135 63.8265 50.7621C63.7052 50.6921 63.5512 50.6408 63.1685 50.5895C63.1358 50.5895 63.1358 50.5381 63.1358 50.4868C63.1358 50.4355 63.1358 50.2955 63.1545 50.2955H63.2758C63.5185 50.2955 64.3818 50.3281 64.6105 50.3281C65.5112 50.3281 65.7352 50.2768 66.1832 50.2768C67.5319 50.2768 68.2925 51.0748 68.2925 51.8355C68.2925 52.5775 67.7559 53.2915 67.0652 53.5855C68.3439 55.4382 68.9879 55.9888 69.7299 55.9888H70.0006C70.0192 55.9702 70.1032 56.2828 70.1032 56.3155C69.8932 56.3482 69.5479 56.3668 69.3239 56.3668C68.7359 56.3668 68.1665 56.2782 67.7839 56.0402C67.2985 55.7088 66.7619 55.1068 66.0012 53.8422H65.6559C65.4319 53.8422 65.3805 53.8422 65.1192 53.8235V54.3088C65.1192 55.7088 65.2078 55.8488 65.3245 55.9002C65.4458 55.9702 65.6372 56.0215 66.0152 56.0542C66.0339 56.0728 66.0479 56.1242 66.0479 56.1942C66.0479 56.2268 66.0292 56.3482 66.0292 56.3482H63.1405C63.1218 56.3482 63.1218 56.2268 63.1218 56.1755C63.1218 56.1242 63.1218 56.0728 63.1545 56.0542C63.5372 56.0215 63.7238 55.9655 63.8452 55.9002C63.9665 55.8488 64.0365 55.7088 64.0365 54.3275V52.4048H64.0505ZM65.8472 50.7248C65.5159 50.7248 65.3105 50.7761 65.2779 50.8461C65.2079 50.9161 65.1238 51.3315 65.1238 52.5588C65.1238 53.1141 65.1565 53.1795 65.2125 53.2355C65.3152 53.3195 65.5065 53.3895 65.9545 53.3895C66.6639 53.3895 67.0465 52.8528 67.0465 52.0035C67.0419 51.3128 66.7665 50.7248 65.8472 50.7248Z" fill="#FFFFFF"/>
  <path d="M72.978 52.8201C73.062 52.8201 73.0806 52.8715 73.0806 52.9228C73.0806 52.9928 73.0293 53.0768 72.9966 53.1328L72.7866 53.5295C72.6839 53.6835 72.6139 53.7535 72.3713 53.7535C71.6433 53.7535 71.1066 53.6835 70.4486 53.6835C70.0146 53.6835 70.0333 53.8235 69.8933 53.8235C69.8046 53.8235 69.7906 53.7722 69.7906 53.7208C69.7906 53.6508 69.8933 53.4782 69.9306 53.4268L70.1033 53.1141C70.2059 52.9601 70.2573 52.8901 70.4859 52.8901C70.9899 52.8901 71.8019 52.9601 72.3526 52.9601C72.8566 52.9555 72.838 52.8201 72.978 52.8201Z" fill="#FFFFFF"/>
  <path d="M75.0686 52.4048C75.0686 50.9675 74.966 50.8135 74.8446 50.7621C74.7233 50.6921 74.5693 50.6408 74.1866 50.5895C74.154 50.5895 74.154 50.5381 74.154 50.4868C74.154 50.4355 74.154 50.2955 74.1726 50.2955H74.294C74.504 50.2955 75.1433 50.3281 75.6286 50.3281C76.3566 50.3281 77.136 50.2768 77.514 50.2768C79.6093 50.2768 80.8694 51.5928 80.8694 53.2728C80.8694 54.0708 80.4867 54.8455 79.8987 55.4195C79.2407 56.0588 78.4473 56.4042 77.234 56.4042C76.8887 56.4042 76.352 56.3528 75.9693 56.3528C75.33 56.3528 74.602 56.3715 74.168 56.3715C74.1493 56.3715 74.1493 56.2502 74.1493 56.1988C74.1493 56.1475 74.1493 56.0962 74.182 56.0775C74.5646 56.0448 74.7513 55.9748 74.8726 55.9048C74.994 55.8535 75.064 55.7135 75.064 54.0195V52.4048H75.0686ZM76.142 52.1948V54.2388C76.142 55.1908 76.2306 55.5688 76.3473 55.6902C76.52 55.8628 76.7113 55.9142 77.2107 55.9142C78.718 55.9142 79.614 55.1722 79.614 53.4221C79.614 52.0035 78.816 50.7388 77.276 50.7388C76.548 50.7388 76.3426 50.8415 76.2726 50.9301C76.2306 51.0001 76.142 51.2615 76.142 52.1948Z" fill="#FFFFFF"/>
  <path d="M81.6254 55.8628C81.8354 55.7088 82.0407 55.3262 82.2834 54.7055L84.0334 50.2255C84.0521 50.1928 84.2387 50.1741 84.3461 50.1741C84.4534 50.1741 84.6914 50.1928 84.6914 50.2255L86.5067 54.8268C86.6607 55.2095 86.9407 55.7788 87.1134 55.8628C87.2534 55.9655 87.4074 56.0168 87.6828 56.0542C87.7014 56.0542 87.7154 56.1242 87.7154 56.1755C87.7154 56.2268 87.6968 56.3482 87.6828 56.3482H85.0881C85.0694 56.3482 85.0694 56.2268 85.0694 56.1755C85.0694 56.1428 85.0694 56.0542 85.0881 56.0542C85.4521 56.0028 85.6947 55.9328 85.6947 55.7928C85.6947 55.6202 85.5734 55.2375 85.2467 54.4442H83.1L82.9974 54.7195C82.8434 55.1162 82.666 55.5175 82.666 55.7415C82.666 55.9142 82.96 56.0028 83.3754 56.0542C83.394 56.0542 83.394 56.1382 83.394 56.1755C83.394 56.2268 83.394 56.3482 83.3754 56.3482H81.0047C80.986 56.3482 80.986 56.2268 80.986 56.1755C80.986 56.1428 80.986 56.0542 81.0047 56.0542C81.2987 56.0215 81.49 55.9655 81.6254 55.8628ZM83.254 53.9775H85.0554L84.1221 51.6441L83.254 53.9775Z" fill="#FFFFFF"/>
  <path d="M89.6894 54.0475V53.8422C89.4654 53.4595 89.1528 52.9415 88.9474 52.6288L88.4108 51.8168C87.8041 50.8835 87.6501 50.7808 87.4774 50.7108C87.3234 50.6595 87.1648 50.6221 86.8894 50.6081C86.8708 50.6081 86.8568 50.5055 86.8568 50.4541C86.8568 50.4028 86.8754 50.3328 86.8894 50.3328H89.4514C89.4701 50.3328 89.4841 50.3841 89.4841 50.4541C89.4841 50.5055 89.4654 50.6081 89.4514 50.6081C89.2461 50.6268 89.0361 50.6268 89.0361 50.7295C89.0361 50.8181 89.1248 50.9721 89.5914 51.7328L90.4548 53.1328L91.3555 51.7468C91.7195 51.1775 91.8221 50.9488 91.8221 50.8135C91.8221 50.7621 91.8035 50.7248 91.7708 50.7108C91.6821 50.6595 91.5981 50.6221 91.3368 50.6081C91.3181 50.6081 91.3181 50.5568 91.3181 50.5055C91.3181 50.4355 91.3181 50.3328 91.3368 50.3328H93.3108C93.3295 50.3328 93.3295 50.4355 93.3295 50.4868C93.3295 50.5381 93.3295 50.6081 93.3108 50.6081C93.0355 50.6268 92.9468 50.6595 92.8068 50.7108C92.5641 50.8321 92.3915 51.0421 91.8921 51.8168L90.7675 53.5668V54.0148C90.7675 55.7088 90.8561 55.8488 90.9775 55.9002C91.0988 55.9702 91.2901 56.0215 91.6681 56.0542C91.6868 56.0728 91.7008 56.1242 91.7008 56.1942C91.7008 56.2268 91.6821 56.3482 91.6821 56.3482H88.7561C88.7374 56.3482 88.7374 56.2268 88.7374 56.1755C88.7374 56.1242 88.7374 56.0728 88.7701 56.0542C89.1528 56.0215 89.3768 55.9655 89.4981 55.9002C89.6194 55.8442 89.6894 55.7415 89.6894 54.0475Z" fill="#FFFFFF"/>
  <path d="M97.7675 56.4368C96.8668 56.4368 96.1061 55.9888 96.0875 55.8815C96.0548 55.7088 96.0361 55.4848 96.0361 55.2235C96.0361 54.9995 96.0548 54.5655 96.0688 54.3415C96.0688 54.3228 96.1575 54.3088 96.2228 54.3088C96.2741 54.3088 96.3768 54.3275 96.3768 54.3415C96.4095 54.7055 96.5495 55.1395 96.6895 55.3448C96.9648 55.7088 97.2961 55.9655 97.8468 55.9655C98.4162 55.9655 98.8828 55.6202 98.8828 54.9808C98.8828 53.6135 96.1855 53.4082 96.1855 51.8681C96.1855 50.9161 96.9975 50.2395 98.2108 50.2395C98.9528 50.2395 99.3028 50.4121 99.6668 50.4121C99.6995 50.4121 99.7368 50.4308 99.7368 50.4448C99.7182 50.6175 99.7182 50.8088 99.7182 51.0328V51.8448C99.7182 51.8635 99.6295 51.8775 99.5782 51.8775C99.5268 51.8775 99.3868 51.8588 99.3868 51.8448C99.3682 51.5508 99.2328 51.1868 99.0742 51.0328C98.8642 50.8228 98.4162 50.7015 98.1222 50.7015C97.7395 50.7015 97.2915 50.9628 97.2915 51.5321C97.2915 52.6895 99.9888 53.1048 99.9888 54.6308C100.003 55.7928 99.0508 56.4368 97.7675 56.4368Z" fill="#FFFFFF"/>
  <path d="M101.02 55.8628C101.226 55.7088 101.436 55.3262 101.678 54.7055L103.428 50.2255C103.447 50.1928 103.638 50.1741 103.741 50.1741C103.844 50.1741 104.086 50.1928 104.086 50.2255L105.902 54.8268C106.056 55.2095 106.336 55.7788 106.508 55.8628C106.648 55.9655 106.802 56.0168 107.078 56.0542C107.096 56.0542 107.11 56.1242 107.11 56.1755C107.11 56.2268 107.092 56.3482 107.078 56.3482H104.483C104.464 56.3482 104.464 56.2268 104.464 56.1755C104.464 56.1428 104.464 56.0542 104.483 56.0542C104.847 56.0028 105.09 55.9328 105.09 55.7928C105.09 55.6202 104.968 55.2375 104.642 54.4442H102.495L102.392 54.7195C102.238 55.1162 102.066 55.5175 102.066 55.7415C102.066 55.9142 102.36 56.0028 102.775 56.0542C102.794 56.0542 102.794 56.1382 102.794 56.1755C102.794 56.2268 102.794 56.3482 102.775 56.3482H100.404C100.385 56.3482 100.385 56.2268 100.385 56.1755C100.385 56.1428 100.385 56.0542 100.404 56.0542C100.693 56.0215 100.885 55.9655 101.02 55.8628ZM102.649 53.9775H104.45L103.517 51.6441L102.649 53.9775Z" fill="#FFFFFF"/>
  <path d="M109.43 54.0102C109.43 55.7042 109.518 55.8442 109.635 55.8955C109.756 55.9655 109.948 56.0168 110.326 56.0495C110.344 56.0682 110.358 56.1195 110.358 56.1895C110.358 56.2222 110.34 56.3435 110.34 56.3435H107.414C107.395 56.3435 107.395 56.2222 107.395 56.1708C107.395 56.1195 107.395 56.0682 107.428 56.0495C107.81 56.0168 108.034 55.9608 108.156 55.8955C108.277 55.8442 108.347 55.7042 108.347 54.0102V52.6615C108.347 50.9675 108.244 50.8275 108.123 50.7761C108.002 50.7061 107.81 50.6548 107.432 50.6035C107.4 50.6035 107.4 50.5521 107.4 50.5008C107.4 50.4495 107.4 50.3281 107.418 50.3281H110.344C110.344 50.3281 110.363 50.4308 110.363 50.4681C110.363 50.5195 110.344 50.6081 110.33 50.6081C109.948 50.6595 109.761 50.7108 109.64 50.7808C109.518 50.8321 109.434 50.9721 109.434 52.6661V54.0102H109.43Z" fill="#FFFFFF"/>
  <path d="M117.75 50.7761C117.662 50.8088 117.545 50.9675 117.545 51.8821V54.0102C117.545 54.7895 117.545 55.6202 117.596 56.3482C117.596 56.3808 117.335 56.4182 117.251 56.4182C117.181 56.4182 117.111 56.3995 117.097 56.3855L112.668 52.0781L112.701 54.7755C112.72 55.7788 112.855 55.8675 112.944 55.9002C113.065 55.9702 113.256 56.0215 113.634 56.0542C113.653 56.0728 113.667 56.1242 113.667 56.1942C113.667 56.2268 113.648 56.3482 113.648 56.3482H111.138C111.119 56.3482 111.119 56.2268 111.119 56.1755C111.119 56.1242 111.119 56.0728 111.152 56.0542C111.534 56.0215 111.721 55.9655 111.842 55.9002C111.931 55.8675 112.048 55.7088 112.048 54.7942V52.6661C112.048 51.8868 111.964 50.5194 111.964 50.2954C111.964 50.2628 112.015 50.2254 112.169 50.2254C112.239 50.2254 112.412 50.2441 112.412 50.2581L116.929 54.7242L116.896 51.9055C116.878 50.9021 116.742 50.8135 116.654 50.7808C116.532 50.7108 116.341 50.6595 115.963 50.6268C115.944 50.6081 115.93 50.5568 115.93 50.4868C115.93 50.4541 115.949 50.3328 115.949 50.3328H118.46C118.478 50.3328 118.478 50.4541 118.478 50.5055C118.478 50.5568 118.478 50.6081 118.446 50.6268C118.063 50.6548 117.872 50.7061 117.75 50.7761Z" fill="#FFFFFF"/>
  <path d="M122.856 55.9002C122.977 55.9702 123.168 56.0215 123.546 56.0542C123.565 56.0728 123.579 56.1242 123.579 56.1942C123.579 56.2268 123.56 56.3482 123.56 56.3482H120.672C120.653 56.3482 120.653 56.2268 120.653 56.1755C120.653 56.1242 120.653 56.0728 120.686 56.0542C121.068 56.0215 121.255 55.9655 121.376 55.9002C121.498 55.8488 121.568 55.7088 121.568 54.0148V51.9708C121.568 51.3828 121.568 50.8788 121.535 50.7761C121.451 50.7761 121.274 50.7575 121.068 50.7575C120.084 50.7575 119.892 50.8975 119.668 51.1028C119.514 51.2428 119.426 51.6208 119.374 51.8448C119.374 51.8635 119.356 51.8635 119.323 51.8635C119.253 51.8635 119.048 51.8308 119.048 51.8121L119.188 50.2534C119.188 50.2348 119.22 50.1834 119.258 50.1834C119.603 50.2348 120.466 50.3235 122.128 50.3235C124.41 50.3235 124.844 50.2348 125.016 50.1694C125.049 50.1694 125.086 50.2208 125.086 50.2395C125.086 50.6035 125.068 51.3455 124.998 51.8495C124.998 51.8495 124.858 51.8681 124.806 51.8681C124.736 51.8681 124.666 51.8495 124.666 51.8355C124.666 51.5928 124.615 51.2475 124.494 51.1075C124.321 50.9161 124.148 50.7621 123.108 50.7621C122.898 50.7621 122.776 50.7808 122.692 50.7808C122.66 50.8835 122.641 51.3875 122.641 51.9755V54.0195C122.65 55.7088 122.734 55.8442 122.856 55.9002Z" fill="#FFFFFF"/>
  <path d="M127.527 56.4368C126.626 56.4368 125.866 55.9888 125.847 55.8815C125.814 55.7088 125.796 55.4848 125.796 55.2235C125.796 54.9995 125.814 54.5655 125.828 54.3415C125.828 54.3228 125.917 54.3088 125.982 54.3088C126.034 54.3088 126.136 54.3275 126.136 54.3415C126.169 54.7055 126.309 55.1395 126.449 55.3448C126.724 55.7088 127.056 55.9655 127.606 55.9655C128.176 55.9655 128.642 55.6202 128.642 54.9808C128.642 53.6135 125.945 53.4082 125.945 51.8681C125.945 50.9161 126.757 50.2395 127.97 50.2395C128.712 50.2395 129.062 50.4121 129.422 50.4121C129.454 50.4121 129.492 50.4308 129.492 50.4448C129.473 50.6175 129.473 50.8088 129.473 51.0328V51.8448C129.473 51.8635 129.384 51.8775 129.333 51.8775C129.282 51.8775 129.142 51.8588 129.142 51.8448C129.123 51.5508 128.988 51.1868 128.829 51.0328C128.624 50.8228 128.171 50.7015 127.877 50.7015C127.494 50.7015 127.046 50.9628 127.046 51.5321C127.046 52.6895 129.744 53.1048 129.744 54.6308C129.758 55.7928 128.806 56.4368 127.527 56.4368Z" fill="#FFFFFF"/>
  <path d="M108.739 43.6547C108.515 43.5241 108.347 43.0247 108.347 39.6414V36.93C108.347 33.5466 108.515 33.0473 108.739 32.9166C108.963 32.786 109.425 32.73 110.172 32.6553C110.209 32.6366 110.228 32.5246 110.228 32.4313C110.228 32.338 110.209 32.2633 110.19 32.2633H104.968C104.931 32.2633 104.912 32.338 104.912 32.4313C104.912 32.5246 104.931 32.6366 104.987 32.6553C105.71 32.73 106.177 32.786 106.401 32.9166C106.644 33.0473 106.793 33.5466 106.793 36.93V39.6414C106.793 43.0247 106.644 43.5241 106.401 43.6547C106.303 43.7107 106.154 43.7527 105.962 43.7901C105.636 43.8461 105.514 43.8414 105.267 43.8414C103.965 43.8414 102.607 42.4087 100.138 38.694C101.44 37.896 102.369 36.6687 102.369 35.18C102.369 33.766 100.974 32.226 98.2062 32.226C97.3709 32.226 96.6242 32.2633 95.9382 32.2633C95.2522 32.2633 94.3048 32.226 93.4835 32.226C93.4462 32.226 93.4275 32.3193 93.4275 32.4126C93.4275 32.506 93.4462 32.618 93.5022 32.618C94.2255 32.6926 94.5428 32.7486 94.7668 32.8793C95.0095 33.01 95.1588 33.5466 95.1588 36.93V39.6414C95.1588 43.0247 95.0095 43.5241 94.7668 43.6547C94.5428 43.7854 94.2302 43.8414 93.5022 43.9161C93.4462 43.9347 93.4275 44.0281 93.4275 44.1214C93.4275 44.2147 93.4462 44.3081 93.4835 44.3081H98.7429C98.7615 44.3081 98.7802 44.2334 98.7802 44.1401C98.7802 44.0467 98.7615 43.9347 98.7242 43.9161C97.9075 43.8227 97.3475 43.7854 97.1095 43.6547C96.8855 43.5241 96.7175 43.0247 96.7175 39.6414V39.156C97.1282 39.1747 97.4409 39.1934 97.7955 39.1934C98.0569 39.1934 98.3322 39.1747 98.7055 39.1747C100.213 41.7227 101.216 43.0574 102.164 43.7107C102.887 44.1961 103.601 44.3081 104.735 44.3081C105.164 44.3081 105.505 44.3081 105.916 44.3081H110.195C110.214 44.3081 110.232 44.2334 110.232 44.1401C110.232 44.0467 110.214 43.9347 110.176 43.9161C109.425 43.8367 108.958 43.7807 108.739 43.6547ZM98.3649 38.5213C97.4735 38.5213 96.9509 38.4467 96.8202 38.316C96.7455 38.2413 96.7082 38.036 96.7082 36.9207C96.7082 34.228 96.8202 33.1313 96.8949 33.0193C96.9695 32.9446 97.5249 32.8513 98.1595 32.8513C99.9422 32.8513 100.596 34.1346 100.596 35.9173C100.596 37.3733 99.8909 38.5213 98.3649 38.5213Z" fill="#FFFFFF"/>
</svg>