<svg xmlns="http://www.w3.org/2000/svg" width="147" height="75" viewBox="0 0 147 75" fill="none">
  <path d="M24.5149 19.6778C24.5149 19.6778 24.4636 19.7058 24.3842 19.7058C24.2815 19.7058 24.1742 19.6778 24.1742 19.6545C24.1742 19.2905 24.0949 18.9265 23.9129 18.7212C23.6515 18.4365 23.2362 18.2545 21.6822 18.2545C21.3695 18.2545 21.1875 18.2825 21.0615 18.2825C21.0102 18.4365 20.9822 18.9825 20.9822 19.8645V23.2385C20.9822 25.7819 21.1129 26.0946 21.2949 26.1739C21.4769 26.2766 21.8409 26.3559 22.4102 26.4072C22.4382 26.4352 22.4382 26.5099 22.4382 26.5892C22.4382 26.6686 22.4382 26.7432 22.4102 26.7432H18.3082C18.2802 26.7432 18.2568 26.6639 18.2568 26.5892C18.2568 26.5099 18.2848 26.4352 18.3082 26.4072C18.8775 26.3559 19.2415 26.2766 19.4235 26.1739C19.6055 26.0946 19.7082 25.7866 19.7082 23.2385V19.8645C19.7082 18.9825 19.7082 18.4365 19.6568 18.2825C19.5262 18.2825 19.2695 18.2545 18.9568 18.2545C17.4775 18.2545 17.0621 18.4085 16.7261 18.7212C16.4928 18.9312 16.3621 19.3465 16.2828 19.6825C16.2828 19.7105 16.2548 19.7105 16.2035 19.7105C16.1008 19.7105 15.9421 19.6592 15.9421 19.6312L16.1521 17.6058C16.1521 17.5778 16.1801 17.5545 16.2315 17.5545C16.7495 17.6338 17.8648 17.7085 20.3615 17.7085C23.7869 17.7085 24.3095 17.6291 24.5662 17.5265C24.6176 17.5265 24.6456 17.5545 24.6456 17.5778C24.6456 18.1192 24.6176 18.9218 24.5149 19.6778Z" fill="#212225"/>
  <path d="M32.0423 26.7386C32.0143 26.7386 31.991 26.6592 31.991 26.5846C31.991 26.5052 32.019 26.4306 32.0423 26.4026C32.6116 26.3512 32.845 26.2719 33.027 26.1692C33.209 26.0899 33.3397 25.7819 33.3397 23.2339V22.4032H28.1223V23.2339C28.1223 25.7772 28.2529 26.0899 28.4349 26.1692C28.6169 26.2719 28.8503 26.3512 29.4196 26.4026C29.4476 26.4306 29.471 26.5052 29.471 26.6079C29.471 26.6592 29.443 26.7386 29.443 26.7386H25.5462C25.5182 26.7386 25.5182 26.6592 25.5182 26.5846C25.5182 26.5052 25.5182 26.4306 25.5696 26.4026C26.1389 26.3512 26.3723 26.2719 26.5543 26.1692C26.7363 26.0899 26.8389 25.7819 26.8389 23.2339V21.2085C26.8389 18.6652 26.7363 18.3525 26.5543 18.2732C26.3723 18.1705 26.1389 18.0912 25.5696 18.0118C25.5182 18.0118 25.5182 17.9325 25.5182 17.8578C25.5182 17.7785 25.5182 17.7038 25.5462 17.7038H29.443C29.443 17.7038 29.471 17.7552 29.471 17.8065C29.471 17.8858 29.443 18.0165 29.4196 18.0165C28.8503 18.0958 28.6169 18.1705 28.4349 18.2778C28.2529 18.3572 28.1223 18.6652 28.1223 21.2132V21.8385H33.3397V21.2132C33.3397 18.6698 33.209 18.3572 33.027 18.2778C32.845 18.1752 32.6116 18.0958 32.0423 18.0165C32.0143 18.0165 31.991 17.9372 31.991 17.8625C31.991 17.7832 32.019 17.7085 32.0423 17.7085H35.911C35.939 17.7085 35.939 17.7598 35.939 17.8392C35.939 17.9185 35.939 18.0212 35.8877 18.0212C35.3417 18.1005 35.085 18.1752 34.903 18.2825C34.749 18.3618 34.6183 18.6698 34.6183 21.2179V23.2432C34.6183 25.7866 34.749 26.0992 34.903 26.1786C35.085 26.2812 35.3463 26.3606 35.8877 26.4119C35.939 26.4399 35.939 26.5426 35.939 26.6172C35.939 26.6966 35.939 26.7479 35.911 26.7479H32.0423V26.7386Z" fill="#212225"/>
  <path d="M43.1024 26.5332C42.9997 26.6872 42.9204 26.7946 42.5564 26.7946C41.6744 26.7946 40.6337 26.7432 39.439 26.7432C38.5057 26.7432 37.9317 26.7432 36.919 26.7712C36.891 26.7712 36.8677 26.6919 36.8677 26.6172C36.8677 26.5379 36.8957 26.4632 36.919 26.4352C37.4883 26.3839 37.7497 26.3046 37.9037 26.2019C38.0857 26.1226 38.2164 25.7866 38.2164 23.2432V21.2178C38.2164 18.6745 38.0857 18.3338 37.9037 18.2592C37.7497 18.1565 37.4883 18.0772 36.919 17.9978C36.891 17.9978 36.8677 17.9185 36.8677 17.8438C36.8677 17.7645 36.8957 17.6898 36.919 17.6898C38.0344 17.7178 39.803 17.7178 40.7364 17.7178C41.9824 17.7178 42.6077 17.6665 43.0744 17.6665C43.1257 17.6665 43.1257 17.6945 43.1257 17.7178C43.0744 18.1845 43.0464 18.8612 42.9717 19.5892C42.9717 19.6172 42.8924 19.6405 42.8177 19.6405C42.7151 19.6405 42.6124 19.6125 42.6124 19.5612C42.6124 19.1972 42.5331 18.8612 42.3277 18.6278C42.0944 18.3945 41.6791 18.2638 40.6664 18.2638C40.097 18.2638 39.705 18.2918 39.551 18.2918C39.4997 18.4458 39.4997 18.9172 39.4997 19.7992V21.7732H40.5637C41.9404 21.7732 42.1224 21.4605 42.1971 20.9705C42.1971 20.9425 42.2997 20.9425 42.3791 20.9425C42.4584 20.9425 42.5611 20.9425 42.5611 20.9705C42.5331 21.3578 42.4817 23.0239 42.4817 23.3832C42.4817 23.4112 42.3791 23.4345 42.2997 23.4345C42.1971 23.4345 42.1177 23.4065 42.1177 23.3832C42.1177 23.1219 42.0664 22.7625 41.9077 22.6319C41.7771 22.5292 41.5717 22.3705 40.531 22.3705H39.4904V23.2525C39.4904 24.9419 39.621 25.7446 39.803 25.9546C39.985 26.1086 40.167 26.2159 41.021 26.2159C41.9031 26.2159 42.3977 26.0106 42.6544 25.7212C42.8644 25.5112 43.0184 25.2266 43.1211 24.7599C43.1211 24.7319 43.1724 24.7319 43.2004 24.7319C43.2797 24.7319 43.4104 24.7832 43.3824 24.8112C43.3357 25.5206 43.2051 26.3232 43.1024 26.5332Z" fill="#212225"/>
  <path d="M56.8085 26.2206C56.6265 26.4819 55.6652 26.8692 53.9525 26.8692C50.9938 26.8692 48.8098 24.8439 48.8098 22.3239C48.8098 19.9345 50.7324 17.5732 53.9245 17.5732C55.5858 17.5732 56.3932 17.9885 56.9345 17.9885C56.9625 17.9885 56.9858 18.0165 56.9858 18.0398C57.0138 18.5345 57.0372 19.2858 57.0372 20.0372C57.0372 20.0652 56.9858 20.0885 56.9065 20.0885C56.8038 20.0885 56.6732 20.0605 56.6732 20.0092C56.6452 19.6452 56.4118 19.1785 56.1272 18.8938C55.6091 18.3992 54.7505 18.0912 53.7658 18.0912C51.1711 18.0912 50.2331 19.9345 50.2331 21.9319C50.2331 24.1905 51.6891 26.2952 53.9711 26.2952C55.0351 26.2952 55.7352 26.1132 56.2298 25.5439C56.5145 25.1799 56.6965 24.7412 56.8272 24.3259C56.8272 24.2979 56.8552 24.2979 56.9065 24.2979C57.0092 24.2979 57.1678 24.3492 57.1678 24.3772C57.1212 25.1052 56.9392 26.0386 56.8085 26.2206Z" fill="#212225"/>
  <path d="M64.9893 26.7386C64.9613 26.7386 64.9379 26.6592 64.9379 26.5846C64.9379 26.5052 64.9659 26.4306 64.9893 26.4026C65.5586 26.3512 65.7919 26.2719 65.9739 26.1692C66.1559 26.0899 66.2866 25.7819 66.2866 23.2339V22.4032H61.0692V23.2339C61.0692 25.7772 61.1999 26.0899 61.3819 26.1692C61.5639 26.2719 61.7972 26.3512 62.3666 26.4026C62.3946 26.4306 62.4179 26.5052 62.4179 26.6079C62.4179 26.6592 62.3899 26.7386 62.3899 26.7386H58.4932C58.4652 26.7386 58.4652 26.6592 58.4652 26.5846C58.4652 26.5052 58.4652 26.4306 58.5165 26.4026C59.0859 26.3512 59.3192 26.2719 59.5012 26.1692C59.6832 26.0899 59.7859 25.7819 59.7859 23.2339V21.2085C59.7859 18.6652 59.6832 18.3525 59.5012 18.2732C59.3192 18.1705 59.0859 18.0912 58.5165 18.0118C58.4652 18.0118 58.4652 17.9325 58.4652 17.8578C58.4652 17.7785 58.4652 17.7038 58.4932 17.7038H62.3899C62.3899 17.7038 62.4179 17.7552 62.4179 17.8065C62.4179 17.8858 62.3899 18.0165 62.3666 18.0165C61.7972 18.0958 61.5639 18.1705 61.3819 18.2778C61.1999 18.3572 61.0692 18.6652 61.0692 21.2132V21.8385H66.2866V21.2132C66.2866 18.6698 66.1559 18.3572 65.9739 18.2778C65.7919 18.1752 65.5586 18.0958 64.9893 18.0165C64.9613 18.0165 64.9379 17.9372 64.9379 17.8625C64.9379 17.7832 64.9659 17.7085 64.9893 17.7085H68.858C68.886 17.7085 68.886 17.7598 68.886 17.8392C68.886 17.9185 68.886 18.0212 68.8346 18.0212C68.2886 18.1005 68.032 18.1752 67.85 18.2825C67.696 18.3618 67.5653 18.6698 67.5653 21.2179V23.2432C67.5653 25.7866 67.696 26.0992 67.85 26.1786C68.032 26.2812 68.2933 26.3606 68.8346 26.4119C68.886 26.4399 68.886 26.5426 68.886 26.6172C68.886 26.6966 68.886 26.7479 68.858 26.7479H64.9893V26.7386Z" fill="#212225"/>
  <path d="M78.7467 18.3012C78.6161 18.4038 78.4854 18.6652 78.4854 21.2085V23.5465C78.4854 25.2079 77.0854 26.8692 74.8267 26.8692C72.5914 26.8692 71.0373 25.3899 71.0373 23.5699V21.2085C71.0373 18.6652 70.9067 18.3525 70.7247 18.2732C70.5427 18.1705 70.3093 18.0912 69.74 18.0118C69.712 18.0118 69.6887 17.9325 69.6887 17.8578C69.6887 17.7785 69.7167 17.7038 69.74 17.7038H73.688C73.688 17.7038 73.716 17.7832 73.716 17.8578C73.716 17.9372 73.688 18.0118 73.6647 18.0118C73.1187 18.0912 72.806 18.1658 72.624 18.2732C72.442 18.3525 72.3114 18.6605 72.3114 21.2085V23.2059C72.3114 24.9466 73.3754 26.0619 75.1674 26.0619C76.9314 26.0619 77.7621 24.9186 77.7621 23.3599V21.2038C77.7621 18.6605 77.6314 18.3992 77.5007 18.2965C77.3467 18.1658 77.0061 18.0912 76.4367 18.0118C76.4087 18.0118 76.4087 17.9325 76.4087 17.8812C76.4087 17.8018 76.4087 17.6992 76.4367 17.6992H79.7361C79.7641 17.6992 79.7874 17.8018 79.7874 17.8812C79.7874 17.9605 79.7594 18.0118 79.7361 18.0118C79.1621 18.0912 78.9007 18.1705 78.7467 18.3012Z" fill="#212225"/>
  <path d="M89.3635 26.7666C88.4815 26.7666 87.7814 26.6359 87.2074 26.2719C86.4794 25.7772 85.6768 24.8159 84.5334 22.9212H84.0154C83.6794 22.9212 83.4461 22.9212 83.0541 22.8932V23.2059C83.0541 25.7492 83.1847 26.0899 83.3667 26.1646C83.5487 26.2672 83.9874 26.3466 84.6128 26.3979C84.6408 26.4259 84.6641 26.5006 84.6641 26.6032C84.6641 26.6546 84.6361 26.7339 84.6361 26.7339H80.4827C80.4547 26.7339 80.4547 26.6826 80.4547 26.6032C80.4547 26.5239 80.4547 26.4212 80.506 26.3979C81.0521 26.3466 81.3087 26.2672 81.4907 26.1646C81.6447 26.0852 81.7754 25.7492 81.7754 23.2059V21.1805C81.7754 18.6372 81.6447 18.3245 81.4907 18.2452C81.3087 18.1425 81.0474 18.0632 80.506 17.9838C80.4547 17.9838 80.4547 17.8812 80.4547 17.8018C80.4547 17.7225 80.4547 17.6712 80.4827 17.6712C81.1314 17.6712 81.8827 17.6991 82.4287 17.6991C82.9467 17.6991 83.5207 17.6712 84.1694 17.6712C86.3254 17.6712 87.5434 18.8145 87.5434 19.9578C87.5434 21.0732 86.7128 21.9832 85.7001 22.5805C87.6228 25.3572 88.6588 26.3699 89.7741 26.3699H90.1895C90.2175 26.3419 90.2688 26.6312 90.2688 26.6826C89.9608 26.7386 89.6995 26.7666 89.3635 26.7666ZM84.1461 18.1985C83.6514 18.1985 83.3434 18.2778 83.2874 18.3805C83.1847 18.4832 83.0541 19.3418 83.0541 21.1852C83.0541 22.0159 83.1054 22.1185 83.1847 22.1979C83.3387 22.3285 83.6281 22.4312 84.3001 22.4312C85.3641 22.4312 86.0921 21.4979 86.0921 20.4338C86.0921 19.1832 85.5228 18.1985 84.1461 18.1985Z" fill="#212225"/>
  <path d="M97.6982 26.2206C97.5162 26.4819 96.5549 26.8692 94.8422 26.8692C91.8835 26.8692 89.6995 24.8439 89.6995 22.3239C89.6995 19.9345 91.6222 17.5732 94.8142 17.5732C96.4755 17.5732 97.2829 17.9885 97.8242 17.9885C97.8522 17.9885 97.8755 18.0165 97.8755 18.0398C97.9035 18.5345 97.9269 19.2858 97.9269 20.0372C97.9269 20.0652 97.8755 20.0885 97.7962 20.0885C97.6935 20.0885 97.5629 20.0605 97.5629 20.0092C97.5349 19.6452 97.3015 19.1785 97.0169 18.8938C96.4989 18.3992 95.6402 18.0912 94.6555 18.0912C92.0608 18.0912 91.1228 19.9345 91.1228 21.9319C91.1228 24.1905 92.5788 26.2952 94.8608 26.2952C95.9249 26.2952 96.6249 26.1132 97.1195 25.5439C97.4042 25.1799 97.5862 24.7412 97.7169 24.3259C97.7169 24.2979 97.7449 24.2979 97.7962 24.2979C97.8989 24.2979 98.0575 24.3492 98.0575 24.3772C98.0109 25.1052 97.8289 26.0386 97.6982 26.2206Z" fill="#212225"/>
  <path d="M105.772 26.7386C105.744 26.7386 105.72 26.6592 105.72 26.5846C105.72 26.5052 105.748 26.4306 105.772 26.4026C106.341 26.3512 106.574 26.2719 106.756 26.1692C106.938 26.0899 107.069 25.7819 107.069 23.2339V22.4032H101.852V23.2339C101.852 25.7772 101.982 26.0899 102.164 26.1692C102.346 26.2719 102.58 26.3512 103.149 26.4026C103.177 26.4306 103.2 26.5052 103.2 26.6079C103.2 26.6592 103.172 26.7386 103.172 26.7386H99.2756C99.2476 26.7386 99.2476 26.6592 99.2476 26.5846C99.2476 26.5052 99.2476 26.4306 99.2989 26.4026C99.8682 26.3512 100.102 26.2719 100.284 26.1692C100.466 26.0899 100.568 25.7819 100.568 23.2339V21.2085C100.568 18.6652 100.466 18.3525 100.284 18.2732C100.102 18.1705 99.8682 18.0912 99.2989 18.0118C99.2476 18.0118 99.2476 17.9325 99.2476 17.8578C99.2476 17.7785 99.2476 17.7038 99.2756 17.7038H103.172C103.172 17.7038 103.2 17.7552 103.2 17.8065C103.2 17.8858 103.172 18.0165 103.149 18.0165C102.58 18.0958 102.346 18.1705 102.164 18.2778C101.982 18.3572 101.852 18.6652 101.852 21.2132V21.8385H107.069V21.2132C107.069 18.6698 106.938 18.3572 106.756 18.2778C106.574 18.1752 106.341 18.0958 105.772 18.0165C105.744 18.0165 105.72 17.9372 105.72 17.8625C105.72 17.7832 105.748 17.7085 105.772 17.7085H109.64C109.668 17.7085 109.668 17.7598 109.668 17.8392C109.668 17.9185 109.668 18.0212 109.617 18.0212C109.071 18.1005 108.814 18.1752 108.632 18.2825C108.478 18.3618 108.348 18.6698 108.348 21.2179V23.2432C108.348 25.7866 108.478 26.0992 108.632 26.1786C108.814 26.2812 109.076 26.3606 109.617 26.4119C109.668 26.4399 109.668 26.5426 109.668 26.6172C109.668 26.6966 109.668 26.7479 109.64 26.7479H105.772V26.7386Z" fill="#212225"/>
  <path d="M118.88 26.8692C116.127 26.8692 114.078 24.8439 114.078 22.3239C114.078 19.9345 116.127 17.5732 119.062 17.5732C121.816 17.5732 123.864 19.5985 123.864 22.1185C123.864 24.5079 121.816 26.8692 118.88 26.8692ZM118.778 18.1472C116.234 18.1472 115.506 20.2238 115.506 21.9365C115.506 24.1952 116.855 26.2999 119.165 26.2999C121.708 26.2999 122.436 24.2232 122.436 22.5105C122.436 20.2472 121.088 18.1472 118.778 18.1472Z" fill="#212225"/>
  <path d="M131.056 19.5472C131.056 19.5752 131.005 19.5752 130.925 19.5752C130.823 19.5752 130.692 19.5472 130.692 19.4958C130.692 19.1598 130.613 18.8472 130.407 18.6372C130.174 18.3758 129.656 18.1705 128.643 18.1705C128.074 18.1705 127.551 18.1985 127.397 18.2218C127.369 18.3525 127.346 18.8985 127.346 19.7805V21.8572H128.359C129.735 21.8572 129.917 21.7032 129.992 21.2085C129.992 21.1805 130.071 21.1805 130.146 21.1805C130.249 21.1805 130.356 21.1805 130.356 21.2085C130.328 21.5959 130.277 23.0005 130.277 23.3879C130.277 23.3879 130.225 23.4159 130.146 23.4159C130.043 23.4159 129.913 23.3879 129.913 23.3645C129.913 23.1032 129.861 22.8185 129.703 22.6879C129.572 22.5572 129.367 22.4779 128.326 22.4779H127.341V23.2292C127.341 25.7726 127.472 26.0852 127.654 26.1646C127.836 26.2672 128.279 26.3466 128.9 26.3979C128.928 26.4259 128.951 26.5006 128.951 26.6032C128.951 26.6546 128.923 26.7339 128.923 26.7339H124.77C124.742 26.7339 124.742 26.6826 124.742 26.6032C124.742 26.5239 124.742 26.4212 124.793 26.3979C125.339 26.3466 125.596 26.2672 125.778 26.1646C125.932 26.0852 126.062 25.7772 126.062 23.2292V21.2039C126.062 18.6605 125.932 18.2965 125.778 18.2172C125.596 18.1145 125.334 18.0352 124.793 17.9838C124.742 17.9558 124.742 17.8812 124.742 17.8018C124.742 17.7225 124.742 17.6712 124.77 17.6712C125.885 17.6992 127.729 17.6992 128.639 17.6992C129.885 17.6992 130.692 17.6478 131.159 17.6478C131.187 17.6478 131.21 17.6758 131.21 17.6992C131.187 18.1705 131.135 18.7958 131.056 19.5472Z" fill="#212225"/>
  <path d="M21.6822 32.7586C21.7009 32.7586 21.7195 32.852 21.7195 32.9453C21.7195 33.0386 21.7009 33.1506 21.6635 33.1506C20.9402 33.2253 20.4735 33.2813 20.2495 33.412C20.0069 33.5426 19.8575 34.042 19.8575 37.4253V42.4047C19.8575 45.6574 19.2275 47.1274 15.9935 48.6301L15.9375 48.6488C15.8628 48.6488 15.7881 48.5368 15.7881 48.4434C15.7881 48.4248 15.7881 48.4061 15.8068 48.3874C17.4402 47.1974 18.2988 46.3994 18.2988 42.4607V37.4253C18.2988 34.042 18.1308 33.5426 17.9068 33.412C17.6828 33.2813 17.2022 33.2253 16.4742 33.1506C16.4368 33.132 16.4182 33.02 16.4182 32.9266C16.4182 32.8333 16.4368 32.7586 16.4555 32.7586H21.6822Z" fill="#212225"/>
  <path d="M30.4696 35.3253C30.4696 35.3626 30.3949 35.3626 30.3203 35.3626C30.2083 35.3626 30.0589 35.344 30.0589 35.2693C30.0589 34.8213 29.9283 34.3033 29.6296 34.0046C29.2562 33.594 28.7942 33.4493 27.7349 33.4493C27.0116 33.4493 26.3209 33.4493 26.1576 33.4866C26.1016 33.6733 26.0829 34.3593 26.0829 35.5306V38.2047H27.6089C29.3729 38.2047 29.4289 37.7007 29.5409 37.0333C29.5409 36.996 29.6343 36.9773 29.7276 36.9773C29.8396 36.9773 29.9516 36.996 29.9516 37.0333L29.8396 40.3794C29.8396 40.398 29.7463 40.4167 29.6529 40.4167C29.5409 40.4167 29.4289 40.398 29.4289 40.3607C29.4289 40.0247 29.3356 39.3947 29.1676 39.208C28.9996 39.04 28.9062 38.928 27.5856 38.928H26.0782V40.174C26.0782 42.5727 26.1902 43.6694 26.3582 43.8374C26.5262 44.0054 27.1002 44.0801 28.1969 44.0801C29.3496 44.0801 29.7743 43.8001 30.1103 43.4501C30.3343 43.2074 30.5583 42.6707 30.7216 41.9614C30.7216 41.924 30.7776 41.924 30.8336 41.924C30.9643 41.924 31.1323 41.98 31.1323 42.036C31.0389 43.2074 30.8336 44.5654 30.8149 44.6027C30.7216 44.7147 30.1663 44.8641 29.3822 44.8641C28.2669 44.8641 27.6929 44.8081 26.1482 44.8081C24.9395 44.8081 24.0482 44.8267 22.7275 44.8454C22.7089 44.8454 22.6902 44.7707 22.6902 44.6774C22.6902 44.5841 22.7089 44.4347 22.7462 44.4161C23.4695 44.3414 23.8989 44.2854 24.1229 44.1547C24.3469 44.0241 24.5149 43.5247 24.5149 40.1414V37.43C24.5149 34.0466 24.3469 33.51 24.1229 33.3793C23.8989 33.2486 23.4742 33.1926 22.7462 33.118C22.7089 33.0993 22.6902 32.9873 22.6902 32.894C22.6902 32.8006 22.7089 32.726 22.7275 32.726C23.5629 32.7446 24.7155 32.7633 25.7749 32.7633H27.8189C29.3822 32.7633 29.9936 32.7446 30.5489 32.67C30.6423 32.67 30.6609 32.7073 30.6609 32.7446C30.6376 33.3933 30.5816 34.322 30.4696 35.3253Z" fill="#212225"/>
  <path d="M35.953 45.0647C34.4083 45.0647 33.1483 44.3787 32.9803 44.1361C32.9616 44.0987 32.8496 42.8527 32.8496 41.868C32.8496 41.6254 32.8496 41.4014 32.8683 41.2194C32.8683 41.1634 32.9803 41.1447 33.0923 41.1447C33.1856 41.1447 33.2976 41.1634 33.2976 41.2194C33.3349 41.924 33.6896 42.8714 33.9463 43.2634C34.413 43.9681 35.211 44.4347 36.345 44.4347C37.6283 44.4347 38.333 43.5807 38.333 42.2414C38.333 39.306 33.4469 39.1567 33.4469 35.7733C33.4469 34.0093 34.8796 32.502 36.8303 32.502C38.1137 32.502 38.3937 32.8566 39.0237 32.8566C39.0983 32.8566 39.173 32.838 39.285 32.838C39.341 32.838 39.3597 32.8566 39.3597 32.894C39.3783 33.3233 39.3783 33.9533 39.3783 34.6206C39.3783 34.9566 39.3783 35.3066 39.3597 35.6427C39.3597 35.6613 39.285 35.68 39.1917 35.68C39.0797 35.68 38.949 35.6613 38.9303 35.6053C38.8743 34.8633 38.7063 34.21 38.3563 33.804C37.9457 33.356 37.4277 33.0806 36.6296 33.0806C35.6263 33.0806 34.8656 33.9533 34.8656 35.106C34.8656 37.6167 39.8263 38.228 39.8263 41.4434C39.8217 43.7627 37.829 45.0647 35.953 45.0647Z" fill="#212225"/>
  <path d="M53.7425 32.9826C53.7425 33.0573 53.7238 33.1506 53.6865 33.1506C52.9631 33.2253 52.5898 33.2813 52.3845 33.468C52.2351 33.5986 52.0671 34.042 52.0671 37.4253V40.5474C52.0671 42.778 50.3591 44.9154 47.1811 44.9154C44.2831 44.9154 42.5144 43.002 42.5144 40.5847V37.4253C42.5144 34.042 42.3464 33.5426 42.1224 33.412C41.8797 33.2813 41.5624 33.2253 40.839 33.1506C40.8017 33.132 40.783 33.02 40.783 32.9266C40.783 32.8333 40.8017 32.7586 40.8204 32.7586H45.8371C45.8557 32.7586 45.8744 32.8333 45.8744 32.9266C45.8744 33.02 45.8557 33.132 45.8184 33.1506C45.0951 33.2253 44.7031 33.2813 44.4604 33.412C44.2364 33.5426 44.0684 34.042 44.0684 37.4253V40.2487C44.0684 42.2927 45.3517 43.9821 47.8018 43.9821C50.0884 43.9821 51.2225 42.2554 51.2225 40.4494V37.4207C51.2225 34.0373 51.0358 33.594 50.8864 33.4633C50.6811 33.2766 50.2564 33.2206 49.5098 33.146C49.4724 33.146 49.4538 33.0526 49.4538 32.9593C49.4538 32.866 49.4724 32.754 49.5098 32.754H53.6725C53.7191 32.7586 53.7425 32.8706 53.7425 32.9826Z" fill="#212225"/>
  <path d="M57.5879 45.0647C56.0432 45.0647 54.7832 44.3787 54.6152 44.1361C54.5965 44.0987 54.4845 42.8527 54.4845 41.868C54.4845 41.6254 54.4845 41.4014 54.5032 41.2194C54.5032 41.1634 54.6152 41.1447 54.7272 41.1447C54.8205 41.1447 54.9325 41.1634 54.9325 41.2194C54.9698 41.924 55.3245 42.8714 55.5812 43.2634C56.0478 43.9681 56.8459 44.4347 57.9799 44.4347C59.2632 44.4347 59.9679 43.5807 59.9679 42.2414C59.9679 39.306 55.0818 39.1567 55.0818 35.7733C55.0818 34.0093 56.5145 32.502 58.4652 32.502C59.7485 32.502 60.0285 32.8566 60.6586 32.8566C60.7332 32.8566 60.8079 32.838 60.9199 32.838C60.9759 32.838 60.9946 32.8566 60.9946 32.894C61.0132 33.3233 61.0132 33.9533 61.0132 34.6206C61.0132 34.9566 61.0132 35.3066 60.9946 35.6427C60.9946 35.6613 60.9199 35.68 60.8266 35.68C60.7146 35.68 60.5839 35.6613 60.5652 35.6053C60.5092 34.8633 60.3412 34.21 59.9865 33.804C59.5759 33.356 59.0579 33.0806 58.2599 33.0806C57.2565 33.0806 56.4958 33.9533 56.4958 35.106C56.4958 37.6167 61.4566 38.228 61.4566 41.4434C61.4519 43.7627 59.4639 45.0647 57.5879 45.0647Z" fill="#212225"/>
  <path d="M77.4914 36.1793C77.3794 36.1793 77.2674 36.142 77.2487 36.086C77.174 35.3253 76.9314 34.6906 76.488 34.21C75.928 33.636 74.7613 33.1506 73.5153 33.1506C70.2813 33.1506 69.0166 35.7547 69.0166 38.3913C69.0166 41.42 70.93 44.3367 73.7767 44.3367C75.1533 44.3367 76.0447 43.9447 76.6747 43.1654C77.0667 42.68 77.286 42.1247 77.454 41.5694C77.454 41.532 77.51 41.5134 77.566 41.5134C77.6967 41.5134 77.8647 41.5694 77.8647 41.6254C77.8087 42.4047 77.4727 44.1361 77.4354 44.1921C77.3794 44.2854 76.1333 45.0647 73.7347 45.0647C69.7773 45.0647 67.2666 42.2974 67.2666 38.9327C67.2666 35.7546 69.5533 32.502 73.6973 32.502C75.592 32.502 76.6327 33.076 77.3047 33.076C77.3794 33.076 77.454 33.0573 77.51 33.0573C77.5847 33.0573 77.622 33.0946 77.622 33.132L77.678 36.1233C77.678 36.1607 77.5847 36.1793 77.4914 36.1793Z" fill="#212225"/>
  <path d="M92.7515 32.9266C92.7515 33.02 92.7328 33.132 92.6955 33.1506C91.9722 33.2253 91.6548 33.2813 91.4121 33.412C91.1881 33.5426 91.0201 34.0233 91.0201 37.4253V40.118C91.0201 43.5201 91.1881 44.0381 91.4121 44.1501C91.6548 44.2807 91.9722 44.3367 92.6955 44.4114C92.7328 44.4114 92.7515 44.5234 92.7515 44.6354C92.7515 44.7287 92.7328 44.8034 92.7142 44.8034H87.7908C87.7721 44.8034 87.7535 44.7287 87.7535 44.6354C87.7535 44.5234 87.7721 44.4114 87.8094 44.4114C88.5328 44.3367 88.8501 44.2807 89.0928 44.1501C89.3168 44.0381 89.4848 43.5201 89.4848 40.118V38.984H82.6434V40.118C82.6434 43.5201 82.8114 44.0194 83.0541 44.1501C83.2781 44.2621 83.5907 44.3367 84.3188 44.4114C84.3561 44.4114 84.3748 44.5234 84.3748 44.6354C84.3748 44.7287 84.3561 44.8034 84.3374 44.8034H79.414C79.3954 44.8034 79.3767 44.7287 79.3767 44.6354C79.3767 44.5234 79.3954 44.4114 79.4327 44.4114C80.156 44.3367 80.4921 44.2621 80.7161 44.1501C80.9401 44.0194 81.1081 43.5201 81.1081 40.118V37.4253C81.1081 34.0233 80.9401 33.5426 80.7161 33.412C80.4921 33.2813 80.1607 33.2253 79.4327 33.1506C79.3954 33.132 79.3767 33.02 79.3767 32.9266C79.3767 32.8333 79.3954 32.7586 79.414 32.7586H84.3374C84.3561 32.7586 84.3748 32.8333 84.3748 32.9266C84.3748 33.02 84.3561 33.132 84.3188 33.1506C83.5954 33.2253 83.2781 33.2813 83.0541 33.412C82.8114 33.5426 82.6434 34.0233 82.6434 37.4253V38.298H89.4848V37.4253C89.4848 34.0233 89.3168 33.5426 89.0928 33.412C88.8501 33.2813 88.5328 33.2253 87.8094 33.1506C87.7721 33.132 87.7535 33.02 87.7535 32.9266C87.7535 32.8333 87.7721 32.7586 87.7908 32.7586H92.7142C92.7328 32.7586 92.7515 32.8333 92.7515 32.9266Z" fill="#212225"/>
  <path d="M115.184 45.0647C113.64 45.0647 112.38 44.3787 112.212 44.1361C112.193 44.0987 112.081 42.8527 112.081 41.868C112.081 41.6254 112.081 41.4014 112.1 41.2194C112.1 41.1634 112.212 41.1447 112.324 41.1447C112.417 41.1447 112.529 41.1634 112.529 41.2194C112.566 41.924 112.921 42.8714 113.178 43.2634C113.644 43.9681 114.442 44.4347 115.576 44.4347C116.86 44.4347 117.564 43.5807 117.564 42.2414C117.564 39.306 112.678 39.1567 112.678 35.7733C112.678 34.0093 114.111 32.502 116.062 32.502C117.345 32.502 117.625 32.8566 118.255 32.8566C118.33 32.8566 118.404 32.838 118.516 32.838C118.572 32.838 118.591 32.8566 118.591 32.894C118.61 33.3233 118.61 33.9533 118.61 34.6206C118.61 34.9566 118.61 35.3066 118.591 35.6427C118.591 35.6613 118.516 35.68 118.423 35.68C118.311 35.68 118.18 35.6613 118.162 35.6053C118.106 34.8633 117.938 34.21 117.588 33.804C117.177 33.356 116.659 33.0806 115.861 33.0806C114.858 33.0806 114.097 33.9533 114.097 35.106C114.097 37.6167 119.058 38.228 119.058 41.4434C119.048 43.7627 117.06 45.0647 115.184 45.0647Z" fill="#212225"/>
  <path d="M130.683 35.7173C130.683 35.7547 130.589 35.792 130.496 35.792C130.384 35.792 130.272 35.7547 130.272 35.68C130.272 35.2133 130.216 34.322 129.899 33.9906C129.525 33.5986 128.765 33.286 127.131 33.286C126.702 33.286 126.483 33.286 126.296 33.3233C126.24 33.51 126.221 34.4013 126.221 35.5727V40.146C126.221 43.5294 126.389 44.0287 126.613 44.1594C126.837 44.2901 127.299 44.3461 128.046 44.4207C128.083 44.4394 128.102 44.5514 128.102 44.6447C128.102 44.7381 128.083 44.8127 128.065 44.8127H122.824C122.805 44.8127 122.786 44.7381 122.786 44.6634C122.786 44.5514 122.805 44.4394 122.861 44.4207C123.584 44.3461 124.051 44.2901 124.275 44.1594C124.518 44.0287 124.667 43.5294 124.667 40.146V35.5727C124.667 34.4013 124.648 33.51 124.592 33.3233C124.406 33.286 124.088 33.286 123.664 33.286C121.918 33.286 121.321 33.4726 120.896 33.9906C120.598 34.3453 120.411 34.994 120.285 35.7173C120.285 35.7733 120.21 35.792 120.136 35.792C120.024 35.792 119.874 35.7547 119.874 35.68C119.986 34.714 120.098 33.3 120.154 32.67C120.154 32.6326 120.21 32.5953 120.304 32.5953H120.378C121.027 32.7073 122.217 32.7633 125.451 32.7633C129.894 32.7633 130.3 32.67 130.636 32.558C130.655 32.558 130.692 32.5393 130.711 32.5393C130.785 32.5393 130.841 32.5953 130.841 32.6326C130.832 33.3373 130.795 34.728 130.683 35.7173Z" fill="#212225"/>
  <path d="M20.1002 56.9368C18.1962 56.9368 16.8148 55.5695 16.8148 53.8755C16.8148 52.2655 18.2008 50.7441 20.2215 50.7441C22.1255 50.7441 23.5069 52.0601 23.5069 53.7542C23.5115 55.3595 22.1255 56.9368 20.1002 56.9368ZM20.0348 51.2061C18.5135 51.2061 18.0608 52.5408 18.0608 53.6281C18.0608 55.0468 18.8728 56.4655 20.2915 56.4655C21.8129 56.4655 22.2655 55.0795 22.2655 53.9922C22.2655 52.5735 21.4349 51.2061 20.0348 51.2061Z" fill="#212225"/>
  <path d="M26.3816 54.5802C26.3816 56.2742 26.4702 56.3442 26.5916 56.3955C26.7129 56.4655 26.9883 56.5168 27.3709 56.5495C27.3896 56.5682 27.4036 56.6195 27.4036 56.6895C27.4036 56.7222 27.3849 56.8435 27.3849 56.8435H24.4589C24.4402 56.8435 24.4402 56.7222 24.4402 56.6708C24.4402 56.6195 24.4402 56.5682 24.4729 56.5495C24.8556 56.5168 24.9909 56.4608 25.1122 56.3955C25.2336 56.3442 25.3036 56.2042 25.3036 54.5102V53.1615C25.3036 51.4675 25.2336 51.3275 25.1122 51.2761C24.9909 51.2061 24.7669 51.1361 24.3842 51.0848C24.3516 51.0848 24.3516 51.0148 24.3516 50.9635C24.3516 50.9121 24.3702 50.7721 24.3842 50.7721H24.6082C25.2476 50.7721 25.8869 50.8235 26.5309 50.8235C26.9976 50.8235 28.2109 50.7721 28.7803 50.7721C28.8503 50.7721 28.9343 50.7908 28.9529 50.8421C28.9203 51.1548 28.9016 51.7241 28.8503 52.2095C28.8503 52.2281 28.7103 52.2421 28.6589 52.2421C28.5889 52.2421 28.5189 52.2235 28.5189 52.1908C28.5189 51.9481 28.4676 51.6868 28.3276 51.5328C28.1736 51.3788 27.8936 51.2575 27.2216 51.2575C26.8389 51.2575 26.5122 51.2761 26.4096 51.2761C26.3769 51.3788 26.3769 52.1068 26.3769 52.6108V53.5815H26.9323C27.8516 53.5815 27.9683 53.4788 28.0243 53.1475C28.0243 53.1288 28.0943 53.1288 28.1456 53.1288C28.1969 53.1288 28.2996 53.1288 28.2996 53.1475C28.2809 53.4088 28.2483 54.4448 28.2483 54.6875C28.2483 54.7062 28.1456 54.7202 28.0943 54.7202C28.0243 54.7202 27.9729 54.7015 27.9729 54.6875C27.9729 54.5148 27.9403 54.3048 27.8329 54.2208C27.7443 54.1508 27.7303 54.0482 27.0349 54.0482H26.3769V54.5802H26.3816Z" fill="#212225"/>
  <path d="M35.7243 50.9635C35.7243 51.0148 35.7056 51.1035 35.6916 51.1035C35.309 51.1548 35.155 51.2061 35.0336 51.2761C34.9123 51.3275 34.8236 51.4675 34.8236 53.1615V54.8415C34.8236 56.1575 34.8236 56.4142 35.687 56.4142C36.2236 56.4142 36.723 56.3442 36.9517 56.0828C37.1617 55.8402 37.297 55.4435 37.367 55.1495C37.367 55.1308 37.507 55.1308 37.5397 55.1308C37.6097 55.1308 37.7123 55.1495 37.7123 55.1822C37.661 55.6675 37.521 56.5682 37.437 56.7035C37.367 56.8062 37.2643 56.8948 37.0217 56.8948C36.555 56.8948 35.603 56.8435 34.9263 56.8435C34.2356 56.8435 33.405 56.8762 32.8169 56.8948C32.7983 56.8948 32.7983 56.7922 32.7983 56.7408C32.7983 56.6895 32.7983 56.5868 32.8309 56.5682C33.2136 56.5355 33.4376 56.4655 33.559 56.3955C33.6803 56.3442 33.7503 56.2042 33.7503 54.5102V53.1615C33.7503 51.4675 33.6803 51.3275 33.559 51.2761C33.4376 51.2061 33.2136 51.1548 32.8309 51.1035C32.7983 51.1035 32.7983 51.0521 32.7983 51.0008C32.7983 50.9495 32.7983 50.8281 32.8169 50.8281H35.7056C35.7056 50.8281 35.7243 50.9308 35.7243 50.9635Z" fill="#212225"/>
  <path d="M38.613 56.3628C38.8183 56.2088 39.0283 55.8262 39.271 55.2055L41.021 50.7255C41.0397 50.6928 41.231 50.6741 41.3337 50.6741C41.4364 50.6741 41.679 50.6928 41.679 50.7255L43.4944 55.3268C43.6484 55.7095 43.9284 56.2788 44.1011 56.3628C44.2411 56.4655 44.3951 56.5168 44.6704 56.5542C44.6891 56.5542 44.7031 56.6242 44.7031 56.6755C44.7031 56.7268 44.6844 56.8482 44.6704 56.8482H42.0757C42.057 56.8482 42.057 56.7268 42.057 56.6755C42.057 56.6428 42.057 56.5542 42.0757 56.5542C42.4397 56.5028 42.6824 56.4328 42.6824 56.2928C42.6824 56.1202 42.561 55.7375 42.2344 54.9442H40.0877L39.985 55.2195C39.831 55.6162 39.6584 56.0175 39.6584 56.2415C39.6584 56.4142 39.9524 56.5028 40.3677 56.5542C40.3864 56.5542 40.3864 56.6382 40.3864 56.6755C40.3864 56.7268 40.3864 56.8482 40.3677 56.8482H37.997C37.9783 56.8482 37.9783 56.7268 37.9783 56.6755C37.9783 56.6428 37.9783 56.5542 37.997 56.5542C38.2863 56.5215 38.4777 56.4655 38.613 56.3628ZM40.2417 54.4775H42.043L41.1097 52.1441L40.2417 54.4775Z" fill="#212225"/>
  <path d="M48.1984 56.4002C48.3197 56.4702 48.5111 56.5215 48.8891 56.5542C48.9078 56.5728 48.9218 56.6242 48.9218 56.6942C48.9218 56.7268 48.9031 56.8482 48.9031 56.8482H46.0144C45.9957 56.8482 45.9957 56.7268 45.9957 56.6755C45.9957 56.6242 45.9957 56.5728 46.0284 56.5542C46.4111 56.5215 46.5977 56.4655 46.7191 56.4002C46.8404 56.3488 46.9104 56.2088 46.9104 54.5148V52.4708C46.9104 51.8828 46.9104 51.3788 46.8777 51.2761C46.7891 51.2761 46.6164 51.2575 46.4111 51.2575C45.4264 51.2575 45.2351 51.3975 45.0111 51.6028C44.857 51.7428 44.7684 52.1208 44.717 52.3448C44.717 52.3635 44.6984 52.3635 44.6657 52.3635C44.5957 52.3635 44.3904 52.3308 44.3904 52.3121L44.5304 50.7534C44.5304 50.7348 44.563 50.6834 44.6004 50.6834C44.9457 50.7348 45.8137 50.8235 47.4751 50.8235C49.7571 50.8235 50.1911 50.7348 50.3638 50.6694C50.3964 50.6694 50.4338 50.7208 50.4338 50.7395C50.4338 51.1035 50.4151 51.8455 50.3451 52.3495C50.3451 52.3495 50.2051 52.3681 50.1538 52.3681C50.0838 52.3681 50.0138 52.3495 50.0138 52.3355C50.0138 52.0928 49.9624 51.7475 49.8411 51.6075C49.6684 51.4161 49.4958 51.2621 48.4551 51.2621C48.2497 51.2621 48.1284 51.2808 48.0397 51.2808C48.0071 51.3835 47.9884 51.8875 47.9884 52.4755V54.5195C47.9931 56.2088 48.0771 56.3442 48.1984 56.4002Z" fill="#212225"/>
  <path d="M54.8952 56.4002C55.0165 56.4702 55.2079 56.5215 55.5859 56.5542C55.6045 56.5728 55.6185 56.6242 55.6185 56.6942C55.6185 56.7268 55.5999 56.8482 55.5999 56.8482H52.7112C52.6925 56.8482 52.6925 56.7268 52.6925 56.6755C52.6925 56.6242 52.6925 56.5728 52.7252 56.5542C53.1078 56.5215 53.2945 56.4655 53.4158 56.4002C53.5372 56.3488 53.6072 56.2088 53.6072 54.5148V52.4708C53.6072 51.8828 53.6072 51.3788 53.5745 51.2761C53.4858 51.2761 53.3132 51.2575 53.1078 51.2575C52.1232 51.2575 51.9318 51.3975 51.7078 51.6028C51.5538 51.7428 51.4652 52.1208 51.4138 52.3448C51.4138 52.3635 51.3952 52.3635 51.3625 52.3635C51.2925 52.3635 51.0872 52.3308 51.0872 52.3121L51.2272 50.7534C51.2272 50.7348 51.2598 50.6834 51.2972 50.6834C51.6425 50.7348 52.5105 50.8235 54.1719 50.8235C56.4539 50.8235 56.8879 50.7348 57.0605 50.6694C57.0932 50.6694 57.1305 50.7208 57.1305 50.7395C57.1305 51.1035 57.1119 51.8455 57.0419 52.3495C57.0419 52.3495 56.9019 52.3681 56.8505 52.3681C56.7805 52.3681 56.7105 52.3495 56.7105 52.3355C56.7105 52.0928 56.6592 51.7475 56.5379 51.6075C56.3652 51.4161 56.1925 51.2621 55.1519 51.2621C54.9465 51.2621 54.8252 51.2808 54.7365 51.2808C54.7039 51.3835 54.6852 51.8875 54.6852 52.4755V54.5195C54.6852 56.2088 54.7739 56.3442 54.8952 56.4002Z" fill="#212225"/>
  <path d="M59.9445 52.5548V53.4555H60.6212C61.5359 53.4555 61.6572 53.2128 61.7132 52.8861C61.7132 52.8675 61.7832 52.8675 61.8346 52.8675C61.8859 52.8675 61.9886 52.8675 61.9886 52.8861C61.9699 53.1475 61.9372 54.3562 61.9372 54.5988C61.9372 54.6175 61.8346 54.6315 61.7832 54.6315C61.7132 54.6315 61.6619 54.6128 61.6619 54.5988C61.6619 54.4262 61.6292 54.1835 61.5219 54.0948C61.4379 54.0248 61.2979 53.9222 60.6072 53.9222H59.9492V54.9255C59.9492 55.7375 60.0379 56.1015 60.1592 56.2415C60.2805 56.3442 60.4019 56.4142 60.9712 56.4142C61.5592 56.4142 61.8906 56.2742 62.0632 56.0828C62.2032 55.9428 62.3059 55.6488 62.3759 55.3408C62.3759 55.3222 62.4972 55.3222 62.5159 55.3222C62.5672 55.3222 62.6559 55.3548 62.6372 55.3735C62.6046 55.8588 62.5159 56.5682 62.4459 56.7035C62.3759 56.8062 62.3246 56.8948 62.0819 56.8948C61.4939 56.8948 60.8732 56.8435 59.6085 56.8435C59.2632 56.8435 58.1012 56.8762 57.9472 56.8762C57.9285 56.8762 57.9285 56.7548 57.9285 56.7035C57.9285 56.6522 57.9285 56.5822 57.9612 56.5635C58.3439 56.5308 58.5679 56.4608 58.6892 56.3908C58.8105 56.3395 58.8805 56.1995 58.8805 54.5055V53.1568C58.8805 51.4628 58.8105 51.3228 58.6892 51.2715C58.5679 51.2015 58.3439 51.1315 57.9612 51.0801C57.9285 51.0801 57.9285 51.0101 57.9285 50.9588C57.9285 50.9075 57.9472 50.7675 57.9612 50.7675H58.1852C58.8245 50.7675 59.4639 50.8188 60.1079 50.8188C60.5746 50.8188 61.6292 50.7675 62.2032 50.7675C62.2732 50.7675 62.3572 50.7861 62.3759 50.8375C62.3432 51.1501 62.3246 51.6681 62.2732 52.1535C62.2732 52.1721 62.1332 52.1861 62.0819 52.1861C62.0119 52.1861 61.9419 52.1675 61.9419 52.1348C61.9419 51.8921 61.8906 51.6308 61.7506 51.4768C61.5966 51.3228 61.3166 51.2528 60.6446 51.2528C60.2619 51.2528 60.0892 51.2715 59.9865 51.2715C59.9445 51.3788 59.9445 52.0555 59.9445 52.5548Z" fill="#212225"/>
  <path d="M64.5506 52.9048C64.5506 51.4675 64.4479 51.3135 64.3266 51.2621C64.2052 51.1921 64.0512 51.1408 63.6686 51.0895C63.6359 51.0895 63.6359 51.0381 63.6359 50.9868C63.6359 50.9355 63.6359 50.7955 63.6546 50.7955H63.7759C64.0186 50.7955 64.8819 50.8281 65.1106 50.8281C66.0112 50.8281 66.2353 50.7768 66.6833 50.7768C68.0319 50.7768 68.7926 51.5748 68.7926 52.3355C68.7926 53.0775 68.2559 53.7915 67.5653 54.0855C68.8439 55.9382 69.4879 56.4888 70.2299 56.4888H70.5006C70.5193 56.4702 70.6033 56.7828 70.6033 56.8155C70.3933 56.8482 70.048 56.8668 69.8239 56.8668C69.2359 56.8668 68.6666 56.7782 68.2839 56.5402C67.7986 56.2088 67.2619 55.6068 66.5012 54.3422H66.1559C65.9319 54.3422 65.8806 54.3422 65.6192 54.3235V54.8088C65.6192 56.2088 65.7079 56.3488 65.8246 56.4002C65.9459 56.4702 66.1372 56.5215 66.5153 56.5542C66.5339 56.5728 66.5479 56.6242 66.5479 56.6942C66.5479 56.7268 66.5293 56.8482 66.5293 56.8482H63.6406C63.6219 56.8482 63.6219 56.7268 63.6219 56.6755C63.6219 56.6242 63.6219 56.5728 63.6546 56.5542C64.0372 56.5215 64.2239 56.4655 64.3452 56.4002C64.4666 56.3488 64.5366 56.2088 64.5366 54.8275V52.9048H64.5506ZM66.3473 51.2248C66.0159 51.2248 65.8106 51.2761 65.7779 51.3461C65.7079 51.4161 65.6239 51.8315 65.6239 53.0588C65.6239 53.6142 65.6566 53.6795 65.7126 53.7355C65.8152 53.8195 66.0066 53.8895 66.4546 53.8895C67.1639 53.8895 67.5466 53.3528 67.5466 52.5035C67.5419 51.8128 67.2666 51.2248 66.3473 51.2248Z" fill="#212225"/>
  <path d="M73.478 53.3201C73.562 53.3201 73.5807 53.3715 73.5807 53.4228C73.5807 53.4928 73.5293 53.5768 73.4967 53.6328L73.2867 54.0295C73.184 54.1835 73.114 54.2535 72.8713 54.2535C72.1433 54.2535 71.6067 54.1835 70.9487 54.1835C70.5147 54.1835 70.5333 54.3235 70.3933 54.3235C70.3047 54.3235 70.2906 54.2722 70.2906 54.2208C70.2906 54.1508 70.3933 53.9782 70.4307 53.9268L70.6033 53.6141C70.706 53.4601 70.7573 53.3901 70.986 53.3901C71.49 53.3901 72.302 53.4601 72.8527 53.4601C73.3567 53.4555 73.338 53.3201 73.478 53.3201Z" fill="#212225"/>
  <path d="M75.5687 52.9048C75.5687 51.4675 75.466 51.3135 75.3447 51.2621C75.2234 51.1921 75.0694 51.1408 74.6867 51.0895C74.654 51.0895 74.654 51.0381 74.654 50.9868C74.654 50.9355 74.654 50.7955 74.6727 50.7955H74.794C75.004 50.7955 75.6434 50.8281 76.1287 50.8281C76.8567 50.8281 77.6361 50.7768 78.0141 50.7768C80.1094 50.7768 81.3694 52.0928 81.3694 53.7728C81.3694 54.5708 80.9867 55.3455 80.3987 55.9195C79.7407 56.5588 78.9474 56.9042 77.734 56.9042C77.3887 56.9042 76.852 56.8528 76.4694 56.8528C75.83 56.8528 75.102 56.8715 74.668 56.8715C74.6493 56.8715 74.6494 56.7502 74.6494 56.6988C74.6494 56.6475 74.6494 56.5962 74.682 56.5775C75.0647 56.5448 75.2514 56.4748 75.3727 56.4048C75.494 56.3535 75.564 56.2135 75.564 54.5195V52.9048H75.5687ZM76.642 52.6948V54.7388C76.642 55.6908 76.7307 56.0688 76.8474 56.1902C77.02 56.3628 77.2114 56.4142 77.7107 56.4142C79.2181 56.4142 80.1141 55.6722 80.1141 53.9222C80.1141 52.5035 79.3161 51.2388 77.776 51.2388C77.048 51.2388 76.8427 51.3415 76.7727 51.4301C76.7307 51.5001 76.642 51.7615 76.642 52.6948Z" fill="#212225"/>
  <path d="M82.1254 56.3628C82.3354 56.2088 82.5408 55.8262 82.7834 55.2055L84.5335 50.7255C84.5521 50.6928 84.7388 50.6741 84.8461 50.6741C84.9535 50.6741 85.1915 50.6928 85.1915 50.7255L87.0068 55.3268C87.1608 55.7095 87.4408 56.2788 87.6135 56.3628C87.7535 56.4655 87.9075 56.5168 88.1828 56.5542C88.2015 56.5542 88.2155 56.6242 88.2155 56.6755C88.2155 56.7268 88.1968 56.8482 88.1828 56.8482H85.5881C85.5695 56.8482 85.5695 56.7268 85.5695 56.6755C85.5695 56.6428 85.5695 56.5542 85.5881 56.5542C85.9521 56.5028 86.1948 56.4328 86.1948 56.2928C86.1948 56.1202 86.0735 55.7375 85.7468 54.9442H83.6001L83.4974 55.2195C83.3434 55.6162 83.1661 56.0175 83.1661 56.2415C83.1661 56.4142 83.4601 56.5028 83.8754 56.5542C83.8941 56.5542 83.8941 56.6382 83.8941 56.6755C83.8941 56.7268 83.8941 56.8482 83.8754 56.8482H81.5048C81.4861 56.8482 81.4861 56.7268 81.4861 56.6755C81.4861 56.6428 81.4861 56.5542 81.5048 56.5542C81.7988 56.5215 81.9901 56.4655 82.1254 56.3628ZM83.7541 54.4775H85.5555L84.6221 52.1441L83.7541 54.4775Z" fill="#212225"/>
  <path d="M90.1895 54.5475V54.3422C89.9655 53.9595 89.6528 53.4415 89.4475 53.1288L88.9108 52.3168C88.3042 51.3835 88.1502 51.2808 87.9775 51.2108C87.8235 51.1595 87.6648 51.1221 87.3895 51.1081C87.3708 51.1081 87.3568 51.0055 87.3568 50.9541C87.3568 50.9028 87.3755 50.8328 87.3895 50.8328H89.9515C89.9702 50.8328 89.9842 50.8841 89.9842 50.9541C89.9842 51.0055 89.9655 51.1081 89.9515 51.1081C89.7462 51.1268 89.5362 51.1268 89.5362 51.2295C89.5362 51.3181 89.6248 51.4721 90.0915 52.2328L90.9548 53.6328L91.8555 52.2468C92.2195 51.6775 92.3222 51.4488 92.3222 51.3135C92.3222 51.2621 92.3035 51.2248 92.2709 51.2108C92.1822 51.1595 92.0982 51.1221 91.8369 51.1081C91.8182 51.1081 91.8182 51.0568 91.8182 51.0055C91.8182 50.9355 91.8182 50.8328 91.8369 50.8328H93.8109C93.8295 50.8328 93.8295 50.9355 93.8295 50.9868C93.8295 51.0381 93.8295 51.1081 93.8109 51.1081C93.5355 51.1268 93.4469 51.1595 93.3069 51.2108C93.0642 51.3321 92.8915 51.5421 92.3922 52.3168L91.2675 54.0668V54.5148C91.2675 56.2088 91.3562 56.3488 91.4775 56.4002C91.5989 56.4702 91.7902 56.5215 92.1682 56.5542C92.1869 56.5728 92.2009 56.6242 92.2009 56.6942C92.2009 56.7269 92.1822 56.8482 92.1822 56.8482H89.2562C89.2375 56.8482 89.2375 56.7269 89.2375 56.6755C89.2375 56.6242 89.2375 56.5728 89.2702 56.5542C89.6528 56.5215 89.8768 56.4655 89.9982 56.4002C90.1195 56.3442 90.1895 56.2415 90.1895 54.5475Z" fill="#212225"/>
  <path d="M98.2675 56.9368C97.3669 56.9368 96.6062 56.4888 96.5875 56.3815C96.5549 56.2088 96.5362 55.9848 96.5362 55.7235C96.5362 55.4995 96.5549 55.0655 96.5689 54.8415C96.5689 54.8228 96.6575 54.8088 96.7229 54.8088C96.7742 54.8088 96.8769 54.8275 96.8769 54.8415C96.9095 55.2055 97.0495 55.6395 97.1895 55.8448C97.4649 56.2088 97.7962 56.4655 98.3469 56.4655C98.9162 56.4655 99.3829 56.1202 99.3829 55.4808C99.3829 54.1135 96.6855 53.9082 96.6855 52.3681C96.6855 51.4161 97.4975 50.7395 98.7109 50.7395C99.4529 50.7395 99.8029 50.9121 100.167 50.9121C100.2 50.9121 100.237 50.9308 100.237 50.9448C100.218 51.1175 100.218 51.3088 100.218 51.5328V52.3448C100.218 52.3635 100.13 52.3775 100.078 52.3775C100.027 52.3775 99.8869 52.3588 99.8869 52.3448C99.8682 52.0508 99.7329 51.6868 99.5742 51.5328C99.3642 51.3228 98.9162 51.2015 98.6222 51.2015C98.2395 51.2015 97.7915 51.4628 97.7915 52.0321C97.7915 53.1895 100.489 53.6048 100.489 55.1308C100.503 56.2928 99.5509 56.9368 98.2675 56.9368Z" fill="#212225"/>
  <path d="M101.52 56.3628C101.726 56.2088 101.936 55.8262 102.178 55.2055L103.928 50.7255C103.947 50.6928 104.138 50.6741 104.241 50.6741C104.344 50.6741 104.586 50.6928 104.586 50.7255L106.402 55.3268C106.556 55.7095 106.836 56.2788 107.008 56.3628C107.148 56.4655 107.302 56.5168 107.578 56.5542C107.596 56.5542 107.61 56.6242 107.61 56.6755C107.61 56.7268 107.592 56.8482 107.578 56.8482H104.983C104.964 56.8482 104.964 56.7268 104.964 56.6755C104.964 56.6428 104.964 56.5542 104.983 56.5542C105.347 56.5028 105.59 56.4328 105.59 56.2928C105.59 56.1202 105.468 55.7375 105.142 54.9442H102.995L102.892 55.2195C102.738 55.6162 102.566 56.0175 102.566 56.2415C102.566 56.4142 102.86 56.5028 103.275 56.5542C103.294 56.5542 103.294 56.6382 103.294 56.6755C103.294 56.7268 103.294 56.8482 103.275 56.8482H100.904C100.886 56.8482 100.886 56.7268 100.886 56.6755C100.886 56.6428 100.886 56.5542 100.904 56.5542C101.194 56.5215 101.385 56.4655 101.52 56.3628ZM103.149 54.4775H104.95L104.017 52.1441L103.149 54.4775Z" fill="#212225"/>
  <path d="M109.93 54.5102C109.93 56.2042 110.018 56.3442 110.135 56.3955C110.256 56.4655 110.448 56.5168 110.826 56.5495C110.844 56.5682 110.858 56.6195 110.858 56.6895C110.858 56.7222 110.84 56.8435 110.84 56.8435H107.914C107.895 56.8435 107.895 56.7222 107.895 56.6708C107.895 56.6195 107.895 56.5682 107.928 56.5495C108.31 56.5168 108.534 56.4608 108.656 56.3955C108.777 56.3442 108.847 56.2042 108.847 54.5102V53.1615C108.847 51.4675 108.744 51.3275 108.623 51.2761C108.502 51.2061 108.31 51.1548 107.932 51.1035C107.9 51.1035 107.9 51.0521 107.9 51.0008C107.9 50.9495 107.9 50.8281 107.918 50.8281H110.844C110.844 50.8281 110.863 50.9308 110.863 50.9681C110.863 51.0195 110.844 51.1081 110.83 51.1081C110.448 51.1595 110.261 51.2108 110.14 51.2808C110.018 51.3321 109.934 51.4721 109.934 53.1661V54.5102H109.93Z" fill="#212225"/>
  <path d="M118.25 51.2761C118.162 51.3088 118.045 51.4675 118.045 52.3821V54.5102C118.045 55.2895 118.045 56.1202 118.096 56.8482C118.096 56.8808 117.835 56.9182 117.751 56.9182C117.681 56.9182 117.611 56.8995 117.597 56.8855L113.168 52.5781L113.201 55.2755C113.22 56.2788 113.355 56.3675 113.444 56.4002C113.565 56.4702 113.756 56.5215 114.134 56.5542C114.153 56.5728 114.167 56.6242 114.167 56.6942C114.167 56.7268 114.148 56.8482 114.148 56.8482H111.638C111.619 56.8482 111.619 56.7268 111.619 56.6755C111.619 56.6242 111.619 56.5728 111.652 56.5542C112.034 56.5215 112.221 56.4655 112.342 56.4002C112.431 56.3675 112.548 56.2088 112.548 55.2942V53.1661C112.548 52.3868 112.464 51.0194 112.464 50.7954C112.464 50.7628 112.515 50.7254 112.669 50.7254C112.739 50.7254 112.912 50.7441 112.912 50.7581L117.429 55.2242L117.396 52.4055C117.378 51.4021 117.242 51.3135 117.154 51.2808C117.032 51.2108 116.841 51.1595 116.463 51.1268C116.444 51.1081 116.43 51.0568 116.43 50.9868C116.43 50.9541 116.449 50.8328 116.449 50.8328H118.96C118.978 50.8328 118.978 50.9541 118.978 51.0055C118.978 51.0568 118.978 51.1081 118.946 51.1268C118.563 51.1548 118.372 51.2061 118.25 51.2761Z" fill="#212225"/>
  <path d="M123.356 56.4002C123.477 56.4702 123.668 56.5215 124.046 56.5542C124.065 56.5728 124.079 56.6242 124.079 56.6942C124.079 56.7268 124.06 56.8482 124.06 56.8482H121.172C121.153 56.8482 121.153 56.7268 121.153 56.6755C121.153 56.6242 121.153 56.5728 121.186 56.5542C121.568 56.5215 121.755 56.4655 121.876 56.4002C121.998 56.3488 122.068 56.2088 122.068 54.5148V52.4708C122.068 51.8828 122.068 51.3788 122.035 51.2761C121.951 51.2761 121.774 51.2575 121.568 51.2575C120.584 51.2575 120.392 51.3975 120.168 51.6028C120.014 51.7428 119.926 52.1208 119.874 52.3448C119.874 52.3635 119.856 52.3635 119.823 52.3635C119.753 52.3635 119.548 52.3308 119.548 52.3121L119.688 50.7534C119.688 50.7348 119.72 50.6834 119.758 50.6834C120.103 50.7348 120.966 50.8235 122.628 50.8235C124.91 50.8235 125.344 50.7348 125.517 50.6694C125.549 50.6694 125.587 50.7208 125.587 50.7395C125.587 51.1035 125.568 51.8455 125.498 52.3495C125.498 52.3495 125.358 52.3681 125.307 52.3681C125.237 52.3681 125.167 52.3495 125.167 52.3355C125.167 52.0928 125.115 51.7475 124.994 51.6075C124.821 51.4161 124.648 51.2621 123.608 51.2621C123.398 51.2621 123.276 51.2808 123.192 51.2808C123.16 51.3835 123.141 51.8875 123.141 52.4755V54.5195C123.15 56.2088 123.234 56.3442 123.356 56.4002Z" fill="#212225"/>
  <path d="M128.027 56.9368C127.127 56.9368 126.366 56.4888 126.347 56.3815C126.315 56.2088 126.296 55.9848 126.296 55.7235C126.296 55.4995 126.315 55.0655 126.329 54.8415C126.329 54.8228 126.417 54.8088 126.483 54.8088C126.534 54.8088 126.637 54.8275 126.637 54.8415C126.669 55.2055 126.809 55.6395 126.949 55.8448C127.225 56.2088 127.556 56.4655 128.107 56.4655C128.676 56.4655 129.143 56.1202 129.143 55.4808C129.143 54.1135 126.445 53.9082 126.445 52.3681C126.445 51.4161 127.257 50.7395 128.471 50.7395C129.213 50.7395 129.563 50.9121 129.922 50.9121C129.955 50.9121 129.992 50.9308 129.992 50.9448C129.973 51.1175 129.973 51.3088 129.973 51.5328V52.3448C129.973 52.3635 129.885 52.3775 129.833 52.3775C129.782 52.3775 129.642 52.3588 129.642 52.3448C129.623 52.0508 129.488 51.6868 129.329 51.5328C129.124 51.3228 128.671 51.2015 128.377 51.2015C127.995 51.2015 127.547 51.4628 127.547 52.0321C127.547 53.1895 130.244 53.6048 130.244 55.1308C130.258 56.2928 129.306 56.9368 128.027 56.9368Z" fill="#212225"/>
  <path d="M109.239 44.1547C109.015 44.0241 108.847 43.5247 108.847 40.1414V37.43C108.847 34.0466 109.015 33.5473 109.239 33.4166C109.463 33.286 109.925 33.23 110.672 33.1553C110.709 33.1366 110.728 33.0246 110.728 32.9313C110.728 32.838 110.709 32.7633 110.69 32.7633H105.468C105.431 32.7633 105.412 32.838 105.412 32.9313C105.412 33.0246 105.431 33.1366 105.487 33.1553C106.21 33.23 106.677 33.286 106.901 33.4166C107.144 33.5473 107.293 34.0466 107.293 37.43V40.1414C107.293 43.5247 107.144 44.0241 106.901 44.1547C106.803 44.2107 106.654 44.2527 106.462 44.2901C106.136 44.3461 106.014 44.3414 105.767 44.3414C104.465 44.3414 103.107 42.9087 100.638 39.194C101.94 38.396 102.869 37.1687 102.869 35.68C102.869 34.266 101.474 32.726 98.7063 32.726C97.8709 32.726 97.1242 32.7633 96.4382 32.7633C95.7522 32.7633 94.8049 32.726 93.9836 32.726C93.9462 32.726 93.9276 32.8193 93.9276 32.9126C93.9276 33.006 93.9462 33.118 94.0022 33.118C94.7256 33.1926 95.0429 33.2486 95.2669 33.3793C95.5096 33.51 95.6589 34.0466 95.6589 37.43V40.1414C95.6589 43.5247 95.5096 44.0241 95.2669 44.1547C95.0429 44.2854 94.7302 44.3414 94.0022 44.4161C93.9462 44.4347 93.9276 44.5281 93.9276 44.6214C93.9276 44.7147 93.9462 44.8081 93.9836 44.8081H99.2429C99.2616 44.8081 99.2803 44.7334 99.2803 44.6401C99.2803 44.5467 99.2616 44.4347 99.2243 44.4161C98.4076 44.3227 97.8476 44.2854 97.6096 44.1547C97.3856 44.0241 97.2176 43.5247 97.2176 40.1414V39.656C97.6283 39.6747 97.9409 39.6933 98.2956 39.6933C98.5569 39.6933 98.8323 39.6747 99.2056 39.6747C100.713 42.2227 101.716 43.5574 102.664 44.2107C103.387 44.6961 104.101 44.8081 105.235 44.8081C105.664 44.8081 106.005 44.8081 106.416 44.8081H110.695C110.714 44.8081 110.732 44.7334 110.732 44.6401C110.732 44.5467 110.714 44.4347 110.676 44.4161C109.925 44.3367 109.458 44.2807 109.239 44.1547ZM98.8649 39.0213C97.9736 39.0213 97.4509 38.9467 97.3203 38.816C97.2456 38.7413 97.2082 38.536 97.2082 37.4207C97.2082 34.728 97.3203 33.6313 97.3949 33.5193C97.4696 33.4446 98.0249 33.3513 98.6596 33.3513C100.442 33.3513 101.096 34.6346 101.096 36.4173C101.096 37.8733 100.391 39.0213 98.8649 39.0213Z" fill="#212225"/>
</svg>