<svg version="1.1" id="Layer_1" xmlns="http://www.w3.org/2000/svg" xmlns:xlink="http://www.w3.org/1999/xlink" x="0px" y="0px"
	 width="100%" viewBox="0 0 848 672" enable-background="new 0 0 848 672" xml:space="preserve">
<path fill="white" opacity="1.000000" stroke="none" 
	d="
M486.983948,530.293213 
	C488.864746,532.992676 487.970276,534.614807 485.368896,534.718994 
	C474.847046,535.140259 464.562347,537.030396 454.300537,539.191223 
	C453.058929,539.452637 451.531036,539.535278 450.831970,537.972168 
	C450.142944,536.431519 450.661621,535.012390 451.607239,533.767517 
	C453.921021,530.721619 456.689148,527.943115 458.555664,524.649658 
	C464.524994,514.116394 467.347046,502.376495 470.343353,490.809875 
	C478.015930,461.191040 485.187378,431.442688 492.753235,401.795654 
	C494.185303,396.184021 494.351379,391.331451 489.419464,387.342834 
	C488.288239,386.427948 487.280640,385.175262 487.757874,383.435669 
	C488.468628,382.322754 489.635162,382.023315 490.788635,381.973114 
	C498.839325,381.622925 506.545685,379.488434 514.287964,377.531250 
	C516.069763,377.080811 518.089844,376.285980 519.479797,377.859863 
	C521.114258,379.710632 519.202332,381.288940 518.274597,382.691742 
	C515.219116,387.311859 514.711853,392.187714 515.965454,397.501190 
	C521.621704,421.475739 528.600281,445.069427 535.784058,468.623169 
	C539.568481,481.031281 542.947327,493.568665 546.939270,505.921600 
	C548.409302,510.470764 550.739807,514.361145 554.938416,517.407837 
	C559.821045,512.582214 561.634521,506.799713 561.662231,500.260742 
	C561.737854,482.439056 560.529053,464.637054 561.019714,446.804871 
	C561.491638,429.657104 561.502930,412.495819 562.062744,395.351776 
	C562.313904,387.661438 561.248596,380.803284 555.072449,375.461334 
	C553.628296,374.212280 552.212524,372.622864 552.114929,369.343018 
	C564.911621,368.410309 577.608093,366.180817 590.123962,364.425049 
	C591.620850,367.326965 589.922913,368.614716 588.888489,369.983551 
	C585.023987,375.097504 583.162781,380.878815 583.163330,387.216827 
	C583.166626,425.366638 583.243103,463.516449 583.247864,501.666260 
	C583.248474,506.543488 585.351624,510.273621 588.852905,513.437744 
	C589.905457,514.388916 591.543030,515.242371 590.664246,517.096008 
	C589.937866,518.628052 588.353943,519.069153 586.859924,519.055176 
	C576.035461,518.954346 565.411926,521.059082 554.694763,522.065247 
	C545.272766,522.949829 536.026123,525.329834 526.832092,527.683411 
	C525.112305,528.123718 523.400146,529.042603 521.545837,528.089905 
	C520.296509,525.887634 521.594360,524.111755 522.653809,522.546570 
	C526.473206,516.903748 526.659790,511.085999 524.014160,504.981262 
	C523.486084,503.762665 523.107483,502.477234 522.693359,501.211731 
	C519.898499,492.671631 519.900513,492.657654 510.706726,493.287506 
	C509.049744,493.401031 507.375702,493.542603 505.757294,493.892212 
	C500.279053,495.075714 492.350800,493.632233 489.823578,497.801910 
	C485.664337,504.664215 484.334808,513.343201 482.382874,521.394653 
	C481.531464,524.906616 484.606964,527.448303 486.983948,530.293213 
M507.630829,451.829590 
	C506.489746,448.634735 505.348633,445.439880 503.753082,440.972534 
	C500.179932,451.698242 497.893036,461.294525 496.311066,471.065521 
	C495.918762,473.488739 496.663879,475.024445 499.596008,474.259674 
	C502.800415,473.423798 506.017151,472.626373 509.251221,471.915619 
	C512.145264,471.279572 513.052490,469.791901 512.106262,466.881714 
	C510.570404,462.157867 509.272919,457.356537 507.630829,451.829590 
z"/>
<path fill="white" opacity="1.000000" stroke="none" 
	d="
M604.838623,447.999512 
	C604.864014,426.668121 604.758301,405.835358 604.986206,385.006256 
	C605.056213,378.612610 603.539612,373.224792 598.738464,368.843781 
	C597.307800,367.538269 595.465637,365.918701 596.511597,363.737000 
	C597.397339,361.889557 599.699951,361.911804 601.441345,362.053558 
	C612.092224,362.920563 622.266235,359.843872 632.568970,358.198090 
	C652.113708,355.075897 678.276001,364.820160 685.401733,392.009949 
	C690.169678,410.202911 690.815369,428.418182 689.701904,446.968689 
	C689.007935,458.530029 685.599182,469.083679 680.403015,479.323639 
	C672.220398,495.449158 658.576843,504.008636 641.620056,508.038940 
	C627.706970,511.345825 613.287537,512.236572 599.600891,516.685120 
	C598.478271,517.049988 597.232910,517.418579 596.363708,516.319580 
	C595.399658,515.100647 595.895691,513.803955 596.587830,512.598145 
	C596.753601,512.309326 596.879272,511.971924 597.112610,511.751160 
	C605.402283,503.910065 605.455200,493.870056 605.088135,483.492065 
	C604.675964,471.839508 604.892700,460.164703 604.838623,447.999512 
M639.700928,487.258820 
	C653.062378,483.632019 660.028076,473.804352 663.589478,461.401550 
	C669.472229,440.914032 668.424988,420.153595 663.295105,399.773834 
	C659.684875,385.431427 645.812439,376.869720 632.534302,379.739746 
	C628.421082,380.628845 627.166321,381.897491 627.190552,386.097382 
	C627.366577,416.730408 627.280029,447.364990 627.263855,477.999084 
	C627.257507,489.992645 627.242920,489.992645 639.700928,487.258820 
z"/>
<path fill="white" opacity="1.000000" stroke="none" 
	d="
M273.243835,514.951599 
	C271.584290,530.747498 267.171326,545.059509 257.498260,557.382996 
	C251.206055,565.399292 243.409195,571.590576 233.915253,575.284302 
	C224.440521,578.970337 214.552216,581.339478 204.520477,583.018799 
	C198.106613,584.092590 191.788910,585.539734 185.591522,587.507874 
	C183.843460,588.062988 182.106293,588.642700 180.477890,587.575012 
	C179.555466,585.579346 180.337753,583.928284 181.495865,582.826233 
	C188.239990,576.408752 188.512115,568.029053 188.537048,559.681580 
	C188.637543,526.028625 188.619431,492.375183 188.582947,458.721985 
	C188.576248,452.553375 187.418762,446.798126 181.840714,442.887970 
	C180.360764,441.850555 179.225372,440.316467 179.137466,438.164764 
	C180.854874,435.874939 183.611618,436.098419 185.920212,436.110626 
	C197.487808,436.171753 208.661667,433.099152 220.090759,432.103943 
	C230.002991,431.240814 239.672440,431.464569 248.947021,435.766022 
	C262.857605,442.217621 268.388611,454.651123 271.093811,468.299133 
	C274.103424,483.482727 275.196533,498.975983 273.243835,514.951599 
M210.375504,496.499847 
	C210.375504,517.381165 210.375504,538.262451 210.375504,559.159424 
	C229.482819,558.557434 243.713287,546.280579 247.713333,528.103577 
	C250.648422,514.765869 249.812836,501.306244 249.850586,487.853241 
	C249.866730,482.098999 248.567261,476.654388 246.512024,471.337006 
	C240.947815,456.941040 230.169891,450.922241 214.965271,453.518829 
	C211.594315,454.094543 210.178741,455.413818 210.245728,459.050995 
	C210.469376,471.197327 210.358841,483.349762 210.375504,496.499847 
z"/>
<path fill="white" opacity="1.000000" stroke="none" 
	d="
M298.511841,567.558472 
	C292.493195,569.107300 286.882202,570.559082 281.223114,572.023254 
	C279.269562,568.946411 281.179535,566.818237 282.591583,565.066406 
	C287.171997,559.383606 288.216705,552.913086 288.150482,545.862976 
	C287.959564,525.533203 287.691986,505.193726 288.119812,484.872040 
	C288.442444,469.546844 288.882629,454.250336 288.146759,438.922882 
	C287.873535,433.232025 286.231628,428.566406 281.875641,424.832733 
	C280.406708,423.573669 278.360107,422.095642 279.174194,419.898224 
	C280.089050,417.428772 282.773254,417.998352 284.849274,417.805298 
	C305.908386,415.846985 326.896423,413.416840 347.292358,407.510956 
	C351.199127,406.379730 354.890289,404.503967 359.532166,402.627594 
	C359.354401,416.334900 358.818604,429.313477 360.271088,442.085144 
	C356.893799,443.427094 355.589844,441.277008 354.371033,439.700562 
	C347.806915,431.210480 339.601562,429.197449 329.561951,432.576630 
	C324.689453,434.216644 319.584442,435.202850 314.542297,436.288116 
	C311.418915,436.960419 310.169464,438.524658 310.201660,441.809540 
	C310.315918,453.473511 310.337799,465.143616 310.061005,476.803467 
	C309.951965,481.395233 311.990295,482.298370 315.842346,481.524384 
	C318.938080,480.902374 322.017548,480.149231 325.141022,479.726440 
	C330.843018,478.954559 335.152130,476.487427 337.504120,470.952026 
	C338.307404,469.061432 339.253235,466.461090 341.994293,467.066986 
	C345.118988,467.757629 344.363434,470.601196 344.360565,472.865448 
	C344.348602,482.361572 344.313812,491.857727 344.305695,501.353851 
	C344.304260,503.035889 344.498322,504.843170 342.583496,505.644348 
	C341.028168,506.295197 340.062439,504.994751 339.224823,504.050690 
	C334.818420,499.084015 329.592773,498.531708 323.324585,499.956085 
	C310.227142,502.932343 310.162323,502.697754 310.115234,516.050598 
	C310.087616,523.883057 310.153259,531.716187 310.074188,539.547974 
	C310.045044,542.436218 310.965637,544.080078 314.142792,543.554749 
	C320.705200,542.469604 327.250610,541.270752 333.829651,540.299072 
	C345.201630,538.619385 352.404602,531.394104 358.317413,522.313171 
	C359.711151,520.172546 360.973083,517.667664 365.611969,517.808655 
	C360.342133,532.725708 361.126801,547.812927 361.360626,562.555359 
	C360.590393,562.989502 360.210999,563.350220 360.054016,563.270874 
	C346.298157,556.318481 332.677704,562.258606 319.057404,563.819214 
	C312.294464,564.594116 305.629089,566.220337 298.511841,567.558472 
z"/>
<path fill="white" opacity="1.000000" stroke="none" 
	d="
M706.686157,465.989380 
	C706.710022,433.347260 706.657593,401.202484 706.828064,369.058868 
	C706.859253,363.178955 705.346802,358.320648 700.977600,354.302490 
	C699.061401,352.540192 697.009827,350.607391 697.848877,347.518372 
	C724.824890,344.987549 752.392273,346.146118 778.493591,332.804169 
	C777.834473,347.984283 777.624084,363.113342 776.027283,378.728424 
	C771.967407,377.681610 771.027222,374.940735 769.661133,372.891968 
	C764.696228,365.446014 758.797424,361.250580 749.130798,363.966766 
	C743.918518,365.431335 738.367554,365.974701 732.981934,367.027496 
	C730.174866,367.576172 729.005249,368.641174 728.981201,371.554413 
	C728.861450,386.032166 728.658508,400.510132 728.332886,414.984619 
	C728.247375,418.782288 729.847717,420.077850 733.437744,419.691101 
	C737.735046,419.228180 742.074585,419.094879 746.346619,418.477844 
	C750.309204,417.905548 753.551636,416.037384 755.242249,412.074951 
	C755.958069,410.397247 756.923523,408.821381 757.833496,407.232391 
	C758.790894,405.560760 760.296204,405.073303 762.104492,405.526855 
	C763.898865,405.976959 764.212646,407.396820 764.326904,408.992218 
	C764.627258,413.184540 763.585815,417.278656 763.441040,421.417023 
	C763.202454,428.235107 763.395752,435.068268 763.405579,441.895081 
	C763.407654,443.350525 763.986450,445.135071 762.281616,445.909973 
	C760.625549,446.662720 759.236511,445.429840 758.509949,444.186920 
	C754.244324,436.889832 747.807434,437.184937 740.672485,438.389984 
	C728.426270,440.458313 728.376587,440.265320 728.301575,452.822937 
	C728.265808,458.818390 728.375671,464.815247 728.287964,470.809540 
	C728.244263,473.797485 729.455566,475.126190 732.473389,474.838318 
	C741.075989,474.017578 749.738281,473.606812 758.268188,472.315094 
	C764.169739,471.421417 769.169495,468.283508 772.308289,462.838989 
	C772.640747,462.262360 772.963928,461.669464 773.376099,461.151550 
	C775.345459,458.677124 776.811035,454.220917 780.791687,456.307190 
	C784.349915,458.172089 781.445374,461.637543 780.663574,464.330414 
	C778.261536,472.604492 777.859375,481.023987 778.727722,489.532776 
	C779.014404,492.341400 779.359070,495.115997 778.685303,497.586670 
	C776.942566,498.896027 775.591370,498.117950 774.705994,497.296783 
	C767.301147,490.429047 758.275024,491.444550 749.605286,492.653381 
	C733.999634,494.829193 718.039062,495.075897 702.978760,500.528168 
	C701.713806,500.986084 700.279724,501.373016 699.298950,500.084564 
	C698.417175,498.926178 698.725159,497.546753 699.217957,496.264923 
	C699.396423,495.800537 699.576843,495.305786 699.882080,494.925842 
	C706.637573,486.516022 707.192566,476.629700 706.686157,465.989380 
z"/>
<path fill="white" opacity="1.000000" stroke="none" 
	d="
M88.339142,599.380737 
	C81.984772,600.067139 76.588448,603.996033 70.349396,603.010437 
	C69.627724,599.620972 71.498032,597.939941 73.025574,596.308411 
	C77.831657,591.175476 80.601112,585.129395 82.333122,578.353638 
	C90.412796,546.745728 99.305710,515.361450 108.585159,484.084930 
	C110.383102,478.024933 111.834251,471.860687 113.385605,465.729401 
	C114.687866,460.582642 114.100777,456.221832 108.692482,453.494019 
	C106.876541,452.578094 104.503548,451.199829 105.100067,448.644287 
	C105.643616,446.315704 108.280380,446.409119 110.132568,446.094299 
	C119.154480,444.561035 128.201324,443.165833 137.259598,441.862396 
	C139.137405,441.592194 141.653076,440.964996 142.565399,443.332062 
	C143.363480,445.402710 141.346222,446.801758 139.866043,447.642944 
	C133.506073,451.257477 134.213669,456.396027 135.848007,462.314667 
	C143.648254,490.562805 152.939255,518.344482 161.781189,546.267090 
	C163.992188,553.249390 166.295837,560.204895 168.353363,567.232300 
	C170.051620,573.032593 171.895554,578.492310 176.939331,582.587463 
	C180.381821,585.382385 179.547653,588.860291 175.754913,588.946899 
	C164.999023,589.192505 154.698761,592.091003 144.179459,593.674133 
	C143.183182,593.824036 142.179825,593.895325 141.112030,592.639038 
	C141.490005,590.075745 143.802246,588.467163 145.410095,586.529541 
	C149.026443,582.171631 150.075409,577.621826 148.000626,572.163391 
	C145.872940,566.565735 144.148041,560.805969 142.455048,555.055847 
	C141.591232,552.121948 139.937332,551.034912 136.963089,551.387085 
	C128.203583,552.424438 119.435303,553.389587 110.664886,554.331116 
	C108.775063,554.533997 107.628662,555.355408 107.146431,557.254211 
	C105.262878,564.670471 103.216904,572.046814 101.431557,579.486084 
	C100.443398,583.603638 103.046600,586.360962 105.632362,589.082397 
	C106.944962,590.463806 109.184921,591.640259 108.454552,593.972656 
	C107.683693,596.434204 105.048157,596.490540 103.028954,596.905334 
	C98.305420,597.875793 93.517273,598.531799 88.339142,599.380737 
M121.781860,530.885986 
	C125.529762,530.518982 129.323456,530.388794 133.389359,528.816345 
	C130.375031,520.239563 129.153870,511.349335 124.931351,502.687653 
	C119.910759,511.954834 117.800461,521.491516 115.461555,530.844727 
	C117.755180,532.062500 119.347198,531.248535 121.781860,530.885986 
z"/>
<path fill="white" opacity="1.000000" stroke="none" 
	d="
M634.000000,641.885315 
	C677.663086,641.811462 720.826233,641.750549 763.989197,641.639038 
	C767.646301,641.629578 771.303040,641.126343 774.958923,641.139526 
	C777.930481,641.150269 780.967773,641.885620 781.013306,645.610413 
	C781.054016,648.936401 778.630310,650.622925 775.545166,651.080627 
	C773.581177,651.371948 771.555908,651.301514 769.557922,651.305176 
	C743.893372,651.352173 718.228821,651.428162 692.564331,651.410461 
	C578.086792,651.331482 463.601135,650.354248 349.134277,651.413574 
	C263.481079,652.206238 177.834534,651.831787 92.186600,652.314636 
	C90.187904,652.325928 88.171265,652.404724 86.194328,652.178345 
	C83.861679,651.911377 81.879326,650.727417 81.900200,648.147949 
	C81.921814,645.477234 83.174751,643.158203 86.135918,642.804504 
	C88.767982,642.490173 91.459732,642.646118 94.125160,642.645020 
	C157.953094,642.619446 221.787613,643.172974 285.607361,642.439026 
	C369.594391,641.473206 453.578674,641.592834 537.559937,642.076111 
	C569.546265,642.260193 601.520325,641.193848 634.000000,641.885315 
z"/>
<path fill="white" opacity="1.000000" stroke="none" 
	d="
M373.526031,400.859985 
	C386.216949,400.578918 398.242493,397.778381 410.207214,396.660797 
	C411.992798,399.741394 410.310577,401.412689 408.896851,402.927460 
	C403.832275,408.353912 401.973999,414.689545 402.029541,422.090698 
	C402.274597,454.744690 402.228088,487.400848 402.308197,520.056152 
	C402.322998,526.093445 402.475494,526.158630 408.675781,525.338135 
	C411.807892,524.923767 414.959076,524.655640 418.095367,524.270569 
	C429.802155,522.832947 438.354004,516.679810 444.752106,506.931702 
	C446.426483,504.380615 448.237152,499.509766 451.758911,501.263397 
	C455.056427,502.905334 451.781769,506.917297 451.055573,509.765167 
	C449.051788,517.623535 449.238861,525.603516 449.243073,533.589294 
	C449.245483,538.181763 449.243469,542.774231 449.243469,546.790833 
	C446.778992,548.135437 445.471710,547.444580 444.533112,546.628601 
	C438.349854,541.253540 431.182007,541.838501 424.166016,543.689392 
	C408.404144,547.847473 391.979034,549.112854 376.563690,554.739319 
	C374.875610,555.355408 373.048004,555.863464 371.242950,554.334412 
	C371.428894,550.825684 373.958618,548.408081 375.697113,545.692200 
	C378.382782,541.496704 379.852020,537.113525 379.848755,532.083374 
	C379.829163,501.927643 379.895020,471.771790 379.992889,441.616180 
	C380.007477,437.126251 380.383392,432.638611 380.519653,428.147736 
	C380.752289,420.481232 380.058716,413.213470 373.480194,407.769135 
	C371.391327,406.040436 369.176483,403.420563 373.526031,400.859985 
z"/>
<path fill="white" opacity="1.000000" stroke="none" 
	d="
M113.482269,242.145782 
	C117.055336,239.631195 119.021454,241.057358 119.164413,244.477264 
	C119.477280,251.961578 119.418808,259.465759 119.341835,266.960083 
	C119.305077,270.539307 117.336960,270.712372 114.698570,269.104156 
	C113.144585,268.156921 111.660057,266.984070 109.976547,266.380737 
	C103.376205,264.015350 98.785484,267.195801 98.123207,273.988586 
	C97.250725,282.937347 97.265160,291.865021 97.387009,300.744812 
	C108.001930,302.231110 119.188507,296.547455 123.547501,287.771423 
	C124.065262,286.728973 124.533638,285.653076 125.148506,284.670013 
	C125.896851,283.473480 126.959038,282.639893 128.479279,283.044586 
	C130.095276,283.474731 130.282669,284.862274 130.282074,286.227203 
	C130.280853,289.058563 130.277771,291.893341 130.144791,294.720581 
	C129.817413,301.681519 129.416168,308.638977 129.021286,316.035065 
	C117.835800,316.227997 107.197296,318.803864 96.547813,321.250702 
	C90.553299,322.627960 84.647041,324.385834 78.682198,325.897980 
	C76.920532,326.344574 74.855759,326.923767 73.516937,325.305420 
	C71.967712,323.432739 73.025238,321.343292 74.280952,319.821472 
	C80.885597,311.817200 81.808914,302.423370 81.733704,292.540771 
	C81.554962,269.054443 81.624229,245.565216 81.763741,222.078171 
	C81.799637,216.035019 80.479584,210.903809 75.212547,207.310944 
	C73.528259,206.162018 72.226662,204.518143 72.031540,202.417709 
	C71.791626,199.834961 72.474037,197.434006 75.694191,197.809143 
	C94.707191,200.024124 111.726707,193.655151 128.438675,185.832581 
	C128.681702,185.718826 129.070938,185.917419 129.422028,185.975189 
	C130.729980,187.164978 130.271820,188.745804 130.226868,190.177124 
	C129.965591,198.496246 129.642334,206.813431 129.333038,215.131027 
	C129.264557,216.972626 129.339798,219.086365 127.183311,219.730026 
	C124.995934,220.382889 123.998848,218.394928 122.877434,217.007339 
	C122.042488,215.974152 121.332596,214.838348 120.587509,213.734406 
	C118.550934,210.716965 116.096016,209.991531 112.434525,211.123245 
	C98.489357,215.433487 98.376625,215.310852 98.137413,229.936005 
	C98.032486,236.351120 96.410400,242.780045 98.019279,249.552887 
	C104.077728,248.902557 109.730530,248.069809 113.482269,242.145782 
z"/>
<path fill="white" opacity="1.000000" stroke="none" 
	d="
M480.021576,179.069626 
	C479.433411,190.659348 480.685455,201.438461 484.881348,211.867874 
	C490.642609,226.188278 505.510162,229.988205 517.292664,219.959473 
	C519.965820,217.684219 522.383362,215.194321 524.569824,212.436844 
	C526.005188,210.626526 527.619507,208.879227 529.440979,207.476730 
	C531.164734,206.149384 533.374268,205.298950 535.505554,206.556076 
	C537.797607,207.908051 538.171631,210.280457 537.814331,212.699646 
	C537.322510,216.029709 536.064819,219.171631 534.446838,222.060913 
	C524.206909,240.347443 508.773865,249.106567 488.504272,244.217972 
	C477.348022,241.527328 470.848114,233.170975 467.892670,222.936539 
	C461.283936,200.051346 459.618774,176.798370 467.072815,153.675812 
	C469.576416,145.909561 473.621002,138.841202 478.284149,132.042221 
	C486.649597,119.845291 498.936768,116.999123 512.370361,117.130402 
	C519.618591,117.201241 531.671875,128.392212 533.236511,135.450439 
	C533.889099,138.394226 533.181763,141.091980 531.392883,143.467789 
	C529.212585,146.363464 526.765564,147.093964 523.863770,144.300156 
	C522.193359,142.691910 520.534668,140.958649 518.568665,139.789322 
	C508.693298,133.915588 501.147797,135.101089 493.130554,143.447495 
	C483.685303,153.280457 480.402069,165.378723 480.021576,179.069626 
z"/>
<path fill="white" opacity="1.000000" stroke="none" 
	d="
M426.331818,222.000153 
	C426.314056,226.663330 426.422699,230.831558 426.257294,234.988876 
	C426.078308,239.487152 427.117218,243.413635 429.883270,247.114014 
	C432.408936,250.492767 431.375763,252.276855 427.108826,252.285294 
	C423.044556,252.293304 419.209686,253.196167 415.351166,254.268829 
	C413.846710,254.687073 412.152191,255.931442 410.672516,254.424362 
	C409.219940,252.944794 410.453766,251.284088 410.784821,249.722443 
	C413.298492,237.866257 410.863953,225.983826 411.997375,213.880325 
	C405.607269,213.976898 400.551819,215.413422 395.524170,217.156738 
	C393.443024,217.878372 393.272278,219.336121 393.276367,221.063431 
	C393.295746,229.223373 393.334442,237.383316 393.332581,245.543259 
	C393.332031,248.015976 394.793243,249.915009 395.683838,252.047379 
	C396.725800,254.542313 396.593048,256.958771 393.454468,257.452972 
	C387.070221,258.458191 380.947906,260.498230 374.833740,262.296722 
	C372.733063,258.944458 374.225250,256.340820 375.513489,253.927658 
	C377.220886,250.729340 377.835175,247.435715 377.806702,243.855026 
	C377.581940,215.552399 376.078918,187.268280 376.617920,158.953247 
	C376.701691,154.552582 374.546844,151.014099 371.271729,148.096008 
	C369.928192,146.898941 368.291016,145.498779 369.082062,143.442215 
	C369.800110,141.575287 371.831207,141.970398 373.438904,141.700668 
	C378.030121,140.930344 382.612701,140.107880 387.194122,139.280487 
	C388.976013,138.958694 390.749969,138.336075 393.078400,139.665665 
	C389.277710,159.407578 393.548462,179.391785 392.182159,199.623688 
	C397.802368,200.248291 402.600708,199.061188 407.404297,197.935593 
	C409.807739,197.372406 410.496277,195.488159 410.541290,193.403488 
	C410.638275,188.911453 410.738922,184.404160 410.472992,179.924774 
	C410.281555,176.700455 408.946259,174.024902 405.992279,172.014786 
	C402.358521,169.542084 402.672333,167.065552 406.925812,165.837082 
	C412.946594,164.098160 419.178223,163.089355 426.337524,161.549622 
	C426.337524,182.016266 426.337524,201.758331 426.331818,222.000153 
z"/>
<path fill="white" opacity="1.000000" stroke="none" 
	d="
M206.992432,199.820679 
	C212.642914,196.288712 218.228027,194.845871 224.425461,197.073318 
	C227.968903,198.346848 231.690536,197.657730 235.339584,197.710083 
	C238.650146,197.757584 241.020691,199.187027 240.894180,202.692978 
	C240.707504,207.865860 239.923645,213.010971 236.978821,217.471161 
	C234.148468,221.757950 231.071228,222.042343 227.721588,218.191772 
	C224.832718,214.870834 222.191940,210.998489 217.040512,212.559357 
	C211.759155,214.159607 209.110596,218.461899 207.859161,223.543427 
	C207.107224,226.596756 206.432861,229.796280 206.523331,232.906845 
	C206.832565,243.541672 206.681564,254.228058 208.431213,264.765625 
	C209.642899,272.063141 213.082336,274.801392 219.033752,273.824249 
	C220.580383,273.570343 221.899811,272.963440 222.936066,271.800293 
	C225.970093,268.394714 224.505615,255.710495 220.725296,253.247803 
	C216.646713,250.590790 217.884048,246.497482 217.882797,242.829224 
	C217.881668,239.507065 219.687607,237.108963 222.937027,236.162384 
	C227.086029,234.953735 231.268723,233.839111 235.480743,232.875717 
	C238.518158,232.180954 240.194321,233.380356 240.292465,236.737106 
	C240.852158,255.882431 241.247986,275.073547 239.113907,294.100006 
	C237.905655,304.872314 231.117645,312.567993 220.671280,316.402893 
	C215.707230,318.225250 210.440918,316.326782 207.432037,312.078247 
	C206.084076,310.174927 206.263168,308.620483 208.252487,307.495178 
	C209.532501,306.771057 210.953354,306.176117 212.385406,305.859955 
	C221.720383,303.799194 226.777267,296.678040 225.639633,287.049713 
	C211.155243,295.131897 200.796432,291.432770 194.567368,275.784912 
	C189.214127,262.337189 190.610184,248.273743 191.192322,234.323456 
	C191.572311,225.217773 193.630081,216.549942 198.567307,208.707214 
	C200.729874,205.271988 203.259872,202.247559 206.992432,199.820679 
z"/>
<path fill="white" opacity="1.000000" stroke="none" 
	d="
M695.643311,170.322815 
	C690.284363,166.948624 684.340149,166.411865 678.844360,164.562698 
	C664.357422,159.688278 659.102722,151.578186 660.795349,136.197250 
	C662.287659,122.635674 674.422058,109.072510 687.486511,106.363380 
	C696.660767,104.460945 709.553955,109.744698 714.800354,117.480980 
	C716.520203,120.017036 716.626465,122.313652 714.568054,124.738480 
	C712.820923,126.796593 710.821228,128.525192 708.586060,129.986435 
	C703.899597,133.050186 700.645630,133.520462 698.014038,128.114807 
	C696.095886,124.174889 692.533142,122.523033 687.932007,123.956734 
	C682.602600,125.617386 678.611694,130.584167 678.239197,136.016464 
	C677.902527,140.926544 680.212524,144.013412 684.649963,145.479065 
	C688.429565,146.727417 692.299011,147.784805 696.200623,148.568710 
	C717.083374,152.764359 724.520996,174.311569 715.334961,190.824951 
	C708.964844,202.276215 700.543762,211.309799 686.365356,212.711044 
	C677.096741,213.627045 668.942322,210.480423 661.279175,205.966446 
	C657.329529,203.639938 659.344055,199.846176 661.070190,197.173950 
	C663.663086,193.159714 666.942200,189.588715 670.237427,185.441895 
	C673.885376,190.909729 678.317383,194.314056 684.598328,194.676071 
	C689.400940,194.952911 693.397827,193.201279 696.751709,189.897186 
	C702.352600,184.379562 701.996765,176.311722 695.643311,170.322815 
z"/>
<path fill="white" opacity="1.000000" stroke="none" 
	d="
M650.262451,191.942261 
	C651.781250,198.507431 653.314392,204.620392 656.581787,210.165634 
	C658.562378,213.527115 657.945068,215.883575 653.590881,216.411316 
	C647.054443,217.203537 640.940491,220.258118 633.477112,220.572830 
	C634.195740,212.958710 636.331177,205.638992 631.949463,198.439316 
	C626.640076,200.083496 621.162415,201.422745 615.979858,203.498871 
	C611.911499,205.128677 613.229248,209.257721 613.495544,212.355728 
	C614.402954,222.913666 613.608276,223.975922 602.987549,224.376450 
	C596.339539,224.627151 595.773254,224.090042 594.385193,217.572037 
	C593.525391,213.534561 593.800964,209.548096 594.899170,205.704971 
	C599.098877,191.007690 602.562500,176.103165 608.125793,161.791183 
	C611.816772,152.295654 613.630066,142.301285 613.805237,132.034500 
	C613.936462,124.339806 620.883057,118.723099 628.382019,119.909889 
	C630.391296,120.227890 631.054199,121.681274 631.629517,123.280426 
	C636.535278,136.916473 640.216187,150.915787 643.125000,165.076355 
	C644.970947,174.062943 647.881592,182.708176 650.262451,191.942261 
M627.785461,181.479294 
	C628.763672,173.761276 624.150391,167.490768 622.568481,160.321381 
	C619.252258,167.962372 617.964417,175.781479 617.253235,184.279556 
	C621.163025,184.039825 624.434937,184.128052 627.785461,181.479294 
z"/>
<path fill="white" opacity="1.000000" stroke="none" 
	d="
M137.621307,239.073044 
	C137.466537,232.454239 137.899673,226.238770 134.507706,220.648651 
	C133.177536,218.456467 134.132584,217.053604 136.505493,216.877457 
	C139.552902,216.651215 142.442902,215.847260 145.154892,214.610855 
	C148.814316,212.942490 150.751740,214.248215 151.997421,217.718811 
	C155.838867,228.421432 162.621078,237.667084 167.114243,248.051620 
	C167.436264,248.795868 167.814117,249.574997 169.551559,249.831924 
	C169.551559,243.685013 169.878326,237.601868 169.449570,231.572449 
	C169.097885,226.626617 169.023209,221.604630 167.579788,216.749115 
	C166.367813,212.672104 167.573120,209.397507 171.834488,207.986084 
	C176.433411,206.462860 180.543991,208.238022 182.082047,212.532227 
	C184.012955,217.923279 184.073807,223.656006 184.080887,229.286743 
	C184.103043,246.923355 183.512100,264.560455 184.248398,282.196503 
	C184.407715,286.012360 184.114105,289.852631 185.307983,293.576904 
	C186.196182,296.347626 185.502579,297.906281 182.239716,298.304749 
	C178.663132,298.741486 175.158463,299.767212 170.942368,300.684174 
	C167.617249,284.575623 161.278473,269.806091 151.753113,255.311569 
	C152.190948,267.947052 152.423645,279.548950 151.902328,291.148865 
	C151.777832,293.918823 152.814667,296.300873 154.142166,298.681732 
	C155.870316,301.781158 155.622742,304.690826 151.817078,305.898804 
	C145.820801,307.802277 139.717316,309.367981 133.736328,311.054901 
	C131.906525,308.682678 132.839798,306.597382 133.889633,304.762482 
	C137.421631,298.589081 137.928711,291.984192 137.783035,285.018066 
	C137.466324,269.871368 137.646698,254.714325 137.621307,239.073044 
z"/>
<path fill="white" opacity="1.000000" stroke="none" 
	d="
M741.283936,153.900787 
	C738.782043,152.490829 736.488037,151.428528 734.473328,149.978256 
	C722.715759,141.514587 720.011719,126.810776 727.845642,113.475693 
	C731.422363,107.387398 735.648621,101.733765 742.533569,99.035042 
	C754.786682,94.232124 767.902039,97.932556 776.091980,108.298935 
	C779.451660,112.551468 779.176514,115.950233 775.102478,119.606743 
	C773.990723,120.604530 772.761169,121.475334 771.556335,122.364601 
	C764.876709,127.294952 764.343445,127.182732 760.499451,120.115204 
	C758.235291,115.952164 753.545593,113.434601 749.230652,114.503784 
	C744.440186,115.690788 741.438354,119.080414 740.473450,123.787170 
	C739.482788,128.619781 741.802124,132.301498 746.105652,134.397308 
	C750.583252,136.577896 755.288147,138.286652 759.855896,140.287872 
	C771.018127,145.178177 778.896606,152.876968 779.237976,165.732422 
	C779.608704,179.691772 772.429504,189.765976 760.896484,196.798813 
	C752.083984,202.172729 742.742188,202.875031 733.219971,198.349854 
	C731.269775,197.423035 729.274109,196.293320 727.193909,195.996918 
	C721.877563,195.239380 721.718872,191.858307 722.846313,187.962128 
	C724.626282,181.811020 727.849182,176.443054 732.299988,171.827560 
	C733.952759,172.661789 734.203125,174.280533 734.989868,175.494232 
	C739.402527,182.301697 745.376770,184.308441 753.108521,181.727615 
	C758.042786,180.080597 761.086304,176.874039 761.566101,171.706726 
	C762.041077,166.590439 759.892212,162.500809 755.296387,160.162338 
	C750.854492,157.902176 746.188416,156.082397 741.283936,153.900787 
z"/>
<path fill="white" opacity="1.000000" stroke="none" 
	d="
M617.775085,59.655838 
	C647.321533,56.425610 676.398010,53.094898 705.507324,50.081348 
	C711.143860,49.497814 716.986389,48.431919 722.787292,50.312260 
	C722.699646,54.529591 719.758789,55.238720 717.102722,55.924694 
	C705.647400,58.883270 694.023071,61.210907 682.248291,62.113640 
	C663.482788,63.552334 645.005249,67.379852 626.263489,68.678581 
	C606.993958,70.013878 587.904419,72.923843 568.654419,74.386330 
	C546.102600,76.099663 523.664062,78.949692 501.197418,81.568230 
	C481.066315,83.914543 461.004272,87.158371 440.623383,87.498466 
	C425.495636,87.750893 410.388916,89.230461 395.271240,90.136314 
	C388.691437,90.530586 387.833557,89.748993 387.603302,84.769531 
	C387.421600,80.839119 389.448120,79.960754 392.765381,79.869484 
	C401.415466,79.631500 410.057617,79.576675 418.709229,78.852249 
	C448.366455,76.368965 478.103577,75.131233 507.662262,71.118774 
	C532.363403,67.765694 557.176880,65.031227 582.105774,63.523907 
	C593.877380,62.812134 605.581726,60.986778 617.775085,59.655838 
z"/>
<path fill="white" opacity="1.000000" stroke="none" 
	d="
M200.292236,90.230164 
	C193.361786,97.244591 193.305832,97.279213 198.426117,105.553795 
	C200.965851,109.658119 203.802017,113.577972 206.406418,117.643837 
	C207.357193,119.128105 208.883240,120.452644 208.307877,122.991821 
	C203.256104,123.873077 198.041534,124.749855 192.841766,125.706978 
	C190.924667,126.059868 190.145264,125.148232 189.640549,123.470497 
	C187.102234,115.033020 181.145905,108.445122 177.247253,100.736656 
	C175.336884,96.959442 171.757462,98.216461 168.782425,98.485138 
	C165.228378,98.806107 166.326675,101.896400 166.285690,104.011696 
	C166.182480,109.339996 166.221634,114.674736 166.364182,120.002609 
	C166.440674,122.861488 165.464615,124.113472 162.428070,124.419746 
	C150.680923,125.604591 150.691376,125.705055 150.695923,113.855209 
	C150.702957,95.529869 150.738434,77.204445 150.691483,58.879246 
	C150.682251,55.276638 150.353851,51.674847 150.173859,48.096626 
	C162.544006,48.096626 174.822647,46.775318 186.695084,48.407997 
	C204.264343,50.824093 212.225693,69.642471 203.502701,85.332230 
	C202.615372,86.928268 201.509094,88.402565 200.292236,90.230164 
M166.272079,66.074333 
	C166.242325,70.399361 166.195953,74.724358 166.190979,79.049416 
	C166.188980,80.783890 166.366028,82.685951 168.620300,82.690063 
	C173.749725,82.699417 178.970474,83.448982 183.951172,81.608688 
	C188.095840,80.077301 189.552444,76.720215 189.720337,72.563950 
	C189.877625,68.670227 187.779648,66.133217 184.461411,64.882423 
	C178.532318,62.647488 172.509338,62.975128 166.272079,66.074333 
z"/>
<path fill="white" opacity="1.000000" stroke="none" 
	d="
M353.640320,175.104431 
	C358.913971,177.597076 363.050842,180.783478 365.831055,185.609482 
	C367.128448,187.861542 367.073059,189.649216 364.882263,191.219803 
	C362.854218,192.673721 360.924561,194.275909 358.830017,195.624008 
	C353.018890,199.364197 352.115601,199.170807 348.395691,193.377472 
	C346.571625,190.536743 344.075958,189.286072 340.790100,189.835678 
	C336.814636,190.500656 334.277985,192.821640 333.033905,196.712051 
	C331.962891,200.061401 333.218201,202.522430 335.557526,204.721771 
	C337.346100,206.403351 339.656708,206.891815 341.914551,207.430328 
	C347.776184,208.828339 353.274658,211.040421 358.634216,213.837112 
	C372.770416,221.213547 372.439453,239.176865 367.021881,248.336853 
	C360.761475,258.921844 352.597595,267.503296 339.205658,268.818756 
	C330.536041,269.670380 323.724884,266.035828 317.562073,260.554108 
	C316.369843,259.493683 315.879883,258.122559 316.302826,256.488678 
	C317.973602,250.034180 321.453979,244.784912 326.231995,240.583466 
	C328.637146,241.103287 328.485626,242.959717 329.149719,244.184799 
	C331.794922,249.064453 337.501434,251.735718 343.118347,250.605118 
	C347.864899,249.649734 353.014740,244.077866 353.390900,239.490784 
	C353.796997,234.538666 350.143219,229.969986 344.195557,227.944885 
	C338.409271,225.974701 332.226776,225.294144 326.946869,221.684555 
	C317.500977,215.227005 313.692230,204.570557 317.376434,193.713837 
	C321.792175,180.701355 332.601166,172.409927 344.691406,172.665085 
	C347.771423,172.730087 350.597351,173.533401 353.640320,175.104431 
z"/>
<path fill="white" opacity="1.000000" stroke="none" 
	d="
M124.428711,396.481506 
	C112.614716,398.948975 101.211365,401.307617 89.823151,403.737213 
	C87.156166,404.306183 84.580513,404.548004 83.862785,401.212921 
	C83.200966,398.137604 83.484436,395.206787 87.174988,393.854034 
	C93.618355,391.492249 100.355301,390.295776 107.036942,389.009247 
	C146.376282,381.434753 185.787201,374.227570 225.094864,366.494415 
	C260.480103,359.532959 295.763580,352.054291 331.092468,344.806274 
	C331.744781,344.672424 332.401611,344.557892 333.059570,344.454926 
	C335.759827,344.032349 338.901215,342.546082 339.852234,346.861694 
	C340.755798,350.962067 338.824249,354.271576 334.883545,355.186035 
	C327.590820,356.878296 320.284027,358.526337 312.942139,359.987030 
	C287.008362,365.146545 261.069366,370.281311 235.109756,375.308960 
	C200.657471,381.981445 166.184265,388.545898 131.719040,395.151520 
	C129.431992,395.589844 127.136459,395.983887 124.428711,396.481506 
z"/>
<path fill="white" opacity="1.000000" stroke="none" 
	d="
M638.707275,301.913940 
	C614.952881,306.600616 591.651489,311.364044 568.272461,315.709412 
	C551.441345,318.837738 534.514038,321.454865 517.608459,324.167847 
	C515.585266,324.492554 513.257629,325.301117 511.366852,323.637817 
	C508.447235,321.069427 509.514130,316.515198 513.579651,315.606262 
	C520.380798,314.085693 527.313965,313.164215 534.177673,311.914032 
	C563.282349,306.612579 592.268311,300.750854 621.177734,294.444183 
	C640.654480,290.195282 660.534851,288.025330 680.222717,284.860535 
	C699.415588,281.775330 718.455994,277.752655 737.595886,274.323425 
	C748.880981,272.301544 760.215454,270.537903 771.559998,268.879059 
	C774.109375,268.506256 777.611145,267.451935 778.076599,271.943268 
	C778.480408,275.840240 777.691101,278.727448 772.903259,279.328705 
	C739.219238,283.558563 706.153503,291.391479 672.645996,296.662231 
	C661.479309,298.418732 650.300415,300.097443 638.707275,301.913940 
z"/>
<path fill="white" opacity="1.000000" stroke="none" 
	d="
M256.014435,103.876991 
	C261.989166,103.591728 267.479065,103.415291 272.951843,103.008698 
	C276.656982,102.733429 278.388611,103.810623 278.446259,107.938408 
	C278.595947,118.657349 278.755951,118.553497 267.830780,119.443596 
	C256.065247,120.402168 244.298233,121.410088 232.572784,122.753639 
	C228.812790,123.184479 227.858139,121.958160 227.866699,118.541702 
	C227.923004,96.061539 227.895737,73.581108 227.853470,51.100845 
	C227.848877,48.657375 228.075516,46.751583 231.307175,47.082245 
	C244.944733,48.477634 258.583771,47.446609 272.205536,46.810738 
	C276.666199,46.602512 278.442017,47.617920 278.328827,52.465290 
	C278.083832,62.952881 278.330048,62.998734 267.781219,63.218483 
	C261.455048,63.350269 255.122452,63.475235 248.799255,63.326748 
	C245.326767,63.245209 243.857803,64.537781 244.162369,67.989227 
	C244.293686,69.477333 244.305023,70.992470 244.194016,72.482140 
	C243.953156,75.714500 245.382721,76.981079 248.592438,76.874367 
	C254.249847,76.686295 259.917999,76.814278 265.574615,76.612305 
	C268.806458,76.496918 270.203003,77.821907 270.038971,81.003029 
	C269.953308,82.664444 269.980743,84.332413 269.981964,85.997414 
	C269.984283,89.133774 268.445221,90.295181 265.312714,90.354836 
	C259.661835,90.462448 254.021881,91.084625 248.370438,91.240410 
	C242.832474,91.393051 244.422714,95.434196 244.176498,98.475647 
	C243.923279,101.603683 244.348587,104.226799 248.529877,103.955482 
	C250.852371,103.804787 253.190964,103.902214 256.014435,103.876991 
z"/>
<path fill="white" opacity="1.000000" stroke="none" 
	d="
M298.752686,58.108742 
	C298.669769,46.622395 298.657257,47.045219 309.668152,47.371395 
	C320.298340,47.686287 330.957855,46.995033 341.604919,46.767284 
	C343.915100,46.717869 346.227264,46.760067 348.991760,46.760067 
	C348.991760,52.179741 348.991760,57.251705 348.991760,62.621441 
	C347.721832,63.853916 345.796906,63.242855 344.037628,63.261528 
	C335.879547,63.348141 327.710846,63.607872 319.565399,63.296307 
	C314.120850,63.088055 314.458557,66.279366 314.287811,70.015106 
	C314.096710,74.195580 315.188904,76.280037 319.808380,75.857430 
	C325.099396,75.373405 330.477356,76.144791 335.737427,75.040878 
	C339.748169,74.199158 341.365021,75.886322 341.148651,79.774353 
	C341.139435,79.940163 341.150421,80.107315 341.156067,80.273697 
	C341.471954,89.596046 341.472168,89.600006 332.090271,90.066643 
	C327.936249,90.273262 323.781708,90.472366 319.626465,90.652702 
	C314.758453,90.863983 314.998627,94.266151 314.955200,97.752060 
	C314.906158,101.692108 317.296814,101.948784 320.233307,101.784790 
	C328.537476,101.321037 336.854034,101.024445 345.143280,100.375580 
	C348.390564,100.121384 349.639282,101.187759 349.964905,104.360268 
	C351.182220,116.220924 351.237366,115.934586 339.638245,116.402443 
	C328.013977,116.871330 316.408020,117.886757 304.808777,118.841713 
	C299.197754,119.303665 298.700989,119.086090 298.700317,113.537407 
	C298.698151,95.221977 298.730560,76.906548 298.752686,58.108742 
z"/>
<path fill="white" opacity="1.000000" stroke="none" 
	d="
M557.772949,231.942078 
	C554.093872,232.681793 550.815125,233.259674 547.568848,233.983032 
	C544.023254,234.773102 542.413513,233.321167 542.750427,229.836166 
	C543.021423,227.033249 543.044006,224.011246 544.154175,221.522476 
	C547.051147,215.028275 546.985107,208.256836 546.997925,201.434875 
	C547.033020,182.790665 547.198364,164.157089 549.611328,145.618530 
	C550.147522,141.498428 552.063904,137.714996 551.963745,133.419098 
	C551.862610,129.083878 551.132080,125.395805 547.760498,122.177109 
	C543.568604,118.175255 544.482117,114.436966 549.849854,112.211082 
	C555.269409,109.963730 560.939453,110.917061 567.336121,110.905914 
	C565.514221,119.634277 567.003540,128.111923 565.464172,136.406342 
	C563.875610,144.965500 563.450256,153.592133 563.381775,162.242966 
	C563.267090,176.730179 563.316101,191.219040 563.364441,205.707001 
	C563.384644,211.767822 564.630066,212.644913 570.650940,211.214783 
	C576.459656,209.835022 581.514648,207.144012 585.643982,202.763367 
	C586.648376,201.697891 587.739258,200.300461 589.440369,200.885635 
	C591.409424,201.563019 591.262024,203.468201 591.277039,205.116287 
	C591.324158,210.278229 591.114685,215.451965 591.402283,220.598923 
	C591.593201,224.015533 590.058594,225.414261 587.029480,226.015930 
	C577.409180,227.926743 567.800659,229.897049 557.772949,231.942078 
z"/>
<path fill="white" opacity="1.000000" stroke="none" 
	d="
M258.492615,283.541534 
	C255.197235,284.421967 252.329178,285.310883 249.408127,285.962219 
	C246.796204,286.544647 245.362839,285.287964 246.083145,282.681763 
	C252.329819,260.080170 248.819580,236.953964 249.780182,214.076721 
	C250.234055,203.267502 249.645111,192.418365 249.824387,181.592224 
	C249.930298,175.197235 248.731689,169.667816 242.807907,166.120422 
	C242.412796,165.883820 242.130569,165.385437 241.915070,164.949844 
	C241.786804,164.690567 241.891556,164.316010 241.891556,163.360565 
	C248.779404,161.646790 255.918930,160.512604 263.116516,159.806396 
	C265.829254,159.540207 266.360657,161.674500 266.247498,163.867569 
	C265.990265,168.853165 265.414795,173.833786 265.393799,178.818222 
	C265.281494,205.474152 265.287994,232.130615 265.299866,258.786896 
	C265.300659,260.552002 264.794647,262.465454 266.327179,264.318237 
	C270.717285,264.067200 274.904724,262.904022 278.647003,260.191589 
	C280.261536,259.021332 281.911530,257.838165 283.699005,256.981232 
	C287.435760,255.189804 289.911713,256.809418 289.833984,261.004547 
	C289.753906,265.327118 289.443817,269.645477 289.228973,273.965424 
	C289.117645,276.203705 288.243134,278.005249 285.791687,278.106995 
	C276.540100,278.491028 267.934906,282.046143 258.492615,283.541534 
z"/>
<path fill="white" opacity="1.000000" stroke="none" 
	d="
M128.868713,46.868073 
	C133.022400,46.280251 134.624863,47.737881 134.223938,51.533508 
	C133.823395,55.325634 135.750916,59.973309 133.528748,62.751396 
	C131.053970,65.845291 126.413612,62.881954 122.688400,63.243076 
	C116.069656,63.884697 109.393265,64.014465 102.736778,64.147499 
	C99.611069,64.209969 98.368034,65.292885 98.299675,68.578705 
	C98.095207,78.406677 97.965714,78.370056 107.567841,77.939911 
	C111.561111,77.761024 115.563026,77.783089 119.559891,77.672974 
	C122.067398,77.603889 123.255486,78.799232 123.232597,81.276535 
	C123.227982,81.775856 123.263351,82.275612 123.282387,82.775085 
	C123.645889,92.314766 123.644646,92.244019 114.172722,92.420197 
	C110.181786,92.494431 106.201302,93.037514 102.209358,93.181656 
	C99.136673,93.292595 98.279594,94.888535 98.305649,97.696297 
	C98.373695,105.027374 98.191223,112.361153 98.290276,119.691406 
	C98.334274,122.947365 97.001228,124.140923 93.809341,124.030060 
	C80.148964,123.555580 81.677200,126.167747 81.725716,112.293068 
	C81.790398,93.797661 81.976501,75.300896 81.817146,56.807240 
	C81.735268,47.305889 81.447250,47.320202 90.922798,47.619148 
	C103.422592,48.013508 115.900902,47.251949 128.868713,46.868073 
z"/>
<path fill="white" opacity="1.000000" stroke="none" 
	d="
M414.844055,351.969055 
	C414.377686,337.693848 413.920258,323.911102 413.461670,310.093811 
	C420.290100,306.720886 424.455597,307.421661 428.769318,313.009949 
	C433.942627,319.711792 438.967957,326.527863 444.625000,334.049194 
	C444.625000,325.330688 444.827301,317.276855 444.532715,309.241241 
	C444.401489,305.661743 445.517731,304.247101 448.984436,304.699280 
	C452.236664,305.123474 455.542053,303.586273 459.121826,304.950928 
	C456.737000,321.596741 459.958832,338.146729 459.303162,354.736572 
	C459.213928,356.994080 460.534607,360.393341 456.823059,360.802460 
	C453.152710,361.207001 448.955475,363.624664 445.906738,359.043396 
	C441.377350,352.237183 435.854706,346.205475 430.690063,339.894958 
	C430.072723,339.140625 429.710052,338.177917 428.672333,337.673187 
	C428.373627,344.145660 427.094482,350.178528 428.173218,356.246765 
	C428.869873,360.165649 427.894257,362.179016 423.280548,362.685364 
	C414.811005,363.614868 414.850952,363.971466 414.869507,355.459351 
	C414.871674,354.460083 414.858826,353.460815 414.844055,351.969055 
z"/>
<path fill="white" opacity="1.000000" stroke="none" 
	d="
M307.298706,194.040192 
	C307.658020,215.174469 308.016724,235.816528 308.392517,256.458282 
	C308.467346,260.570831 310.064331,264.173462 311.974915,267.753418 
	C314.205750,271.933472 312.907227,274.250885 308.206238,274.220306 
	C302.183258,274.181061 296.454285,276.001862 290.259979,276.764435 
	C290.205322,275.873077 289.942261,275.159729 290.163239,274.660614 
	C295.171234,263.347473 293.700439,251.526566 293.187927,239.718796 
	C292.718597,228.906357 292.751343,218.070557 292.653595,207.244232 
	C292.606842,202.067169 292.343811,196.917847 291.171448,191.869629 
	C290.695953,189.821976 290.684479,188.167145 293.051819,187.532425 
	C297.506775,186.337997 301.770874,184.344177 306.521851,184.008484 
	C307.966827,187.259232 307.091217,190.450851 307.298706,194.040192 
z"/>
<path fill="white" opacity="1.000000" stroke="none" 
	d="
M382.388428,365.188843 
	C382.595520,348.813965 382.867523,332.867767 382.757690,316.924225 
	C382.731689,313.151642 383.867249,311.775024 387.517761,311.080231 
	C397.398254,309.199646 397.320648,309.024353 397.287659,318.949371 
	C397.239624,333.402008 397.116333,347.857178 397.348175,362.306091 
	C397.414703,366.452484 396.539948,368.622528 391.974548,368.357147 
	C390.026001,368.243896 388.035339,368.843048 386.064728,369.125092 
	C383.356171,369.512665 381.827972,368.644592 382.388428,365.188843 
z"/>
<path fill="white" opacity="1.000000" stroke="none" 
	d="
M289.503479,166.261963 
	C288.951324,158.442413 292.476807,154.913406 300.570221,154.702209 
	C305.773743,154.566406 309.522003,158.362762 309.542297,163.789490 
	C309.557892,167.949234 305.132233,172.995239 300.571350,174.017914 
	C296.136688,175.012283 292.474670,172.545685 289.503479,166.261963 
z"/>
<path fill="white" opacity="1.000000" stroke="none" 
	d="
M89.698898,161.600922 
	C90.915688,161.411713 91.733704,161.191071 92.546478,161.208893 
	C94.508263,161.251907 97.042503,161.044098 97.365143,163.530350 
	C97.688499,166.022110 95.125877,166.399750 93.294930,167.046005 
	C91.742790,167.593872 90.165077,168.068893 88.602859,168.588699 
	C86.403572,169.320541 84.175980,169.619583 83.216675,166.937378 
	C82.236259,164.196152 84.240425,163.090393 86.415642,162.358917 
	C87.347321,162.045624 88.335320,161.899826 89.698898,161.600922 
z"/>
</svg>