<svg version="1.1" id="Layer_1" xmlns="http://www.w3.org/2000/svg" xmlns:xlink="http://www.w3.org/1999/xlink" x="0px" y="0px"
	 width="100%" viewBox="0 0 880 496" enable-background="new 0 0 880 496" xml:space="preserve">
<path fill="white" opacity="1.000000" stroke="none" 
	d="
M723.256348,480.838837 
	C720.140381,480.668976 717.481384,480.411713 714.822327,480.410034 
	C670.170959,480.381805 625.519653,480.381958 580.868286,480.382751 
	C446.926697,480.385071 312.985077,480.391754 179.043472,480.391083 
	C171.339844,480.391022 171.339844,480.367523 171.991058,472.375702 
	C173.922714,470.780487 176.342346,471.122131 178.597305,471.141663 
	C189.754074,471.238190 200.910431,471.627197 212.065826,471.589325 
	C239.868546,471.494934 267.670502,471.082123 295.473022,471.054504 
	C359.603302,470.990784 423.736450,470.736328 487.862915,471.251068 
	C520.181213,471.510468 552.499939,471.838135 584.811340,471.467072 
	C605.797729,471.226044 626.767517,471.344696 647.749695,471.443420 
	C671.728333,471.556274 695.716553,470.818176 719.704956,471.078766 
	C724.529236,471.131165 729.352112,471.308746 734.176392,471.372009 
	C736.700134,471.405151 738.372681,472.155792 738.199768,475.114929 
	C738.054626,477.598785 738.576355,480.318817 734.683472,480.362213 
	C731.025330,480.402924 727.369995,480.691101 723.256348,480.838837 
z"/>
<path fill="white" opacity="1.000000" stroke="none" 
	d="
M593.833374,435.334320 
	C593.898132,415.937347 593.822571,396.971558 593.988464,378.007843 
	C594.047729,371.239777 595.549255,364.329773 590.124084,358.230560 
	C596.294128,358.216797 601.989685,358.716980 607.698425,358.604553 
	C618.345032,358.394775 628.833008,358.776123 639.121521,362.550659 
	C666.317627,372.528137 670.660583,407.867218 655.774658,426.875427 
	C646.143250,439.174164 633.066956,443.076172 618.564026,443.875488 
	C609.349182,444.383331 600.083618,443.970459 590.668457,443.970459 
	C590.350952,440.224304 593.892151,438.703217 593.833374,435.334320 
M624.185303,423.672394 
	C625.492065,423.448822 626.809143,423.273132 628.104004,422.994232 
	C639.419739,420.556915 645.775635,412.085205 645.594482,399.710236 
	C645.440125,389.160767 638.385376,380.560760 627.956848,378.468201 
	C624.057129,377.685730 620.094666,377.326599 616.080750,377.231689 
	C612.344177,377.143280 611.141052,378.527344 611.207703,382.177979 
	C611.401611,392.814972 611.255310,403.457642 611.364685,414.096802 
	C611.479919,425.302368 609.394165,425.636963 621.817688,423.767609 
	C622.307922,423.693878 622.813293,423.719940 624.185303,423.672394 
z"/>
<path fill="white" opacity="1.000000" stroke="none" 
	d="
M262.664490,383.001495 
	C262.251709,374.630737 264.113342,366.561951 259.858063,358.413391 
	C271.193054,359.022034 281.760345,358.301819 292.345001,359.205383 
	C298.713501,359.749084 304.759735,360.934753 310.615997,363.637207 
	C331.439117,373.246216 337.426392,400.698944 329.579956,417.482849 
	C321.659393,434.425201 308.402039,442.866333 289.843781,443.348297 
	C281.860199,443.555634 273.880157,443.897308 265.896576,444.104279 
	C264.110229,444.150604 262.221008,444.525665 260.984497,443.647339 
	C263.931427,423.485291 261.923431,403.445496 262.664490,383.001495 
M301.423370,422.184479 
	C312.609924,417.506989 315.641052,402.150635 312.096313,391.642609 
	C308.170715,380.005493 296.835236,376.392914 280.627716,377.295990 
	C279.515991,392.775208 281.135498,408.268005 280.755463,424.271149 
	C287.603210,423.649536 294.254761,424.639618 301.423370,422.184479 
z"/>
<path fill="white" opacity="1.000000" stroke="none" 
	d="
M277.328461,217.615814 
	C280.847198,237.597214 297.838226,242.009766 311.960205,240.289108 
	C318.919556,239.441162 324.910645,234.881516 328.778961,228.800690 
	C331.887573,223.914139 335.812653,226.073456 339.380096,226.832184 
	C343.014465,227.605118 343.333221,230.693619 342.727173,234.017273 
	C340.744812,244.889328 333.690247,251.317703 323.760162,254.386551 
	C311.060059,258.311462 298.169159,259.677216 284.994415,255.525620 
	C278.078735,253.346375 272.035431,250.141586 267.333282,244.810257 
	C254.874466,230.684280 248.086838,215.050842 254.681137,195.841690 
	C261.446350,176.134689 275.614807,165.160690 295.410950,160.956253 
	C302.574005,159.434952 309.667755,161.517654 316.468140,163.805405 
	C321.187103,165.392944 325.732422,167.469345 330.539429,168.882568 
	C334.997711,170.193253 335.835907,174.062897 335.913696,178.056503 
	C335.973389,181.123001 334.813080,183.895172 333.158661,186.471695 
	C330.211243,191.061966 327.888489,191.307983 324.172485,187.354797 
	C323.831085,186.991653 323.505646,186.607513 323.217133,186.201584 
	C312.942902,171.747360 297.214417,174.392853 287.055389,181.307220 
	C281.389374,185.163574 277.072815,189.605148 276.842041,197.351089 
	C276.643799,204.005188 275.915405,210.600891 277.328461,217.615814 
z"/>
<path fill="white" opacity="1.000000" stroke="none" 
	d="
M675.520142,439.527405 
	C677.277283,436.506073 677.766113,433.587341 677.619141,430.530457 
	C676.691284,411.233612 678.605896,391.912537 677.064514,372.611908 
	C676.682373,367.826782 677.019226,362.989136 673.323364,358.603088 
	C694.068298,358.603088 713.751892,358.603088 734.121704,358.603088 
	C732.751953,365.355957 733.705566,371.631592 732.963867,378.532593 
	C723.995056,376.714630 715.245911,377.329376 706.513428,377.333405 
	C694.497986,377.338928 696.406616,375.887543 695.862549,387.575989 
	C695.720581,390.625061 696.643127,391.790375 699.736633,391.725403 
	C706.566040,391.581970 713.409546,391.884369 720.228943,391.585693 
	C723.802917,391.429138 725.169922,392.747559 724.980347,396.092712 
	C724.709595,400.871002 724.396545,405.646942 724.109741,410.291260 
	C716.186462,410.291260 708.747742,410.488098 701.326599,410.212738 
	C697.282471,410.062683 696.129639,411.566864 696.237549,415.428497 
	C696.528259,425.832153 695.277954,424.715759 705.242249,424.643005 
	C715.205139,424.570251 725.183594,425.212158 735.913818,424.063538 
	C735.512390,430.021271 735.239136,435.892914 736.069275,441.737823 
	C736.386841,443.974060 734.147217,444.115814 732.457764,444.117584 
	C714.127625,444.136658 695.797485,444.137756 677.467346,444.113678 
	C674.094177,444.109253 673.145020,442.741180 675.520142,439.527405 
z"/>
<path fill="white" opacity="1.000000" stroke="none" 
	d="
M406.201050,235.530396 
	C406.755096,233.171829 407.082245,231.194016 407.643524,229.285049 
	C411.729187,215.389160 421.648621,208.721176 436.130951,210.204300 
	C441.074402,210.710571 445.986145,210.981277 451.219910,210.450272 
	C450.807434,205.375275 449.134766,201.273224 446.186401,197.810318 
	C442.544312,193.532639 435.961609,194.303787 431.753082,198.885101 
	C430.231750,200.541229 429.842072,204.805405 426.017242,202.769913 
	C422.291504,200.787186 419.184448,198.598862 420.513672,193.054337 
	C423.240448,181.680740 425.967621,179.063828 437.765961,178.708237 
	C455.698975,178.167755 456.764404,178.955017 464.343140,195.035309 
	C468.890137,204.682999 469.993134,215.144836 472.293121,225.335342 
	C473.323364,229.899948 474.550110,234.394409 478.150116,237.780823 
	C478.740448,238.336121 479.122772,239.126755 479.549713,239.839462 
	C486.347839,251.186310 484.550079,254.662796 471.655579,255.120453 
	C470.989685,255.144089 470.310822,255.079193 469.659210,255.185455 
	C462.079590,256.421478 456.142548,255.035370 454.791168,246.074860 
	C454.701904,245.482880 454.121857,244.964905 453.436035,243.887863 
	C448.984802,249.848541 442.883514,252.965683 436.364349,255.420288 
	C427.044739,258.929352 414.391357,255.288864 408.528717,247.307312 
	C406.047638,243.929428 405.203644,240.095825 406.201050,235.530396 
M451.908508,229.705353 
	C444.864746,225.902405 437.443085,226.781693 430.152924,228.398727 
	C426.076630,229.302902 425.032562,232.951630 425.523712,236.697723 
	C425.997589,240.312195 428.961090,240.537888 431.933533,240.817200 
	C437.921173,241.379868 443.332245,239.827072 448.788086,237.490341 
	C452.423584,235.933273 453.914154,234.112701 451.908508,229.705353 
z"/>
<path fill="white" opacity="1.000000" stroke="none" 
	d="
M384.800537,391.795959 
	C388.970398,391.447174 390.152679,393.229004 390.268555,396.802734 
	C390.709473,410.404083 390.803864,410.391144 377.319641,410.256378 
	C373.655182,410.219727 369.986084,410.369110 366.326263,410.235779 
	C363.262085,410.124115 362.258423,411.497681 362.271912,414.431000 
	C362.328522,426.728302 361.485779,424.476471 371.731049,424.686157 
	C378.224915,424.819061 384.735138,424.451538 391.216888,424.757019 
	C394.635529,424.918091 397.567322,423.045410 401.566193,423.036926 
	C400.322632,429.311157 400.139069,435.362152 400.963013,441.451355 
	C401.260315,443.648621 399.302063,444.037323 397.484741,443.929199 
	C380.338776,442.909058 363.196350,443.260864 346.053040,444.012115 
	C344.414062,444.083984 342.692993,444.182861 341.152191,442.385651 
	C344.910889,436.839905 343.584259,430.420502 343.670380,424.198029 
	C343.896149,407.882416 343.217072,391.551941 344.590057,375.255707 
	C345.082367,369.412079 344.673004,363.695007 340.444458,358.329193 
	C360.321350,359.358734 379.054291,358.435455 398.261658,358.537628 
	C398.261658,365.034607 398.261658,371.770172 398.261658,379.326660 
	C389.092255,374.134308 379.187012,377.534821 369.579773,376.514557 
	C362.989288,375.814667 362.689636,376.554626 362.438477,383.393005 
	C362.383484,384.890533 362.459625,386.393219 362.393951,387.889954 
	C362.271851,390.671814 363.653076,391.778259 366.333771,391.762878 
	C372.330322,391.728516 378.327362,391.781219 384.800537,391.795959 
z"/>
<path fill="white" opacity="1.000000" stroke="none" 
	d="
M175.209106,427.340057 
	C183.404739,407.820129 190.583572,388.298615 199.212997,369.376984 
	C200.777359,365.946838 202.641083,362.511566 199.864777,357.997162 
	C205.394943,358.230560 210.137238,359.049713 214.885132,358.367432 
	C216.255478,358.170471 216.586365,359.805420 216.909073,360.872742 
	C221.647934,376.546112 229.793228,390.762695 236.081772,405.772247 
	C238.908722,412.519653 241.973892,419.168030 244.752029,425.934814 
	C247.276581,432.083954 250.813858,437.587158 255.563034,442.230621 
	C252.779373,444.957794 250.158188,443.995972 247.780029,444.048370 
	C241.957581,444.176758 236.131027,444.142334 230.306213,444.130341 
	C226.787170,444.123077 225.300812,442.740906 227.985931,439.697449 
	C231.193359,436.062073 228.226486,433.185699 227.160400,430.084808 
	C226.207458,427.313080 223.815475,427.301056 221.384933,427.319244 
	C213.729294,427.376434 206.072998,427.337219 198.417038,427.361084 
	C191.816040,427.381683 187.540024,434.432251 190.409256,440.486572 
	C190.744644,441.194244 190.859894,442.006256 191.067795,442.736877 
	C187.367905,444.424835 172.493530,444.641449 167.420837,442.941711 
	C170.045929,437.843964 173.982513,433.415924 175.209106,427.340057 
M216.915161,408.650085 
	C214.934921,402.413361 212.632172,396.314362 209.371033,389.760651 
	C206.453186,396.610809 203.067963,402.302734 201.414673,409.478851 
	C206.808578,409.746857 211.688919,410.097626 216.915161,408.650085 
z"/>
<path fill="white" opacity="1.000000" stroke="none" 
	d="
M545.771179,428.215637 
	C548.041138,433.431732 550.853699,437.890350 554.428284,441.837189 
	C550.918701,444.387848 529.521667,444.774261 524.740540,442.434235 
	C527.418579,439.214752 529.760376,435.940979 527.090759,431.478607 
	C525.458374,428.750031 523.674133,427.233246 520.407471,427.297150 
	C513.578491,427.430695 506.742676,427.244751 499.914948,427.409302 
	C492.792969,427.580872 489.196381,434.322601 492.763458,440.532715 
	C493.174225,441.247864 493.607086,441.984222 492.850616,443.504822 
	C484.548187,442.506256 475.938690,444.829407 466.759155,442.968231 
	C473.557007,437.217438 475.344788,429.065460 478.895233,421.884735 
	C488.069031,403.330994 494.329285,383.603729 502.046661,364.463287 
	C502.828491,362.524261 502.384277,360.514282 502.846985,358.158234 
	C506.924133,357.782471 511.041046,358.815155 515.112061,358.092926 
	C516.675903,357.815521 517.322327,359.174591 517.863403,360.488159 
	C526.670715,381.871552 535.504761,403.243988 544.328674,424.620514 
	C544.773438,425.697876 545.181519,426.790344 545.771179,428.215637 
M507.742859,396.190948 
	C505.974213,400.060791 503.555511,403.692047 503.030457,408.771484 
	C508.011200,408.544128 512.676270,409.264923 517.942871,407.964233 
	C515.647339,401.773071 513.547607,396.109772 511.372345,390.242889 
	C509.390167,391.810120 509.094177,393.894348 507.742859,396.190948 
z"/>
<path fill="white" opacity="1.000000" stroke="none" 
	d="
M553.107300,184.853027 
	C556.580444,189.318741 555.811035,193.652008 551.217407,198.635437 
	C547.638794,202.517715 544.319336,201.539062 540.795654,198.579880 
	C535.720032,194.317429 530.215271,191.698105 523.360107,194.254822 
	C520.837585,195.195618 518.710999,196.411591 518.499268,199.281830 
	C518.295593,202.041428 520.783936,202.716415 522.660950,203.636765 
	C527.942261,206.226395 533.877441,206.677536 539.373840,208.591965 
	C541.725708,209.411118 544.091858,210.202988 546.487244,210.881042 
	C557.160461,213.902267 562.512878,221.080765 562.826965,232.018005 
	C563.059509,240.115112 554.996887,250.767792 545.892029,254.265091 
	C531.036926,259.971100 516.737122,257.669342 503.101959,250.356796 
	C497.389801,247.293350 496.164368,242.420486 498.568359,236.210236 
	C500.134766,232.163681 505.247284,229.923782 510.679962,230.701675 
	C512.558289,230.970612 513.652039,232.016907 514.608398,233.431885 
	C519.173340,240.186234 526.346008,241.112366 533.533875,241.522018 
	C537.084229,241.724380 540.249756,239.743759 541.246216,236.242310 
	C542.281006,232.606369 539.054199,230.987915 536.470642,229.541779 
	C530.896484,226.421768 524.457886,225.713242 518.584656,223.395203 
	C515.491882,222.174591 512.291382,221.188904 509.295746,219.767761 
	C500.442627,215.567795 497.105743,208.498749 499.211487,198.860779 
	C501.847321,186.796921 509.658112,179.405243 522.227112,177.918213 
	C533.096497,176.632233 543.445740,178.635361 553.107300,184.853027 
z"/>
<path fill="white" opacity="1.000000" stroke="none" 
	d="
M577.185547,211.490112 
	C569.616089,192.406036 579.489197,177.873138 599.446899,177.575119 
	C609.861389,177.419586 619.656982,178.962479 628.563354,184.641113 
	C632.838501,187.366898 633.347595,189.591675 630.526001,193.592834 
	C625.858154,200.212036 624.137268,200.378586 617.512878,195.893219 
	C612.276978,192.348022 606.484558,190.347046 600.066162,192.290955 
	C597.274780,193.136398 594.648926,194.641159 594.478760,197.943039 
	C594.312134,201.178177 597.065979,202.368973 599.478027,203.483047 
	C605.427917,206.231247 612.038696,206.590134 618.240479,208.495331 
	C621.927429,209.627960 625.453979,210.975616 628.858948,212.754456 
	C636.905457,216.958191 641.770325,223.416611 641.631042,232.606506 
	C641.502319,241.094604 635.830994,246.955704 629.287537,250.823517 
	C612.372131,260.822052 595.240051,258.997162 578.522156,249.658081 
	C575.892273,248.188980 574.883911,245.910812 575.341492,242.940384 
	C576.043030,238.384979 578.333984,234.862335 582.253784,232.468140 
	C584.750549,230.943176 586.680359,230.612625 588.878174,233.678802 
	C592.927307,239.327850 606.286194,242.737244 612.726379,240.221619 
	C615.380005,239.185059 618.231934,237.668930 618.392639,234.512360 
	C618.554932,231.325394 615.942139,229.325714 613.237488,228.424789 
	C608.207031,226.749146 602.937988,225.795944 597.890015,224.165359 
	C590.129822,221.658630 582.308289,219.105499 577.185547,211.490112 
z"/>
<path fill="white" opacity="1.000000" stroke="none" 
	d="
M375.256104,196.108154 
	C374.231079,208.364944 374.150818,220.169937 374.143311,231.987183 
	C374.140656,236.155380 375.890961,237.650879 379.767181,237.683304 
	C383.632019,237.715622 387.328400,237.393677 390.944672,235.724930 
	C396.612793,233.109299 398.599792,234.500290 398.415649,240.545914 
	C398.405518,240.878555 398.388885,241.211624 398.395599,241.544083 
	C398.733459,258.268402 397.696960,254.509003 384.539978,256.047760 
	C375.649384,257.087524 366.603424,256.496002 357.650482,255.368057 
	C354.791351,255.007843 354.122223,253.735031 354.337646,251.062439 
	C356.210724,227.822113 355.864227,204.531708 355.596375,181.252960 
	C355.516815,174.339172 355.599396,167.184692 350.049286,161.571243 
	C353.274841,158.931274 356.925049,159.338638 360.242859,158.706085 
	C364.476227,157.898987 368.755676,157.324036 373.025116,156.718414 
	C376.592346,156.212357 377.879822,157.856247 377.312714,161.328232 
	C375.456848,172.690659 376.868927,184.252380 375.256104,196.108154 
z"/>
<path fill="white" opacity="1.000000" stroke="none" 
	d="
M497.825562,63.176105 
	C497.520081,53.533955 497.520081,53.533955 506.143219,53.808636 
	C513.351379,54.038246 512.986023,54.014538 512.479370,61.822933 
	C511.488098,77.098419 510.157990,92.364647 510.302185,107.702988 
	C510.325317,110.165352 511.676453,113.640961 508.508087,114.854332 
	C505.111267,116.155197 501.934448,114.267822 499.520111,111.811874 
	C492.517456,104.688370 485.671631,97.410904 478.707153,90.249390 
	C477.612976,89.124283 476.847504,87.436211 474.451324,87.334023 
	C474.074677,94.462029 473.457764,101.545975 473.419800,108.633026 
	C473.398132,112.675117 472.159515,114.241394 467.983002,114.237396 
	C458.479523,114.228294 458.548889,114.400261 458.578064,104.929436 
	C458.631287,87.644936 458.593170,70.360168 458.593170,52.949539 
	C463.283691,51.917286 467.084045,52.920433 470.501129,56.292709 
	C477.965881,63.659740 485.862274,70.594650 492.270142,78.984177 
	C493.436157,80.510811 494.508362,82.335220 497.828735,83.114647 
	C497.828735,76.439354 497.828735,70.044228 497.825562,63.176105 
z"/>
<path fill="white" opacity="1.000000" stroke="none" 
	d="
M215.621826,97.569290 
	C222.494843,94.414955 228.885834,91.445717 236.531158,93.225220 
	C250.669479,96.515991 257.599762,113.471901 249.904434,124.158371 
	C249.638519,124.527664 249.613831,125.070648 249.404312,125.776604 
	C254.947403,131.069962 262.175018,134.471176 267.531189,140.567474 
	C263.004150,144.923737 257.566284,146.033386 252.407104,147.638565 
	C250.780243,148.144730 249.728775,146.607605 248.625122,145.618484 
	C244.901413,142.281174 241.054199,139.110977 236.893005,136.312775 
	C234.862045,134.947052 233.084412,134.507599 231.031769,136.205414 
	C228.930481,137.943481 230.409225,139.551453 231.137268,141.082367 
	C232.706985,144.383255 234.430359,147.611908 236.126053,150.851700 
	C237.264526,153.026871 236.709991,154.675674 234.687988,155.933411 
	C234.546783,156.021210 234.409988,156.116470 234.274307,156.212708 
	C225.605103,162.361496 224.592331,162.183014 220.142792,152.662827 
	C213.239410,137.892502 206.551254,123.021530 199.632507,108.258530 
	C198.291794,105.397789 199.072189,103.876068 201.738953,102.854179 
	C206.243362,101.128128 210.756302,99.424393 215.621826,97.569290 
M236.585358,113.571640 
	C233.570663,105.900459 231.521484,105.763092 218.996796,112.466415 
	C219.166458,116.079124 221.198517,118.920967 223.075882,121.834160 
	C224.033798,123.320602 225.190811,123.752396 226.864853,122.934143 
	C230.919724,120.952171 234.920853,118.946945 236.585358,113.571640 
z"/>
<path fill="white" opacity="1.000000" stroke="none" 
	d="
M753.350708,150.184875 
	C746.096252,161.936646 739.510315,173.637970 733.627136,186.230087 
	C728.188416,184.222656 724.174988,180.421371 718.822144,177.771606 
	C722.123962,172.703598 725.182129,168.026062 728.223022,163.337341 
	C731.455566,158.353195 731.410706,158.075867 726.043640,155.140137 
	C722.398010,153.146027 718.672058,151.299271 714.989929,149.371552 
	C712.825745,148.238556 711.302795,148.800583 710.009888,150.870422 
	C707.545410,154.815842 704.337402,158.305878 702.519775,162.643051 
	C700.918335,166.464417 698.468140,166.973083 694.952515,165.236557 
	C683.686890,159.672073 684.772278,161.440399 691.210388,152.243378 
	C700.282043,139.284134 707.767273,125.317093 715.449768,111.507751 
	C717.451355,107.910011 719.335693,107.548393 722.403870,109.576515 
	C722.680054,109.759102 722.993164,109.885773 723.289062,110.038651 
	C731.456482,114.258896 731.286133,114.143120 726.207092,121.616898 
	C723.540710,125.540459 721.593079,129.952484 719.265808,134.245605 
	C725.037537,138.447998 731.439941,140.000488 737.219971,142.831497 
	C739.393921,143.896301 740.084473,141.972626 740.922974,140.557465 
	C744.135132,135.136353 748.007996,130.114883 750.695618,123.737953 
	C755.979492,125.974129 760.363647,128.922791 764.494812,132.950638 
	C760.337341,138.572754 755.552368,143.357483 753.350708,150.184875 
z"/>
<path fill="white" opacity="1.000000" stroke="none" 
	d="
M412.854736,388.999512 
	C412.879486,383.500092 412.933105,378.500427 412.906586,373.501190 
	C412.879517,368.397980 413.711853,363.148743 409.849915,358.418091 
	C418.238098,358.436737 425.898010,359.320618 434.313660,357.701660 
	C428.708893,368.990326 430.606415,379.985138 430.871338,390.891022 
	C431.093597,400.038971 431.518066,409.202728 430.475464,418.350586 
	C429.830383,424.011017 430.462769,424.591980 436.343689,424.608551 
	C446.293396,424.636566 456.243256,424.616241 466.620850,424.616241 
	C465.400787,429.479218 465.269073,435.372620 465.167053,441.283081 
	C465.112061,444.466370 462.324524,444.087585 460.235565,443.917969 
	C447.752930,442.904449 435.248352,443.602234 422.760529,443.285919 
	C418.800262,443.185577 414.897125,444.587311 410.813629,443.765442 
	C414.357849,425.629211 411.907288,407.504425 412.854736,388.999512 
z"/>
<path fill="white" opacity="1.000000" stroke="none" 
	d="
M299.953613,85.110428 
	C293.585968,86.672493 287.612610,88.136024 281.617249,89.503014 
	C278.548950,90.202599 277.010284,91.363770 278.089264,95.023712 
	C279.109558,98.484642 280.725922,99.272476 283.907684,98.063789 
	C287.480652,96.706497 291.169891,95.645073 294.704803,94.200943 
	C298.054962,92.832298 299.962769,93.659767 301.174713,97.122559 
	C304.068268,105.389900 302.731140,108.039803 294.181305,110.369797 
	C292.259949,110.893417 290.367371,111.528214 288.476105,112.155731 
	C285.799835,113.043724 284.297791,114.404922 285.298767,117.671928 
	C286.300812,120.942429 288.234985,120.588104 290.714966,119.923981 
	C296.653473,118.333687 302.685303,117.067329 308.565094,115.291519 
	C312.120087,114.217834 313.996826,115.553963 315.177917,118.587814 
	C315.900085,120.442787 316.464783,122.368080 316.972992,124.295326 
	C317.863708,127.672867 316.593781,129.621994 313.117188,130.479019 
	C301.505920,133.341324 289.697723,135.446014 278.437408,139.679962 
	C275.074982,140.944260 274.596344,137.736069 273.945160,135.732208 
	C270.707031,125.767288 267.597687,115.759048 264.569977,105.727745 
	C262.602112,99.207832 260.874207,92.615852 258.993683,86.069107 
	C258.163513,83.179016 258.778137,81.463310 262.011475,80.543488 
	C273.040070,77.406036 284.019623,74.088806 294.967224,70.677635 
	C298.962646,69.432709 301.386139,69.874657 301.612030,74.726891 
	C301.703064,76.683212 302.394928,78.632607 302.963440,80.540428 
	C303.708160,83.039459 302.595551,84.313980 299.953613,85.110428 
z"/>
<path fill="white" opacity="1.000000" stroke="none" 
	d="
M420.160675,77.889725 
	C424.449646,77.833801 428.280853,77.898041 432.046326,76.979530 
	C435.216766,76.206161 436.810760,77.572281 436.910736,80.783684 
	C436.962524,82.447739 436.964691,84.114548 437.063416,85.775703 
	C437.273987,89.319199 435.605225,91.024323 432.088806,91.106071 
	C428.263306,91.194984 424.474365,91.551361 420.669128,92.099709 
	C417.417084,92.568329 415.939880,93.637711 416.089630,97.110550 
	C416.263031,101.132378 418.837616,101.000336 421.624847,100.948006 
	C427.951111,100.829239 434.281860,100.849937 440.603394,100.615471 
	C443.939331,100.491737 445.313354,101.582230 445.420990,105.137863 
	C445.708771,114.645058 445.861084,114.578644 436.172058,114.994438 
	C426.203003,115.422249 416.231567,115.868782 406.278625,116.558472 
	C402.949280,116.789169 401.858795,115.598953 401.651672,112.439171 
	C400.478180,94.536148 399.206757,76.639229 397.871796,58.747459 
	C397.678467,56.156391 398.636932,54.917889 401.120605,54.894314 
	C413.775909,54.774200 426.346283,53.645653 438.866974,51.857811 
	C441.131500,51.534458 442.365021,52.528996 442.287506,54.911983 
	C442.282104,55.078121 442.287781,55.245438 442.300781,55.411232 
	C443.287689,68.018852 443.286133,67.968330 430.510742,68.379280 
	C426.863953,68.496582 423.235016,69.146660 419.587921,69.280960 
	C416.505859,69.394455 413.941833,69.536819 413.969452,73.712120 
	C413.997650,77.973747 416.690063,78.015160 420.160675,77.889725 
z"/>
<path fill="white" opacity="1.000000" stroke="none" 
	d="
M573.911743,68.099365 
	C574.852051,69.198738 575.203613,70.148956 574.484680,71.082382 
	C571.776245,74.598831 569.189941,78.234444 565.439636,81.599030 
	C560.593811,74.524940 554.932800,70.711678 546.822327,75.722870 
	C542.152344,78.608292 538.469177,86.978577 539.552185,92.280388 
	C540.987061,99.304581 547.477478,105.768364 553.985291,106.502045 
	C557.165039,106.860535 559.409790,105.597916 560.262085,102.541931 
	C559.598877,100.913055 558.315002,100.891006 557.211060,100.782623 
	C555.021301,100.567642 552.281616,101.681610 551.459290,98.389977 
	C550.515381,94.611382 550.344910,90.812538 551.997437,87.158607 
	C552.472595,86.108078 553.592102,85.821419 554.560852,86.276901 
	C560.142944,88.901230 566.197083,88.867012 572.129456,89.467697 
	C575.621521,89.821297 576.610840,91.411385 575.802185,94.841827 
	C574.738647,99.353386 574.038330,103.957756 573.339722,108.546242 
	C572.551636,113.721985 569.684326,116.927979 564.706421,118.397758 
	C552.120117,122.114029 539.963196,120.772362 532.142212,110.555359 
	C522.112366,97.452835 520.892395,85.694725 528.949890,72.304932 
	C537.239441,58.529495 553.029907,54.929237 567.514221,63.572357 
	C569.651123,64.847511 571.616211,66.410812 573.911743,68.099365 
z"/>
<path fill="white" opacity="1.000000" stroke="none" 
	d="
M354.854462,59.999260 
	C355.388245,60.211693 355.575317,60.298817 355.627411,60.436859 
	C360.626038,73.688309 360.423370,74.058655 347.075745,76.868156 
	C343.824768,77.552444 340.616211,78.449303 337.353271,79.062943 
	C334.082794,79.677994 332.725647,81.400497 333.551605,84.683670 
	C334.435944,88.198814 336.688629,87.773003 339.370911,86.898354 
	C342.843323,85.766075 346.420624,84.958321 349.942413,83.973763 
	C352.532471,83.249672 354.344238,84.161270 354.778290,86.757431 
	C355.268738,89.691200 355.427246,92.695633 355.520630,95.675903 
	C355.597839,98.141190 353.519806,98.482635 351.739136,98.846886 
	C348.645721,99.479675 345.508179,99.899292 342.419769,100.553032 
	C339.730835,101.122208 337.773468,102.365685 338.426361,105.680359 
	C339.079498,108.996048 341.348938,108.692986 343.792542,108.313744 
	C349.042511,107.498985 354.324097,106.869522 359.550690,105.930161 
	C362.642792,105.374428 364.392334,106.359123 364.858521,109.443619 
	C365.255219,112.068367 365.549835,114.708557 365.889374,117.341942 
	C366.159515,119.437332 364.923981,120.593719 363.145020,120.846809 
	C352.295380,122.390434 341.719208,125.514694 330.748657,126.369537 
	C327.609161,126.614166 326.395630,125.340607 325.830444,122.287552 
	C322.749268,105.642899 319.599854,89.007935 316.161316,72.434494 
	C315.325378,68.405273 315.624634,66.712982 320.293457,66.605827 
	C332.025391,66.336594 342.931061,61.508282 354.854462,59.999260 
z"/>
<path fill="white" opacity="1.000000" stroke="none" 
	d="
M717.998108,317.331116 
	C652.516357,317.253693 587.534302,317.178284 522.552307,317.072357 
	C519.894165,317.068024 517.231934,316.831116 514.580322,316.601105 
	C512.589844,316.428436 511.724243,315.233765 511.729309,313.227783 
	C511.734070,311.359863 512.224731,309.881378 514.244141,309.505951 
	C515.871704,309.203400 517.536194,308.932983 519.184448,308.931610 
	C589.010132,308.873199 658.835754,308.842255 728.661438,308.832123 
	C731.458679,308.831726 734.642761,308.432556 735.007629,312.609589 
	C735.262146,315.522583 734.529602,317.496216 730.995972,317.374115 
	C726.834290,317.230255 722.664246,317.332275 717.998108,317.331116 
z"/>
<path fill="white" opacity="1.000000" stroke="none" 
	d="
M701.983398,105.150742 
	C700.773071,109.091919 697.745850,111.365097 695.296509,113.984795 
	C692.808899,116.645416 689.578369,115.765076 687.729309,112.201637 
	C686.163940,109.184807 684.292175,106.867516 680.550659,107.052956 
	C678.684509,107.145447 676.812500,107.449097 675.801147,109.266373 
	C674.713196,111.221458 675.842896,112.838882 677.024780,114.243874 
	C679.697144,117.420547 682.657227,120.367683 685.183533,123.651863 
	C689.260498,128.951996 692.579834,134.919067 689.229858,141.555313 
	C685.490479,148.962799 679.329529,153.660797 670.462036,153.231064 
	C662.210938,152.831207 654.671814,150.601913 649.657959,143.382156 
	C646.550293,138.907364 647.203613,132.928192 651.110168,129.222763 
	C654.050415,126.433914 656.956055,127.585724 659.512451,129.898468 
	C661.604492,131.791077 663.378601,134.036453 665.481323,135.915405 
	C667.631592,137.836823 670.248840,138.804337 672.628113,136.485275 
	C675.169983,134.007629 673.123169,131.956589 671.408447,130.094894 
	C669.492737,128.014847 667.507141,125.998695 665.538147,123.968124 
	C659.201416,117.433090 657.842896,109.643471 661.815063,102.564865 
	C665.880981,95.319359 675.067261,91.033615 683.110657,93.155823 
	C690.474304,95.098686 696.784363,99.057625 701.983398,105.150742 
z"/>
<path fill="white" opacity="1.000000" stroke="none" 
	d="
M189.395935,135.505005 
	C191.983688,133.718826 193.845383,134.457993 195.257965,136.504913 
	C196.575531,138.414124 197.619415,140.509750 198.867798,142.469803 
	C200.357910,144.809357 199.786774,146.301178 197.410355,147.716553 
	C192.558197,150.606430 187.860199,153.755173 182.684372,157.062042 
	C185.431046,163.653656 190.133728,168.819321 194.411453,174.836990 
	C189.699814,178.649490 185.265915,182.237259 180.283432,186.268921 
	C177.342499,180.723083 174.826767,175.901001 172.240387,171.117126 
	C165.586517,158.809753 158.652115,146.666962 150.723389,135.122711 
	C149.554214,133.420380 147.963715,131.719727 150.667068,130.187653 
	C162.812302,123.304512 174.696655,115.942719 187.360367,109.733414 
	C190.110626,112.328339 191.339874,115.631264 193.086594,118.593231 
	C194.868103,121.614174 193.940063,123.243797 190.790543,124.698280 
	C183.727829,127.959923 176.849808,131.621536 170.082153,135.026917 
	C169.656860,137.004608 170.522141,138.259842 171.268341,139.546585 
	C174.079224,144.393692 175.329758,144.707184 179.801025,141.493988 
	C182.775909,139.356125 185.624741,137.034302 189.395935,135.505005 
z"/>
<path fill="white" opacity="1.000000" stroke="none" 
	d="
M558.203735,361.232361 
	C557.497742,360.121979 556.530945,359.513336 556.900513,357.963135 
	C564.644104,357.963135 572.475891,357.963135 580.410889,357.963135 
	C575.127625,373.997803 579.271484,390.119507 578.330139,406.028809 
	C578.006470,411.498657 578.288452,417.005829 578.333679,422.495605 
	C578.393005,429.689026 577.205383,437.152466 583.695496,442.998962 
	C583.366394,443.342621 583.037231,443.686279 582.708130,444.029938 
	C575.165039,444.029938 567.621216,444.081207 560.079346,443.986786 
	C558.570190,443.967896 557.408142,442.854370 558.106506,441.276825 
	C561.231506,434.217773 559.832458,426.777649 559.502808,419.620667 
	C558.713135,402.477722 559.312744,385.374939 559.657593,368.255554 
	C559.704346,365.935150 559.897522,363.568573 558.203735,361.232361 
z"/>
<path fill="white" opacity="1.000000" stroke="none" 
	d="
M309.473145,317.641479 
	C282.753082,317.711548 256.450012,318.209412 230.160690,317.807648 
	C212.850815,317.543091 195.543106,317.540192 178.236023,317.304688 
	C175.907181,317.272980 172.442444,318.620209 172.329422,314.140900 
	C172.219162,309.770782 175.120041,309.668640 178.372040,309.669617 
	C230.471573,309.685333 282.574158,309.961639 334.668915,309.450562 
	C350.979950,309.290558 367.268097,309.952820 383.568573,309.696930 
	C385.675385,309.663818 388.623718,308.818695 388.696014,312.612396 
	C388.759613,315.950256 386.455322,316.848694 383.788696,316.985535 
	C379.469635,317.207092 375.138794,317.238251 370.812347,317.270935 
	C350.506989,317.424377 330.201477,317.550934 309.473145,317.641479 
z"/>
<path fill="white" opacity="1.000000" stroke="none" 
	d="
M670.000000,303.406342 
	C625.189209,303.931824 580.880005,304.327393 536.424072,302.560883 
	C536.513733,298.318848 538.915161,298.239410 540.938171,297.867889 
	C547.329224,296.694305 553.778564,295.929810 560.277954,295.890411 
	C580.586609,295.767303 600.902039,296.022461 621.203369,295.591431 
	C655.487122,294.863617 689.756958,296.061890 724.034119,295.898560 
	C726.354065,295.887482 728.687744,296.088074 730.992676,296.371826 
	C733.151794,296.637634 734.101379,298.073181 734.076355,300.211121 
	C734.047241,302.691528 732.400208,303.266296 730.390869,303.248047 
	C717.243408,303.128510 704.120178,304.420380 690.960083,303.813110 
	C684.148132,303.498749 677.320251,303.531219 670.000000,303.406342 
z"/>
<path fill="white" opacity="1.000000" stroke="none" 
	d="
M310.994720,295.743591 
	C331.092010,296.608856 350.690796,297.466064 370.287140,298.376038 
	C370.625275,298.391785 370.933777,299.045044 371.248077,299.391937 
	C370.435730,301.559753 368.564362,301.137970 366.995361,301.247833 
	C337.931641,303.282043 308.828400,304.103455 279.697113,304.056091 
	C249.727142,304.007355 219.757080,303.997864 189.787262,303.903870 
	C185.466080,303.890320 181.142471,303.552979 176.827225,303.259338 
	C174.941513,303.131012 173.075195,302.664246 172.968063,300.232819 
	C172.857132,297.715393 174.371643,296.866730 176.665131,296.480621 
	C181.630600,295.644714 186.625305,295.753265 191.612198,295.749603 
	C231.240112,295.720398 270.868073,295.737640 310.994720,295.743591 
z"/>
<path fill="white" opacity="1.000000" stroke="none" 
	d="
M585.807495,127.316620 
	C584.446960,126.978363 583.496033,126.646751 582.517334,126.464119 
	C578.604553,125.733986 577.628418,124.307274 579.005432,119.940224 
	C583.954102,104.245697 587.437317,88.147430 589.605103,71.828560 
	C590.246643,66.998970 591.354675,65.269798 596.646240,66.525581 
	C605.222717,68.560944 605.232239,68.158691 603.357056,76.461243 
	C600.831848,87.641983 598.549988,98.878532 595.935547,110.037666 
	C595.230774,113.045868 596.027649,114.209526 598.917542,114.977234 
	C604.855225,116.554596 610.670044,118.590858 616.596313,120.216309 
	C619.361389,120.974716 620.514038,121.947510 619.469971,125.075851 
	C615.583923,136.719650 618.443970,135.736984 606.452637,132.769913 
	C599.674622,131.092804 592.951965,129.191864 585.807495,127.316620 
z"/>
<path fill="white" opacity="1.000000" stroke="none" 
	d="
M456.716248,314.694672 
	C456.352295,317.642639 456.077362,320.463379 456.152222,323.274780 
	C456.268311,327.634247 453.567963,327.879028 450.244049,327.936798 
	C446.802551,327.996613 445.555969,326.656921 445.606049,323.219025 
	C445.753632,313.085632 445.658752,302.948730 445.658752,292.419250 
	C457.930634,289.106567 459.766388,301.123779 466.381042,306.771545 
	C469.036621,302.365387 466.709656,297.374603 467.913757,293.087097 
	C468.220306,292.849548 468.340576,292.675476 468.475372,292.663452 
	C478.039154,291.808502 477.857178,291.801605 477.444916,301.219604 
	C477.132324,308.359711 477.440247,315.525055 477.293121,322.675476 
	C477.253082,324.620361 478.416412,327.526276 475.349884,328.103088 
	C472.508789,328.637543 469.405243,329.113892 467.203796,326.040070 
	C464.208679,321.858124 460.846954,317.968353 456.716248,314.694672 
z"/>
<path fill="white" opacity="1.000000" stroke="none" 
	d="
M656.707275,86.771873 
	C652.187988,96.657158 649.786743,106.877403 646.467407,116.788918 
	C643.988892,124.189865 641.082581,131.446701 638.526428,138.823029 
	C637.554749,141.627121 636.098999,142.733124 633.355164,141.232025 
	C630.443359,139.639053 626.101990,139.852783 624.511353,137.115662 
	C622.605286,133.835861 626.819336,131.370209 627.875061,128.334045 
	C632.024109,116.401733 636.359131,104.536156 639.754089,92.351334 
	C640.949951,88.059288 642.532532,83.874969 644.071472,79.241112 
	C648.054565,80.396187 651.822449,81.500595 655.597717,82.579346 
	C657.940491,83.248795 657.732178,84.740631 656.707275,86.771873 
z"/>
<path fill="white" opacity="1.000000" stroke="none" 
	d="
M722.877686,235.268845 
	C705.583130,234.942688 688.774780,234.550674 671.964233,234.344803 
	C668.453430,234.301819 666.715515,233.272141 666.793701,229.487640 
	C666.868347,225.873169 668.308899,224.548477 671.958862,224.617752 
	C688.603882,224.933685 705.261780,224.482925 721.896484,225.476974 
	C722.725037,225.526474 723.560364,225.450912 724.391541,225.471313 
	C727.224670,225.540771 731.169495,223.379257 731.296570,228.908340 
	C731.415588,234.088608 730.228394,235.186325 724.362427,235.268402 
	C724.029419,235.273071 723.696228,235.269104 722.877686,235.268845 
z"/>
<path fill="white" opacity="1.000000" stroke="none" 
	d="
M182.261963,225.744324 
	C198.031708,225.396545 213.326584,225.049713 228.622543,224.761154 
	C231.713669,224.702820 235.131668,223.979584 235.289856,229.042480 
	C235.441345,233.891373 232.730499,234.294022 228.947464,234.348633 
	C213.817627,234.566986 198.691010,235.002777 183.561737,235.275497 
	C181.717270,235.308746 179.038422,235.914215 178.899689,232.980087 
	C178.773392,230.309143 177.180298,226.680664 182.261963,225.744324 
z"/>
<path fill="white" opacity="1.000000" stroke="none" 
	d="
M431.394043,296.630127 
	C431.430695,306.033142 431.408905,314.993622 431.591522,323.949921 
	C431.640747,326.363525 431.703522,328.623901 428.550323,328.245544 
	C425.546844,327.885193 420.981445,330.512177 420.273865,324.856049 
	C419.884857,321.746338 419.999634,318.558563 420.067810,315.409882 
	C420.207733,308.946625 420.672607,302.484222 420.616425,296.024811 
	C420.571136,290.820435 424.101959,291.939392 427.115326,291.730103 
	C430.415771,291.500854 432.362122,292.400818 431.394043,296.630127 
z"/>
</svg>